<svg version="1.1" viewBox="0.0 0.0 600.0 371.0" fill="none" stroke="none" stroke-linecap="square" stroke-miterlimit="10" width="600" height="371" xmlns:xlink="http://www.w3.org/1999/xlink" xmlns="http://www.w3.org/2000/svg"><path fill="#ffffff" d="M0 0L600.0 0L600.0 371.0L0 371.0L0 0Z" fill-rule="nonzero"/><path fill="#ffffff" fill-opacity="0.0" d="M0 0L600.0 0L600.0 371.0L0 371.0L0 0Z" fill-rule="nonzero"/><path stroke="#333333" stroke-width="1.0" stroke-linecap="butt" d="M94.5 262.5L581.5 262.5" fill-rule="nonzero"/><path stroke="#cccccc" stroke-width="1.0" stroke-linecap="butt" d="M94.5 213.5L581.5 213.5" fill-rule="nonzero"/><path stroke="#cccccc" stroke-width="1.0" stroke-linecap="butt" d="M94.5 164.5L581.5 164.5" fill-rule="nonzero"/><path stroke="#cccccc" stroke-width="1.0" stroke-linecap="butt" d="M94.5 116.5L581.5 116.5" fill-rule="nonzero"/><path stroke="#cccccc" stroke-width="1.0" stroke-linecap="butt" d="M94.5 67.5L581.5 67.5" fill-rule="nonzero"/><clipPath id="id_0"><path d="M94.55 67.416664L581.45 67.416664L581.45 262.45L94.55 262.45L94.55 67.416664Z" clip-rule="nonzero"/></clipPath><path stroke="#000000" stroke-width="0.0" stroke-linecap="butt" stroke-opacity="0.0" clip-path="url(#id_0)" d="M186.0 262.0L127.0 262.0L127.0 113.0C127.0 111.89543 127.89543 111.0 129.0 111.0L184.0 111.0C185.10457 111.0 186.0 111.89543 186.0 113.0Z" fill-rule="nonzero"/><path fill="#2b8800" clip-path="url(#id_0)" d="M186.0 262.0L127.0 262.0L127.0 113.0C127.0 111.89543 127.89543 111.0 129.0 111.0L184.0 111.0C185.10457 111.0 186.0 111.89543 186.0 113.0Z" fill-rule="nonzero"/><path stroke="#000000" stroke-width="0.0" stroke-linecap="butt" stroke-opacity="0.0" clip-path="url(#id_0)" d="M277.0 262.0L218.0 262.0L218.0 197.0C218.0 195.89543 218.89543 195.0 220.0 195.0L275.0 195.0C276.10458 195.0 277.0 195.89543 277.0 197.0Z" fill-rule="nonzero"/><path fill="#2b8800" clip-path="url(#id_0)" d="M277.0 262.0L218.0 262.0L218.0 197.0C218.0 195.89543 218.89543 195.0 220.0 195.0L275.0 195.0C276.10458 195.0 277.0 195.89543 277.0 197.0Z" fill-rule="nonzero"/><path stroke="#000000" stroke-width="0.0" stroke-linecap="butt" stroke-opacity="0.0" clip-path="url(#id_0)" d="M368.0 262.0L309.0 262.0L309.0 135.0C309.0 133.89543 309.89542 133.0 311.0 133.0L366.0 133.0C367.10458 133.0 368.0 133.89543 368.0 135.0Z" fill-rule="nonzero"/><path fill="#2b8800" clip-path="url(#id_0)" d="M368.0 262.0L309.0 262.0L309.0 135.0C309.0 133.89543 309.89542 133.0 311.0 133.0L366.0 133.0C367.10458 133.0 368.0 133.89543 368.0 135.0Z" fill-rule="nonzero"/><path stroke="#000000" stroke-width="0.0" stroke-linecap="butt" stroke-opacity="0.0" clip-path="url(#id_0)" d="M459.0 262.0L400.0 262.0L400.0 196.0C400.0 194.89543 400.89542 194.0 402.0 194.0L457.0 194.0C458.10458 194.0 459.0 194.89543 459.0 196.0Z" fill-rule="nonzero"/><path fill="#2b8800" clip-path="url(#id_0)" d="M459.0 262.0L400.0 262.0L400.0 196.0C400.0 194.89543 400.89542 194.0 402.0 194.0L457.0 194.0C458.10458 194.0 459.0 194.89543 459.0 196.0Z" fill-rule="nonzero"/><path stroke="#000000" stroke-width="0.0" stroke-linecap="butt" stroke-opacity="0.0" clip-path="url(#id_0)" d="M550.0 262.0L491.0 262.0L491.0 122.0C491.0 120.89543 491.89542 120.0 493.0 120.0L548.0 120.0C549.10455 120.0 550.0 120.89543 550.0 122.0Z" fill-rule="nonzero"/><path fill="#2b8800" clip-path="url(#id_0)" d="M550.0 262.0L491.0 262.0L491.0 122.0C491.0 120.89543 491.89542 120.0 493.0 120.0L548.0 120.0C549.10455 120.0 550.0 120.89543 550.0 122.0Z" fill-rule="nonzero"/><path fill="#424242" d="M315.54688 341.79376L310.17188 341.79376L310.17188 347.45L308.48438 347.45L308.48438 334.65314L316.40625 334.65314L316.40625 336.04376L310.17188 336.04376L310.17188 340.41876L315.54688 340.41876L315.54688 341.79376ZM322.17188 347.6219Q320.25 347.6219 319.03125 346.35626Q317.8125 345.09064 317.8125 342.96564L317.8125 342.65314Q317.8125 341.2469 318.35938 340.1375Q318.90625 339.02814 319.875 338.40314Q320.84375 337.7625 321.96875 337.7625Q323.82812 337.7625 324.85938 338.98126Q325.89062 340.2 325.89062 342.48126L325.89062 343.15314L319.4375 343.15314Q319.48438 344.5594 320.26562 345.4344Q321.04688 346.29376 322.26562 346.29376Q323.125 346.29376 323.71875 345.95Q324.32812 345.59064 324.76562 345.0125L325.76562 345.79376Q324.5625 347.6219 322.17188 347.6219ZM321.96875 339.10626Q320.98438 339.10626 320.3125 339.825Q319.65625 340.52814 319.5 341.825L324.26562 341.825L324.26562 341.7Q324.1875 340.46564 323.59375 339.79376Q323.0 339.10626 321.96875 339.10626ZM334.10938 347.45Q333.96875 347.16876 333.875 346.45Q332.73438 347.6219 331.17188 347.6219Q329.76562 347.6219 328.85938 346.825Q327.95312 346.02814 327.95312 344.8094Q327.95312 343.325 329.07812 342.5125Q330.21875 341.6844 332.26562 341.6844L333.84375 341.6844L333.84375 340.9344Q333.84375 340.09064 333.32812 339.59064Q332.82812 339.075 331.82812 339.075Q330.96875 339.075 330.375 339.5125Q329.78125 339.95 329.78125 340.575L328.15625 340.575Q328.15625 339.8719 328.65625 339.21564Q329.15625 338.54376 330.01562 338.15314Q330.89062 337.7625 331.9375 337.7625Q333.57812 337.7625 334.5 338.59064Q335.4375 339.40314 335.46875 340.85626L335.46875 345.23126Q335.46875 346.52814 335.8125 347.3094L335.8125 347.45L334.10938 347.45ZM331.40625 346.21564Q332.17188 346.21564 332.85938 345.825Q333.54688 345.41876 333.84375 344.79376L333.84375 342.84064L332.57812 342.84064Q329.57812 342.84064 329.57812 344.59064Q329.57812 345.35626 330.09375 345.79376Q330.60938 346.21564 331.40625 346.21564ZM340.4375 335.6375L340.4375 337.9344L342.21875 337.9344L342.21875 339.2L340.4375 339.2L340.4375 345.09064Q340.4375 345.66876 340.67188 345.95Q340.90625 346.23126 341.48438 346.23126Q341.76562 346.23126 342.25 346.1375L342.25 347.45Q341.60938 347.6219 341.01562 347.6219Q339.92188 347.6219 339.35938 346.96564Q338.8125 346.3094 338.8125 345.09064L338.8125 339.2L337.07812 339.2L337.07812 337.9344L338.8125 337.9344L338.8125 335.6375L340.4375 335.6375ZM350.10938 346.5125Q349.15625 347.6219 347.3125 347.6219Q345.79688 347.6219 345.0 346.7469Q344.20312 345.85626 344.20312 344.1219L344.20312 337.9344L345.82812 337.9344L345.82812 344.09064Q345.82812 346.2469 347.57812 346.2469Q349.4375 346.2469 350.0625 344.85626L350.0625 337.9344L351.6875 337.9344L351.6875 347.45L350.14062 347.45L350.10938 346.5125ZM358.82812 339.40314Q358.45312 339.34064 358.03125 339.34064Q356.42188 339.34064 355.85938 340.7L355.85938 347.45L354.23438 347.45L354.23438 337.9344L355.8125 337.9344L355.84375 339.04376Q356.64062 337.7625 358.10938 337.7625Q358.57812 337.7625 358.82812 337.8875L358.82812 339.40314ZM364.17188 347.6219Q362.25 347.6219 361.03125 346.35626Q359.8125 345.09064 359.8125 342.96564L359.8125 342.65314Q359.8125 341.2469 360.35938 340.1375Q360.90625 339.02814 361.875 338.40314Q362.84375 337.7625 363.96875 337.7625Q365.82812 337.7625 366.85938 338.98126Q367.89062 340.2 367.89062 342.48126L367.89062 343.15314L361.4375 343.15314Q361.48438 344.5594 362.26562 345.4344Q363.04688 346.29376 364.26562 346.29376Q365.125 346.29376 365.71875 345.95Q366.32812 345.59064 366.76562 345.0125L367.76562 345.79376Q366.5625 347.6219 364.17188 347.6219ZM363.96875 339.10626Q362.98438 339.10626 362.3125 339.825Q361.65625 340.52814 361.5 341.825L366.26562 341.825L366.26562 341.7Q366.1875 340.46564 365.59375 339.79376Q365.0 339.10626 363.96875 339.10626Z" fill-rule="nonzero"/><path fill="#424242" d="M30.534388 218.51146L35.55001 218.51146L35.55001 220.19896L22.753138 220.19896L22.753138 215.48021Q22.753138 213.37083 23.831263 212.18333Q24.893763 210.99583 26.659388 210.99583Q28.534388 210.99583 29.534388 212.16771Q30.534388 213.32396 30.534388 215.49583L30.534388 218.51146ZM29.159388 218.51146L29.159388 215.48021Q29.159388 214.12083 28.518763 213.40208Q27.878138 212.68333 26.675013 212.68333Q25.534388 212.68333 24.862513 213.40208Q24.175013 214.12083 24.143763 215.38646L24.143763 218.51146L29.159388 218.51146ZM30.706263 209.88646Q29.315638 209.88646 28.206263 209.33958Q27.081263 208.77708 26.471888 207.80833Q25.862513 206.82396 25.862513 205.57396Q25.862513 203.62083 27.206263 202.43333Q28.550013 201.23021 30.784388 201.23021L30.893763 201.23021Q32.284386 201.23021 33.39376 201.76146Q34.48751 202.29271 35.11251 203.27708Q35.721886 204.26146 35.721886 205.54271Q35.721886 207.48021 34.378136 208.68333Q33.034386 209.88646 30.815638 209.88646L30.706263 209.88646ZM30.893763 208.24583Q32.48751 208.24583 33.440636 207.51146Q34.39376 206.77708 34.39376 205.54271Q34.39376 204.30833 33.42501 203.58958Q32.45626 202.85521 30.706263 202.85521Q29.143763 202.85521 28.175013 203.60521Q27.206263 204.33958 27.206263 205.57396Q27.206263 206.77708 28.159388 207.51146Q29.112513 208.24583 30.893763 208.24583ZM30.893763 191.41771Q33.065636 191.41771 34.39376 192.41771Q35.721886 193.40208 35.721886 195.10521Q35.721886 196.83958 34.628136 197.82396L39.20626 197.82396L39.20626 199.44896L26.034388 199.44896L26.034388 197.96458L27.096888 197.88646Q25.862513 196.90208 25.862513 195.12083Q25.862513 193.41771 27.159388 192.41771Q28.440638 191.41771 30.753138 191.41771L30.893763 191.41771ZM30.721888 193.04271Q29.112513 193.04271 28.175013 193.73021Q27.237513 194.41771 27.237513 195.60521Q27.237513 197.08958 28.550013 197.82396L33.096886 197.82396Q34.39376 197.08958 34.39376 195.58958Q34.39376 194.41771 33.471886 193.73021Q32.55001 193.04271 30.721888 193.04271ZM34.61251 183.57396Q35.721886 184.52708 35.721886 186.37083Q35.721886 187.88646 34.846886 188.68333Q33.95626 189.48021 32.221886 189.48021L26.034388 189.48021L26.034388 187.85521L32.190636 187.85521Q34.346886 187.85521 34.346886 186.10521Q34.346886 184.24583 32.95626 183.62083L26.034388 183.62083L26.034388 181.99583L35.55001 181.99583L35.55001 183.54271L34.61251 183.57396ZM35.55001 177.68333L35.55001 179.30833L22.050013 179.30833L22.050013 177.68333L35.55001 177.68333ZM35.55001 169.57396Q35.26876 169.71458 34.55001 169.80833Q35.721886 170.94896 35.721886 172.51146Q35.721886 173.91771 34.92501 174.82396Q34.128136 175.73021 32.909386 175.73021Q31.425013 175.73021 30.612513 174.60521Q29.784388 173.46458 29.784388 171.41771L29.784388 169.83958L29.034388 169.83958Q28.190638 169.83958 27.690638 170.35521Q27.175013 170.85521 27.175013 171.85521Q27.175013 172.71458 27.612513 173.30833Q28.050013 173.90208 28.675013 173.90208L28.675013 175.52708Q27.971888 175.52708 27.315638 175.02708Q26.643763 174.52708 26.253138 173.66771Q25.862513 172.79271 25.862513 171.74583Q25.862513 170.10521 26.690638 169.18333Q27.503138 168.24583 28.956263 168.21458L33.33126 168.21458Q34.628136 168.21458 35.409386 167.87083L35.55001 167.87083L35.55001 169.57396ZM34.315636 172.27708Q34.315636 171.51146 33.92501 170.82396Q33.51876 170.13646 32.89376 169.83958L30.940638 169.83958L30.940638 171.10521Q30.940638 174.10521 32.690636 174.10521Q33.45626 174.10521 33.89376 173.58958Q34.315636 173.07396 34.315636 172.27708ZM27.503138 160.85521Q27.440638 161.23021 27.440638 161.65208Q27.440638 163.26146 28.800013 163.82396L35.55001 163.82396L35.55001 165.44896L26.034388 165.44896L26.034388 163.87083L27.143763 163.83958Q25.862513 163.04271 25.862513 161.57396Q25.862513 161.10521 25.987513 160.85521L27.503138 160.85521ZM35.55001 157.68333L35.55001 159.30833L26.034388 159.30833L26.034388 157.68333L35.55001 157.68333ZM23.518763 159.44896Q23.128138 159.44896 22.862513 159.21458Q22.581263 158.96458 22.581263 158.49583Q22.581263 158.01146 22.862513 157.76146Q23.128138 157.51146 23.518763 157.51146Q23.909388 157.51146 24.175013 157.76146Q24.440638 158.01146 24.440638 158.49583Q24.440638 158.96458 24.175013 159.21458Q23.909388 159.44896 23.518763 159.44896ZM23.737513 153.24583L26.034388 153.24583L26.034388 151.46458L27.300013 151.46458L27.300013 153.24583L33.190636 153.24583Q33.76876 153.24583 34.05001 153.01146Q34.33126 152.77708 34.33126 152.19896Q34.33126 151.91771 34.23751 151.43333L35.55001 151.43333Q35.721886 152.07396 35.721886 152.66771Q35.721886 153.76146 35.065636 154.32396Q34.409386 154.87083 33.190636 154.87083L27.300013 154.87083L27.300013 156.60521L26.034388 156.60521L26.034388 154.87083L23.737513 154.87083L23.737513 153.24583ZM33.17501 146.33958L26.034388 144.12083L26.034388 142.38646L37.01876 146.21458Q39.39376 147.08958 39.39376 149.02708L39.36251 149.33958L39.253136 149.94896L37.92501 149.94896L37.971886 149.51146Q37.971886 148.68333 37.628136 148.23021Q37.30001 147.76146 36.409386 147.46458L35.440636 147.08958L26.034388 150.49583L26.034388 148.71458L33.17501 146.33958Z" fill-rule="nonzero"/><path fill="#757575" d="M87.6125 263.3094Q87.6125 265.21564 86.95625 266.15314Q86.31563 267.075 84.925 267.075Q83.56563 267.075 82.90938 266.16876Q82.25313 265.2625 82.22188 263.45L82.22188 262.0125Q82.22188 260.1219 82.8625 259.21564Q83.51875 258.29376 84.90938 258.29376Q86.28438 258.29376 86.94063 259.1844Q87.59688 260.0594 87.6125 261.90314L87.6125 263.3094ZM86.51875 261.825Q86.51875 260.45 86.12813 259.825Q85.75313 259.1844 84.90938 259.1844Q84.08125 259.1844 83.69063 259.825Q83.31563 260.45 83.31563 261.7469L83.31563 263.48126Q83.31563 264.85626 83.70625 265.52814Q84.1125 266.1844 84.925 266.1844Q85.72188 266.1844 86.1125 265.5594Q86.50313 264.9344 86.51875 263.60626L86.51875 261.825Z" fill-rule="nonzero"/><path fill="#757575" d="M85.81563 218.19167L84.7375 218.19167L84.7375 210.97292L82.55 211.76979L82.55 210.78542L85.65938 209.61354L85.81563 209.61354L85.81563 218.19167Z" fill-rule="nonzero"/><path fill="#757575" d="M87.84688 169.43333L82.25313 169.43333L82.25313 168.65208L85.20625 165.37083Q85.8625 164.62083 86.1125 164.16771Q86.3625 163.69896 86.3625 163.19896Q86.3625 162.52708 85.95625 162.10521Q85.56563 161.66771 84.87813 161.66771Q84.08125 161.66771 83.62813 162.13646Q83.175 162.58958 83.175 163.41771L82.09688 163.41771Q82.09688 162.23021 82.84688 161.51146Q83.6125 160.77708 84.87813 160.77708Q86.08125 160.77708 86.76875 161.40208Q87.45625 162.02708 87.45625 163.07396Q87.45625 164.32396 85.84688 166.07396L83.56563 168.54271L87.84688 168.54271L87.84688 169.43333Z" fill-rule="nonzero"/><path fill="#757575" d="M83.83125 115.87813L84.64375 115.87813Q85.425 115.8625 85.8625 115.47188Q86.3 115.08125 86.3 114.40938Q86.3 112.90938 84.8 112.90938Q84.09688 112.90938 83.675 113.31563Q83.26875 113.72188 83.26875 114.37813L82.175 114.37813Q82.175 113.3625 82.90938 112.69063Q83.65938 112.01875 84.8 112.01875Q86.00313 112.01875 86.69063 112.65938Q87.37813 113.3 87.37813 114.44063Q87.37813 115.00313 87.01875 115.51875Q86.65938 116.03438 86.03438 116.3Q86.7375 116.51875 87.1125 117.03438Q87.50313 117.55 87.50313 118.3Q87.50313 119.44063 86.75313 120.12813Q86.00313 120.8 84.8 120.8Q83.6125 120.8 82.84688 120.14375Q82.09688 119.4875 82.09688 118.425L83.19063 118.425Q83.19063 119.09688 83.62813 119.50313Q84.06563 119.90938 84.81563 119.90938Q85.59688 119.90938 86.00313 119.50313Q86.425 119.08125 86.425 118.31563Q86.425 117.58125 85.97188 117.19063Q85.51875 116.78438 84.64375 116.76875L83.83125 116.76875L83.83125 115.87813Z" fill-rule="nonzero"/><path fill="#757575" d="M86.83125 69.05729L88.01875 69.05729L88.01875 69.93229L86.83125 69.93229L86.83125 71.916664L85.75313 71.916664L85.75313 69.93229L81.8625 69.93229L81.8625 69.291664L85.675 63.385414L86.83125 63.385414L86.83125 69.05729ZM83.09688 69.05729L85.75313 69.05729L85.75313 64.86979L85.6125 65.104164L83.09688 69.05729Z" fill-rule="nonzero"/><path fill="#757575" d="M129.57506 278.0125Q127.88756 277.52814 127.10631 276.825Q126.34068 276.10626 126.34068 275.075Q126.34068 273.90314 127.27818 273.1375Q128.21568 272.35626 129.73131 272.35626Q130.74693 272.35626 131.54381 272.7625Q132.35631 273.15314 132.79381 273.85626Q133.24693 274.54376 133.24693 275.3719L131.91881 275.3719Q131.91881 274.46564 131.34068 273.95Q130.77818 273.4344 129.73131 273.4344Q128.76256 273.4344 128.21568 273.8719Q127.66881 274.29376 127.66881 275.0594Q127.66881 275.66876 128.18443 276.09064Q128.70006 276.4969 129.93443 276.85626Q131.18443 277.2 131.88756 277.6219Q132.59068 278.04376 132.91881 278.60626Q133.26256 279.16876 133.26256 279.91876Q133.26256 281.1375 132.30943 281.8719Q131.37193 282.59064 129.79381 282.59064Q128.76256 282.59064 127.87193 282.2Q126.99693 281.79376 126.51256 281.1219Q126.02818 280.4344 126.02818 279.5594L127.34068 279.5594Q127.34068 280.46564 128.01256 280.9969Q128.68443 281.5125 129.79381 281.5125Q130.84068 281.5125 131.38756 281.09064Q131.93443 280.66876 131.93443 279.9344Q131.93443 279.2 131.41881 278.8094Q130.91881 278.40314 129.57506 278.0125ZM137.51256 282.59064Q135.99693 282.59064 135.05943 281.60626Q134.12193 280.60626 134.12193 278.95L134.12193 278.73126Q134.12193 277.6219 134.54381 276.7625Q134.96568 275.8875 135.71568 275.40314Q136.46568 274.91876 137.35631 274.91876Q138.79381 274.91876 139.59068 275.8719Q140.38756 276.8094 140.38756 278.59064L140.38756 279.10626L135.38756 279.10626Q135.40318 280.2 136.01256 280.8875Q136.63756 281.5594 137.57506 281.5594Q138.24693 281.5594 138.70006 281.29376Q139.16881 281.0125 139.52818 280.5594L140.29381 281.15314Q139.37193 282.59064 137.51256 282.59064ZM137.35631 275.95Q136.59068 275.95 136.05943 276.5125Q135.54381 277.075 135.41881 278.075L139.12193 278.075L139.12193 277.98126Q139.07506 277.0125 138.60631 276.48126Q138.13756 275.95 137.35631 275.95ZM146.01256 282.45Q145.90318 282.23126 145.82506 281.66876Q144.95006 282.59064 143.71568 282.59064Q142.62193 282.59064 141.91881 281.98126Q141.23131 281.35626 141.23131 280.40314Q141.23131 279.2469 142.10631 278.60626Q142.98131 277.96564 144.57506 277.96564L145.80943 277.96564L145.80943 277.3875Q145.80943 276.71564 145.40318 276.325Q145.01256 275.9344 144.24693 275.9344Q143.55943 275.9344 143.10631 276.27814Q142.65318 276.6219 142.65318 277.10626L141.37193 277.10626Q141.37193 276.54376 141.76256 276.02814Q142.16881 275.5125 142.84068 275.21564Q143.51256 274.91876 144.30943 274.91876Q145.59068 274.91876 146.30943 275.5594Q147.04381 276.2 147.07506 277.3094L147.07506 280.71564Q147.07506 281.73126 147.32506 282.34064L147.32506 282.45L146.01256 282.45ZM143.90318 281.48126Q144.49693 281.48126 145.02818 281.1844Q145.57506 280.8719 145.80943 280.3719L145.80943 278.85626L144.80943 278.85626Q142.49693 278.85626 142.49693 280.21564Q142.49693 280.8094 142.88756 281.15314Q143.27818 281.48126 143.90318 281.48126ZM153.01256 276.1844Q152.73131 276.1375 152.38756 276.1375Q151.15318 276.1375 150.70006 277.2L150.70006 282.45L149.43443 282.45L149.43443 275.0594L150.66881 275.0594L150.68443 275.90314Q151.30943 274.91876 152.45006 274.91876Q152.82506 274.91876 153.01256 275.0125L153.01256 276.1844ZM157.40318 281.5594Q158.07506 281.5594 158.57506 281.15314Q159.09068 280.73126 159.15318 280.1219L160.34068 280.1219Q160.30943 280.7469 159.90318 281.325Q159.49693 281.90314 158.82506 282.2469Q158.15318 282.59064 157.40318 282.59064Q155.88756 282.59064 154.99693 281.59064Q154.10631 280.575 154.10631 278.825L154.10631 278.60626Q154.10631 277.52814 154.49693 276.6844Q154.90318 275.84064 155.63756 275.3875Q156.38756 274.91876 157.40318 274.91876Q158.63756 274.91876 159.46568 275.66876Q160.29381 276.40314 160.34068 277.59064L159.15318 277.59064Q159.09068 276.8719 158.60631 276.41876Q158.12193 275.95 157.40318 275.95Q156.43443 275.95 155.90318 276.65314Q155.37193 277.34064 155.37193 278.65314L155.37193 278.8875Q155.37193 280.16876 155.90318 280.8719Q156.43443 281.5594 157.40318 281.5594ZM162.70006 275.95Q163.54381 274.91876 164.88756 274.91876Q167.23131 274.91876 167.26256 277.5594L167.26256 282.45L165.99693 282.45L165.99693 277.5594Q165.98131 276.7625 165.62193 276.3875Q165.26256 275.9969 164.51256 275.9969Q163.88756 275.9969 163.41881 276.325Q162.96568 276.65314 162.70006 277.1844L162.70006 282.45L161.43443 282.45L161.43443 271.95L162.70006 271.95L162.70006 275.95ZM178.70006 278.84064Q178.70006 280.52814 177.91881 281.5594Q177.13756 282.59064 175.82506 282.59064Q174.43443 282.59064 173.66881 281.59064L173.60631 282.45L172.43443 282.45L172.43443 271.95L173.70006 271.95L173.70006 275.8719Q174.46568 274.91876 175.80943 274.91876Q177.16881 274.91876 177.93443 275.9344Q178.70006 276.95 178.70006 278.73126L178.70006 278.84064ZM177.43443 278.6844Q177.43443 277.40314 176.93443 276.7Q176.43443 275.9969 175.49693 275.9969Q174.24693 275.9969 173.70006 277.15314L173.70006 280.35626Q174.27818 281.5125 175.51256 281.5125Q176.41881 281.5125 176.91881 280.8094Q177.43443 280.10626 177.43443 278.6844ZM182.85631 280.59064L184.57506 275.0594L185.93443 275.0594L182.96568 283.59064Q182.27818 285.4344 180.76256 285.4344L180.52818 285.41876L180.05943 285.325L180.05943 284.3094L180.40318 284.325Q181.04381 284.325 181.40318 284.0594Q181.76256 283.8094 181.99693 283.1219L182.27818 282.3719L179.63756 275.0594L181.01256 275.0594L182.85631 280.59064Z" fill-rule="nonzero"/><path fill="#757575" d="M127.04381 299.45L125.73131 299.45L125.73131 289.4969L127.04381 289.4969L127.04381 299.45ZM130.63756 292.0594L130.66881 292.98126Q131.52818 291.91876 132.88756 291.91876Q135.23131 291.91876 135.26256 294.5594L135.26256 299.45L133.99693 299.45L133.99693 294.5594Q133.98131 293.7625 133.62193 293.3875Q133.26256 292.9969 132.51256 292.9969Q131.88756 292.9969 131.41881 293.325Q130.96568 293.65314 130.70006 294.1844L130.70006 299.45L129.43443 299.45L129.43443 292.0594L130.63756 292.0594ZM137.13756 295.6844Q137.13756 293.96564 137.93443 292.95Q138.73131 291.91876 140.05943 291.91876Q141.40318 291.91876 142.16881 292.8719L142.23131 292.0594L143.38756 292.0594L143.38756 299.27814Q143.38756 300.71564 142.52818 301.52814Q141.68443 302.35626 140.24693 302.35626Q139.45006 302.35626 138.68443 302.0125Q137.91881 301.6844 137.51256 301.09064L138.16881 300.325Q138.98131 301.325 140.15318 301.325Q141.07506 301.325 141.59068 300.8094Q142.12193 300.29376 142.12193 299.34064L142.12193 298.71564Q141.35631 299.59064 140.04381 299.59064Q138.74693 299.59064 137.93443 298.54376Q137.13756 297.4969 137.13756 295.6844ZM138.40318 295.84064Q138.40318 297.09064 138.91881 297.8094Q139.43443 298.5125 140.35631 298.5125Q141.55943 298.5125 142.12193 297.41876L142.12193 294.04376Q141.52818 292.9969 140.37193 292.9969Q139.45006 292.9969 138.91881 293.71564Q138.40318 294.41876 138.40318 295.84064ZM149.01256 293.1844Q148.73131 293.1375 148.38756 293.1375Q147.15318 293.1375 146.70006 294.2L146.70006 299.45L145.43443 299.45L145.43443 292.0594L146.66881 292.0594L146.68443 292.90314Q147.30943 291.91876 148.45006 291.91876Q148.82506 291.91876 149.01256 292.0125L149.01256 293.1844ZM153.51256 299.59064Q151.99693 299.59064 151.05943 298.60626Q150.12193 297.60626 150.12193 295.95L150.12193 295.73126Q150.12193 294.6219 150.54381 293.7625Q150.96568 292.8875 151.71568 292.40314Q152.46568 291.91876 153.35631 291.91876Q154.79381 291.91876 155.59068 292.8719Q156.38756 293.8094 156.38756 295.59064L156.38756 296.10626L151.38756 296.10626Q151.40318 297.2 152.01256 297.8875Q152.63756 298.5594 153.57506 298.5594Q154.24693 298.5594 154.70006 298.29376Q155.16881 298.0125 155.52818 297.5594L156.29381 298.15314Q155.37193 299.59064 153.51256 299.59064ZM153.35631 292.95Q152.59068 292.95 152.05943 293.5125Q151.54381 294.075 151.41881 295.075L155.12193 295.075L155.12193 294.98126Q155.07506 294.0125 154.60631 293.48126Q154.13756 292.95 153.35631 292.95ZM157.13756 295.6844Q157.13756 293.98126 157.93443 292.95Q158.74693 291.91876 160.04381 291.91876Q161.35631 291.91876 162.10631 292.8094L162.10631 288.95L163.37193 288.95L163.37193 299.45L162.21568 299.45L162.15318 298.65314Q161.38756 299.59064 160.04381 299.59064Q158.74693 299.59064 157.93443 298.54376Q157.13756 297.48126 157.13756 295.77814L157.13756 295.6844ZM158.40318 295.84064Q158.40318 297.09064 158.91881 297.8094Q159.43443 298.5125 160.35631 298.5125Q161.55943 298.5125 162.10631 297.4344L162.10631 294.02814Q161.54381 292.9969 160.37193 292.9969Q159.43443 292.9969 158.91881 293.71564Q158.40318 294.41876 158.40318 295.84064ZM166.80943 299.45L165.54381 299.45L165.54381 292.0594L166.80943 292.0594L166.80943 299.45ZM165.45006 290.09064Q165.45006 289.77814 165.63756 289.575Q165.82506 289.35626 166.18443 289.35626Q166.55943 289.35626 166.74693 289.575Q166.95006 289.77814 166.95006 290.09064Q166.95006 290.40314 166.74693 290.60626Q166.55943 290.8094 166.18443 290.8094Q165.82506 290.8094 165.63756 290.60626Q165.45006 290.40314 165.45006 290.09064ZM171.51256 299.59064Q169.99693 299.59064 169.05943 298.60626Q168.12193 297.60626 168.12193 295.95L168.12193 295.73126Q168.12193 294.6219 168.54381 293.7625Q168.96568 292.8875 169.71568 292.40314Q170.46568 291.91876 171.35631 291.91876Q172.79381 291.91876 173.59068 292.8719Q174.38756 293.8094 174.38756 295.59064L174.38756 296.10626L169.38756 296.10626Q169.40318 297.2 170.01256 297.8875Q170.63756 298.5594 171.57506 298.5594Q172.24693 298.5594 172.70006 298.29376Q173.16881 298.0125 173.52818 297.5594L174.29381 298.15314Q173.37193 299.59064 171.51256 299.59064ZM171.35631 292.95Q170.59068 292.95 170.05943 293.5125Q169.54381 294.075 169.41881 295.075L173.12193 295.075L173.12193 294.98126Q173.07506 294.0125 172.60631 293.48126Q172.13756 292.95 171.35631 292.95ZM176.63756 292.0594L176.66881 292.98126Q177.52818 291.91876 178.88756 291.91876Q181.23131 291.91876 181.26256 294.5594L181.26256 299.45L179.99693 299.45L179.99693 294.5594Q179.98131 293.7625 179.62193 293.3875Q179.26256 292.9969 178.51256 292.9969Q177.88756 292.9969 177.41881 293.325Q176.96568 293.65314 176.70006 294.1844L176.70006 299.45L175.43443 299.45L175.43443 292.0594L176.63756 292.0594ZM185.15318 290.2625L185.15318 292.0594L186.52818 292.0594L186.52818 293.02814L185.15318 293.02814L185.15318 297.6219Q185.15318 298.0594 185.34068 298.29376Q185.52818 298.5125 185.96568 298.5125Q186.18443 298.5125 186.57506 298.41876L186.57506 299.45Q186.07506 299.59064 185.60631 299.59064Q184.74693 299.59064 184.30943 299.075Q183.88756 298.5594 183.88756 297.6219L183.88756 293.02814L182.54381 293.02814L182.54381 292.0594L183.88756 292.0594L183.88756 290.2625L185.15318 290.2625Z" fill-rule="nonzero"/><path fill="#757575" d="M229.80316 278.41876L227.45941 278.41876L227.45941 282.45L226.14691 282.45L226.14691 272.4969L229.42816 272.4969Q231.11566 272.4969 232.02191 273.2625Q232.92816 274.02814 232.92816 275.4969Q232.92816 276.41876 232.42816 277.10626Q231.92816 277.79376 231.02191 278.1375L233.36566 282.3719L233.36566 282.45L231.95941 282.45L229.80316 278.41876ZM227.45941 277.35626L229.47504 277.35626Q230.45941 277.35626 231.03754 276.85626Q231.61566 276.34064 231.61566 275.4969Q231.61566 274.575 231.05316 274.09064Q230.50629 273.59064 229.47504 273.575L227.45941 273.575L227.45941 277.35626ZM238.02191 282.59064Q236.50629 282.59064 235.56879 281.60626Q234.63129 280.60626 234.63129 278.95L234.63129 278.73126Q234.63129 277.6219 235.05316 276.7625Q235.47504 275.8875 236.22504 275.40314Q236.97504 274.91876 237.86566 274.91876Q239.30316 274.91876 240.10004 275.8719Q240.89691 276.8094 240.89691 278.59064L240.89691 279.10626L235.89691 279.10626Q235.91254 280.2 236.52191 280.8875Q237.14691 281.5594 238.08441 281.5594Q238.75629 281.5594 239.20941 281.29376Q239.67816 281.0125 240.03754 280.5594L240.80316 281.15314Q239.88129 282.59064 238.02191 282.59064ZM237.86566 275.95Q237.10004 275.95 236.56879 276.5125Q236.05316 277.075 235.92816 278.075L239.63129 278.075L239.63129 277.98126Q239.58441 277.0125 239.11566 276.48126Q238.64691 275.95 237.86566 275.95ZM244.38129 280.73126L246.22504 275.0594L247.50629 275.0594L244.86566 282.45L243.89691 282.45L241.20941 275.0594L242.50629 275.0594L244.38129 280.73126ZM250.31879 282.45L249.05316 282.45L249.05316 275.0594L250.31879 275.0594L250.31879 282.45ZM248.95941 273.09064Q248.95941 272.77814 249.14691 272.575Q249.33441 272.35626 249.69379 272.35626Q250.06879 272.35626 250.25629 272.575Q250.45941 272.77814 250.45941 273.09064Q250.45941 273.40314 250.25629 273.60626Q250.06879 273.8094 249.69379 273.8094Q249.33441 273.8094 249.14691 273.60626Q248.95941 273.40314 248.95941 273.09064ZM255.02191 282.59064Q253.50629 282.59064 252.56879 281.60626Q251.63129 280.60626 251.63129 278.95L251.63129 278.73126Q251.63129 277.6219 252.05316 276.7625Q252.47504 275.8875 253.22504 275.40314Q253.97504 274.91876 254.86566 274.91876Q256.30316 274.91876 257.10004 275.8719Q257.8969 276.8094 257.8969 278.59064L257.8969 279.10626L252.89691 279.10626Q252.91254 280.2 253.52191 280.8875Q254.14691 281.5594 255.08441 281.5594Q255.75629 281.5594 256.2094 281.29376Q256.67816 281.0125 257.03754 280.5594L257.80316 281.15314Q256.8813 282.59064 255.02191 282.59064ZM254.86566 275.95Q254.10004 275.95 253.56879 276.5125Q253.05316 277.075 252.92816 278.075L256.6313 278.075L256.6313 277.98126Q256.5844 277.0125 256.11566 276.48126Q255.64691 275.95 254.86566 275.95ZM265.49066 280.7L266.91254 275.0594L268.17816 275.0594L266.03754 282.45L265.0063 282.45L263.2094 276.84064L261.4594 282.45L260.42816 282.45L258.28754 275.0594L259.53754 275.0594L261.0063 280.59064L262.72504 275.0594L263.74066 275.0594L265.49066 280.7Z" fill-rule="nonzero"/><path fill="#757575" d="M227.80316 295.41876L225.45941 295.41876L225.45941 299.45L224.14691 299.45L224.14691 289.4969L227.42816 289.4969Q229.11566 289.4969 230.02191 290.2625Q230.92816 291.02814 230.92816 292.4969Q230.92816 293.41876 230.42816 294.10626Q229.92816 294.79376 229.02191 295.1375L231.36566 299.3719L231.36566 299.45L229.95941 299.45L227.80316 295.41876ZM225.45941 294.35626L227.47504 294.35626Q228.45941 294.35626 229.03754 293.85626Q229.61566 293.34064 229.61566 292.4969Q229.61566 291.575 229.05316 291.09064Q228.50629 290.59064 227.47504 290.575L225.45941 290.575L225.45941 294.35626ZM236.02191 299.59064Q234.50629 299.59064 233.56879 298.60626Q232.63129 297.60626 232.63129 295.95L232.63129 295.73126Q232.63129 294.6219 233.05316 293.7625Q233.47504 292.8875 234.22504 292.40314Q234.97504 291.91876 235.86566 291.91876Q237.30316 291.91876 238.10004 292.8719Q238.89691 293.8094 238.89691 295.59064L238.89691 296.10626L233.89691 296.10626Q233.91254 297.2 234.52191 297.8875Q235.14691 298.5594 236.08441 298.5594Q236.75629 298.5594 237.20941 298.29376Q237.67816 298.0125 238.03754 297.5594L238.80316 298.15314Q237.88129 299.59064 236.02191 299.59064ZM235.86566 292.95Q235.10004 292.95 234.56879 293.5125Q234.05316 294.075 233.92816 295.075L237.63129 295.075L237.63129 294.98126Q237.58441 294.0125 237.11566 293.48126Q236.64691 292.95 235.86566 292.95ZM242.91254 298.5594Q243.58441 298.5594 244.08441 298.15314Q244.60004 297.73126 244.66254 297.1219L245.85004 297.1219Q245.81879 297.7469 245.41254 298.325Q245.00629 298.90314 244.33441 299.2469Q243.66254 299.59064 242.91254 299.59064Q241.39691 299.59064 240.50629 298.59064Q239.61566 297.575 239.61566 295.825L239.61566 295.60626Q239.61566 294.52814 240.00629 293.6844Q240.41254 292.84064 241.14691 292.3875Q241.89691 291.91876 242.91254 291.91876Q244.14691 291.91876 244.97504 292.66876Q245.80316 293.40314 245.85004 294.59064L244.66254 294.59064Q244.60004 293.8719 244.11566 293.41876Q243.63129 292.95 242.91254 292.95Q241.94379 292.95 241.41254 293.65314Q240.88129 294.34064 240.88129 295.65314L240.88129 295.8875Q240.88129 297.16876 241.41254 297.8719Q241.94379 298.5594 242.91254 298.5594ZM248.31879 299.45L247.05316 299.45L247.05316 292.0594L248.31879 292.0594L248.31879 299.45ZM246.95941 290.09064Q246.95941 289.77814 247.14691 289.575Q247.33441 289.35626 247.69379 289.35626Q248.06879 289.35626 248.25629 289.575Q248.45941 289.77814 248.45941 290.09064Q248.45941 290.40314 248.25629 290.60626Q248.06879 290.8094 247.69379 290.8094Q247.33441 290.8094 247.14691 290.60626Q246.95941 290.40314 246.95941 290.09064ZM256.1938 295.84064Q256.1938 297.52814 255.41254 298.5594Q254.64691 299.59064 253.33441 299.59064Q251.99066 299.59064 251.20941 298.73126L251.20941 302.29376L249.94379 302.29376L249.94379 292.0594L251.10004 292.0594L251.16254 292.8719Q251.94379 291.91876 253.31879 291.91876Q254.64691 291.91876 255.41254 292.91876Q256.1938 293.91876 256.1938 295.71564L256.1938 295.84064ZM254.92816 295.6844Q254.92816 294.4344 254.39691 293.71564Q253.86566 292.9969 252.92816 292.9969Q251.78754 292.9969 251.20941 294.0125L251.20941 297.54376Q251.78754 298.5594 252.94379 298.5594Q253.86566 298.5594 254.39691 297.84064Q254.92816 297.10626 254.92816 295.6844ZM261.0219 299.59064Q259.5063 299.59064 258.5688 298.60626Q257.6313 297.60626 257.6313 295.95L257.6313 295.73126Q257.6313 294.6219 258.05316 293.7625Q258.47504 292.8875 259.22504 292.40314Q259.97504 291.91876 260.86566 291.91876Q262.30316 291.91876 263.10004 292.8719Q263.8969 293.8094 263.8969 295.59064L263.8969 296.10626L258.8969 296.10626Q258.91254 297.2 259.5219 297.8875Q260.1469 298.5594 261.0844 298.5594Q261.7563 298.5594 262.2094 298.29376Q262.67816 298.0125 263.03754 297.5594L263.80316 298.15314Q262.8813 299.59064 261.0219 299.59064ZM260.86566 292.95Q260.10004 292.95 259.5688 293.5125Q259.05316 294.075 258.92816 295.075L262.6313 295.075L262.6313 294.98126Q262.5844 294.0125 262.11566 293.48126Q261.6469 292.95 260.86566 292.95ZM269.2563 297.48126Q269.2563 296.98126 268.86566 296.7Q268.47504 296.40314 267.5219 296.2Q266.5688 295.9969 265.99066 295.71564Q265.42816 295.41876 265.16254 295.02814Q264.8969 294.6375 264.8969 294.09064Q264.8969 293.16876 265.66254 292.54376Q266.42816 291.91876 267.6313 291.91876Q268.8813 291.91876 269.66254 292.575Q270.4438 293.21564 270.4438 294.23126L269.17816 294.23126Q269.17816 293.7 268.74066 293.325Q268.30316 292.95 267.6313 292.95Q266.9438 292.95 266.55316 293.2625Q266.16254 293.5594 266.16254 294.04376Q266.16254 294.4969 266.5219 294.73126Q266.8813 294.96564 267.8188 295.1844Q268.7719 295.3875 269.36566 295.6844Q269.9594 295.98126 270.24066 296.40314Q270.5219 296.8094 270.5219 297.40314Q270.5219 298.3875 269.72504 298.9969Q268.92816 299.59064 267.66254 299.59064Q266.78754 299.59064 266.10004 299.27814Q265.41254 298.95 265.0219 298.3875Q264.6469 297.825 264.6469 297.16876L265.91254 297.16876Q265.9438 297.8094 266.41254 298.1844Q266.8969 298.5594 267.66254 298.5594Q268.3813 298.5594 268.8188 298.2625Q269.2563 297.96564 269.2563 297.48126Z" fill-rule="nonzero"/><path fill="#757575" d="M325.98438 279.29376Q325.79688 280.8719 324.8125 281.73126Q323.82812 282.59064 322.20312 282.59064Q320.4375 282.59064 319.375 281.325Q318.3125 280.0594 318.3125 277.9344L318.3125 276.98126Q318.3125 275.59064 318.8125 274.54376Q319.3125 273.48126 320.21875 272.91876Q321.125 272.35626 322.3125 272.35626Q323.90625 272.35626 324.85938 273.2469Q325.8125 274.1375 325.98438 275.7L324.65625 275.7Q324.48438 274.5125 323.90625 273.98126Q323.34375 273.4344 322.3125 273.4344Q321.0625 273.4344 320.34375 274.3719Q319.64062 275.29376 319.64062 277.0125L319.64062 277.98126Q319.64062 279.60626 320.3125 280.5594Q320.98438 281.5125 322.20312 281.5125Q323.29688 281.5125 323.875 281.02814Q324.46875 280.52814 324.65625 279.29376L325.98438 279.29376ZM331.03125 276.1844Q330.75 276.1375 330.40625 276.1375Q329.17188 276.1375 328.71875 277.2L328.71875 282.45L327.45312 282.45L327.45312 275.0594L328.6875 275.0594L328.70312 275.90314Q329.32812 274.91876 330.46875 274.91876Q330.84375 274.91876 331.03125 275.0125L331.03125 276.1844ZM335.53125 282.59064Q334.01562 282.59064 333.07812 281.60626Q332.14062 280.60626 332.14062 278.95L332.14062 278.73126Q332.14062 277.6219 332.5625 276.7625Q332.98438 275.8875 333.73438 275.40314Q334.48438 274.91876 335.375 274.91876Q336.8125 274.91876 337.60938 275.8719Q338.40625 276.8094 338.40625 278.59064L338.40625 279.10626L333.40625 279.10626Q333.42188 280.2 334.03125 280.8875Q334.65625 281.5594 335.59375 281.5594Q336.26562 281.5594 336.71875 281.29376Q337.1875 281.0125 337.54688 280.5594L338.3125 281.15314Q337.39062 282.59064 335.53125 282.59064ZM335.375 275.95Q334.60938 275.95 334.07812 276.5125Q333.5625 277.075 333.4375 278.075L337.14062 278.075L337.14062 277.98126Q337.09375 277.0125 336.625 276.48126Q336.15625 275.95 335.375 275.95ZM344.03125 282.45Q343.92188 282.23126 343.84375 281.66876Q342.96875 282.59064 341.73438 282.59064Q340.64062 282.59064 339.9375 281.98126Q339.25 281.35626 339.25 280.40314Q339.25 279.2469 340.125 278.60626Q341.0 277.96564 342.59375 277.96564L343.82812 277.96564L343.82812 277.3875Q343.82812 276.71564 343.42188 276.325Q343.03125 275.9344 342.26562 275.9344Q341.57812 275.9344 341.125 276.27814Q340.67188 276.6219 340.67188 277.10626L339.39062 277.10626Q339.39062 276.54376 339.78125 276.02814Q340.1875 275.5125 340.85938 275.21564Q341.53125 274.91876 342.32812 274.91876Q343.60938 274.91876 344.32812 275.5594Q345.0625 276.2 345.09375 277.3094L345.09375 280.71564Q345.09375 281.73126 345.34375 282.34064L345.34375 282.45L344.03125 282.45ZM341.92188 281.48126Q342.51562 281.48126 343.04688 281.1844Q343.59375 280.8719 343.82812 280.3719L343.82812 278.85626L342.82812 278.85626Q340.51562 278.85626 340.51562 280.21564Q340.51562 280.8094 340.90625 281.15314Q341.29688 281.48126 341.92188 281.48126ZM349.17188 273.2625L349.17188 275.0594L350.54688 275.0594L350.54688 276.02814L349.17188 276.02814L349.17188 280.6219Q349.17188 281.0594 349.35938 281.29376Q349.54688 281.5125 349.98438 281.5125Q350.20312 281.5125 350.59375 281.41876L350.59375 282.45Q350.09375 282.59064 349.625 282.59064Q348.76562 282.59064 348.32812 282.075Q347.90625 281.5594 347.90625 280.6219L347.90625 276.02814L346.5625 276.02814L346.5625 275.0594L347.90625 275.0594L347.90625 273.2625L349.17188 273.2625ZM355.53125 282.59064Q354.01562 282.59064 353.07812 281.60626Q352.14062 280.60626 352.14062 278.95L352.14062 278.73126Q352.14062 277.6219 352.5625 276.7625Q352.98438 275.8875 353.73438 275.40314Q354.48438 274.91876 355.375 274.91876Q356.8125 274.91876 357.60938 275.8719Q358.40625 276.8094 358.40625 278.59064L358.40625 279.10626L353.40625 279.10626Q353.42188 280.2 354.03125 280.8875Q354.65625 281.5594 355.59375 281.5594Q356.26562 281.5594 356.71875 281.29376Q357.1875 281.0125 357.54688 280.5594L358.3125 281.15314Q357.39062 282.59064 355.53125 282.59064ZM355.375 275.95Q354.60938 275.95 354.07812 276.5125Q353.5625 277.075 353.4375 278.075L357.14062 278.075L357.14062 277.98126Q357.09375 277.0125 356.625 276.48126Q356.15625 275.95 355.375 275.95Z" fill-rule="nonzero"/><path fill="#757575" d="M305.5 298.1375Q305.0 298.8719 304.09375 299.23126Q303.1875 299.59064 301.98438 299.59064Q300.76562 299.59064 299.8125 299.02814Q298.875 298.45 298.35938 297.40314Q297.84375 296.34064 297.82812 294.95L297.82812 294.09064Q297.82812 291.84064 298.875 290.60626Q299.9375 289.35626 301.82812 289.35626Q303.39062 289.35626 304.34375 290.15314Q305.29688 290.95 305.5 292.41876L304.1875 292.41876Q303.82812 290.4344 301.84375 290.4344Q300.51562 290.4344 299.82812 291.3719Q299.15625 292.29376 299.15625 294.04376L299.15625 294.85626Q299.15625 296.54376 299.92188 297.52814Q300.6875 298.5125 301.98438 298.5125Q302.73438 298.5125 303.28125 298.35626Q303.84375 298.1844 304.20312 297.79376L304.20312 295.5594L301.89062 295.5594L301.89062 294.4969L305.5 294.4969L305.5 298.1375ZM311.53125 293.1844Q311.25 293.1375 310.90625 293.1375Q309.67188 293.1375 309.21875 294.2L309.21875 299.45L307.95312 299.45L307.95312 292.0594L309.1875 292.0594L309.20312 292.90314Q309.82812 291.91876 310.96875 291.91876Q311.34375 291.91876 311.53125 292.0125L311.53125 293.1844ZM312.625 295.6844Q312.625 294.59064 313.04688 293.73126Q313.48438 292.85626 314.23438 292.3875Q315.0 291.91876 315.98438 291.91876Q317.48438 291.91876 318.42188 292.96564Q319.35938 294.0125 319.35938 295.7469L319.35938 295.84064Q319.35938 296.91876 318.9375 297.77814Q318.53125 298.6219 317.75 299.10626Q316.98438 299.59064 316.0 299.59064Q314.48438 299.59064 313.54688 298.54376Q312.625 297.4969 312.625 295.77814L312.625 295.6844ZM313.89062 295.84064Q313.89062 297.0594 314.45312 297.8094Q315.03125 298.5594 316.0 298.5594Q316.95312 298.5594 317.51562 297.8094Q318.09375 297.04376 318.09375 295.6844Q318.09375 294.46564 317.51562 293.71564Q316.9375 292.95 315.98438 292.95Q315.04688 292.95 314.46875 293.7Q313.89062 294.45 313.89062 295.84064ZM323.92188 298.5594Q324.59375 298.5594 325.09375 298.15314Q325.60938 297.73126 325.67188 297.1219L326.85938 297.1219Q326.82812 297.7469 326.42188 298.325Q326.01562 298.90314 325.34375 299.2469Q324.67188 299.59064 323.92188 299.59064Q322.40625 299.59064 321.51562 298.59064Q320.625 297.575 320.625 295.825L320.625 295.60626Q320.625 294.52814 321.01562 293.6844Q321.42188 292.84064 322.15625 292.3875Q322.90625 291.91876 323.92188 291.91876Q325.15625 291.91876 325.98438 292.66876Q326.8125 293.40314 326.85938 294.59064L325.67188 294.59064Q325.60938 293.8719 325.125 293.41876Q324.64062 292.95 323.92188 292.95Q322.95312 292.95 322.42188 293.65314Q321.89062 294.34064 321.89062 295.65314L321.89062 295.8875Q321.89062 297.16876 322.42188 297.8719Q322.95312 298.5594 323.92188 298.5594ZM331.03125 299.59064Q329.51562 299.59064 328.57812 298.60626Q327.64062 297.60626 327.64062 295.95L327.64062 295.73126Q327.64062 294.6219 328.0625 293.7625Q328.48438 292.8875 329.23438 292.40314Q329.98438 291.91876 330.875 291.91876Q332.3125 291.91876 333.10938 292.8719Q333.90625 293.8094 333.90625 295.59064L333.90625 296.10626L328.90625 296.10626Q328.92188 297.2 329.53125 297.8875Q330.15625 298.5594 331.09375 298.5594Q331.76562 298.5594 332.21875 298.29376Q332.6875 298.0125 333.04688 297.5594L333.8125 298.15314Q332.89062 299.59064 331.03125 299.59064ZM330.875 292.95Q330.10938 292.95 329.57812 293.5125Q329.0625 294.075 328.9375 295.075L332.64062 295.075L332.64062 294.98126Q332.59375 294.0125 332.125 293.48126Q331.65625 292.95 330.875 292.95ZM338.53125 293.1844Q338.25 293.1375 337.90625 293.1375Q336.67188 293.1375 336.21875 294.2L336.21875 299.45L334.95312 299.45L334.95312 292.0594L336.1875 292.0594L336.20312 292.90314Q336.82812 291.91876 337.96875 291.91876Q338.34375 291.91876 338.53125 292.0125L338.53125 293.1844ZM342.375 297.59064L344.09375 292.0594L345.45312 292.0594L342.48438 300.59064Q341.79688 302.4344 340.28125 302.4344L340.04688 302.41876L339.57812 302.325L339.57812 301.3094L339.92188 301.325Q340.5625 301.325 340.92188 301.0594Q341.28125 300.8094 341.51562 300.1219L341.79688 299.3719L339.15625 292.0594L340.53125 292.0594L342.375 297.59064ZM351.46875 298.3719L356.1875 298.3719L356.1875 299.45L350.15625 299.45L350.15625 289.4969L351.46875 289.4969L351.46875 298.3719ZM359.32812 299.45L358.0625 299.45L358.0625 292.0594L359.32812 292.0594L359.32812 299.45ZM357.96875 290.09064Q357.96875 289.77814 358.15625 289.575Q358.34375 289.35626 358.70312 289.35626Q359.07812 289.35626 359.26562 289.575Q359.46875 289.77814 359.46875 290.09064Q359.46875 290.40314 359.26562 290.60626Q359.07812 290.8094 358.70312 290.8094Q358.34375 290.8094 358.15625 290.60626Q357.96875 290.40314 357.96875 290.09064ZM365.26562 297.48126Q365.26562 296.98126 364.875 296.7Q364.48438 296.40314 363.53125 296.2Q362.57812 295.9969 362.0 295.71564Q361.4375 295.41876 361.17188 295.02814Q360.90625 294.6375 360.90625 294.09064Q360.90625 293.16876 361.67188 292.54376Q362.4375 291.91876 363.64062 291.91876Q364.89062 291.91876 365.67188 292.575Q366.45312 293.21564 366.45312 294.23126L365.1875 294.23126Q365.1875 293.7 364.75 293.325Q364.3125 292.95 363.64062 292.95Q362.95312 292.95 362.5625 293.2625Q362.17188 293.5594 362.17188 294.04376Q362.17188 294.4969 362.53125 294.73126Q362.89062 294.96564 363.82812 295.1844Q364.78125 295.3875 365.375 295.6844Q365.96875 295.98126 366.25 296.40314Q366.53125 296.8094 366.53125 297.40314Q366.53125 298.3875 365.73438 298.9969Q364.9375 299.59064 363.67188 299.59064Q362.79688 299.59064 362.10938 299.27814Q361.42188 298.95 361.03125 298.3875Q360.65625 297.825 360.65625 297.16876L361.92188 297.16876Q361.95312 297.8094 362.42188 298.1844Q362.90625 298.5594 363.67188 298.5594Q364.39062 298.5594 364.82812 298.2625Q365.26562 297.96564 365.26562 297.48126ZM369.67188 290.2625L369.67188 292.0594L371.04688 292.0594L371.04688 293.02814L369.67188 293.02814L369.67188 297.6219Q369.67188 298.0594 369.85938 298.29376Q370.04688 298.5125 370.48438 298.5125Q370.70312 298.5125 371.09375 298.41876L371.09375 299.45Q370.59375 299.59064 370.125 299.59064Q369.26562 299.59064 368.82812 299.075Q368.40625 298.5594 368.40625 297.6219L368.40625 293.02814L367.0625 293.02814L367.0625 292.0594L368.40625 292.0594L368.40625 290.2625L369.67188 290.2625ZM377.26562 297.48126Q377.26562 296.98126 376.875 296.7Q376.48438 296.40314 375.53125 296.2Q374.57812 295.9969 374.0 295.71564Q373.4375 295.41876 373.17188 295.02814Q372.90625 294.6375 372.90625 294.09064Q372.90625 293.16876 373.67188 292.54376Q374.4375 291.91876 375.64062 291.91876Q376.89062 291.91876 377.67188 292.575Q378.45312 293.21564 378.45312 294.23126L377.1875 294.23126Q377.1875 293.7 376.75 293.325Q376.3125 292.95 375.64062 292.95Q374.95312 292.95 374.5625 293.2625Q374.17188 293.5594 374.17188 294.04376Q374.17188 294.4969 374.53125 294.73126Q374.89062 294.96564 375.82812 295.1844Q376.78125 295.3875 377.375 295.6844Q377.96875 295.98126 378.25 296.40314Q378.53125 296.8094 378.53125 297.40314Q378.53125 298.3875 377.73438 298.9969Q376.9375 299.59064 375.67188 299.59064Q374.79688 299.59064 374.10938 299.27814Q373.42188 298.95 373.03125 298.3875Q372.65625 297.825 372.65625 297.16876L373.92188 297.16876Q373.95312 297.8094 374.42188 298.1844Q374.90625 298.5594 375.67188 298.5594Q376.39062 298.5594 376.82812 298.2625Q377.26562 297.96564 377.26562 297.48126Z" fill-rule="nonzero"/><path fill="#757575" d="M394.1031 278.0125Q392.4156 277.52814 391.63434 276.825Q390.8687 276.10626 390.8687 275.075Q390.8687 273.90314 391.8062 273.1375Q392.7437 272.35626 394.25934 272.35626Q395.27496 272.35626 396.07184 272.7625Q396.88434 273.15314 397.32184 273.85626Q397.77496 274.54376 397.77496 275.3719L396.44684 275.3719Q396.44684 274.46564 395.8687 273.95Q395.3062 273.4344 394.25934 273.4344Q393.2906 273.4344 392.7437 273.8719Q392.19684 274.29376 392.19684 275.0594Q392.19684 275.66876 392.71246 276.09064Q393.2281 276.4969 394.46246 276.85626Q395.71246 277.2 396.4156 277.6219Q397.1187 278.04376 397.44684 278.60626Q397.7906 279.16876 397.7906 279.91876Q397.7906 281.1375 396.83746 281.8719Q395.89996 282.59064 394.32184 282.59064Q393.2906 282.59064 392.39996 282.2Q391.52496 281.79376 391.0406 281.1219Q390.5562 280.4344 390.5562 279.5594L391.8687 279.5594Q391.8687 280.46564 392.5406 280.9969Q393.21246 281.5125 394.32184 281.5125Q395.3687 281.5125 395.9156 281.09064Q396.46246 280.66876 396.46246 279.9344Q396.46246 279.2 395.94684 278.8094Q395.44684 278.40314 394.1031 278.0125ZM398.63434 278.6844Q398.63434 277.59064 399.0562 276.73126Q399.4937 275.85626 400.2437 275.3875Q401.00934 274.91876 401.9937 274.91876Q403.4937 274.91876 404.4312 275.96564Q405.3687 277.0125 405.3687 278.7469L405.3687 278.84064Q405.3687 279.91876 404.94684 280.77814Q404.5406 281.6219 403.75934 282.10626Q402.9937 282.59064 402.00934 282.59064Q400.4937 282.59064 399.5562 281.54376Q398.63434 280.4969 398.63434 278.77814L398.63434 278.6844ZM399.89996 278.84064Q399.89996 280.0594 400.46246 280.8094Q401.0406 281.5594 402.00934 281.5594Q402.96246 281.5594 403.52496 280.8094Q404.1031 280.04376 404.1031 278.6844Q404.1031 277.46564 403.52496 276.71564Q402.94684 275.95 401.9937 275.95Q401.0562 275.95 400.4781 276.7Q399.89996 277.45 399.89996 278.84064ZM409.9312 281.5594Q410.6031 281.5594 411.1031 281.15314Q411.6187 280.73126 411.6812 280.1219L412.8687 280.1219Q412.83746 280.7469 412.4312 281.325Q412.02496 281.90314 411.3531 282.2469Q410.6812 282.59064 409.9312 282.59064Q408.4156 282.59064 407.52496 281.59064Q406.63434 280.575 406.63434 278.825L406.63434 278.60626Q406.63434 277.52814 407.02496 276.6844Q407.4312 275.84064 408.1656 275.3875Q408.9156 274.91876 409.9312 274.91876Q411.1656 274.91876 411.9937 275.66876Q412.82184 276.40314 412.8687 277.59064L411.6812 277.59064Q411.6187 276.8719 411.13434 276.41876Q410.64996 275.95 409.9312 275.95Q408.96246 275.95 408.4312 276.65314Q407.89996 277.34064 407.89996 278.65314L407.89996 278.8875Q407.89996 280.16876 408.4312 280.8719Q408.96246 281.5594 409.9312 281.5594ZM415.33746 282.45L414.07184 282.45L414.07184 275.0594L415.33746 275.0594L415.33746 282.45ZM413.9781 273.09064Q413.9781 272.77814 414.1656 272.575Q414.3531 272.35626 414.71246 272.35626Q415.08746 272.35626 415.27496 272.575Q415.4781 272.77814 415.4781 273.09064Q415.4781 273.40314 415.27496 273.60626Q415.08746 273.8094 414.71246 273.8094Q414.3531 273.8094 414.1656 273.60626Q413.9781 273.40314 413.9781 273.09064ZM421.5406 282.45Q421.4312 282.23126 421.3531 281.66876Q420.4781 282.59064 419.2437 282.59064Q418.14996 282.59064 417.44684 281.98126Q416.75934 281.35626 416.75934 280.40314Q416.75934 279.2469 417.63434 278.60626Q418.50934 277.96564 420.1031 277.96564L421.33746 277.96564L421.33746 277.3875Q421.33746 276.71564 420.9312 276.325Q420.5406 275.9344 419.77496 275.9344Q419.08746 275.9344 418.63434 276.27814Q418.1812 276.6219 418.1812 277.10626L416.89996 277.10626Q416.89996 276.54376 417.2906 276.02814Q417.69684 275.5125 418.3687 275.21564Q419.0406 274.91876 419.83746 274.91876Q421.1187 274.91876 421.83746 275.5594Q422.57184 276.2 422.6031 277.3094L422.6031 280.71564Q422.6031 281.73126 422.8531 282.34064L422.8531 282.45L421.5406 282.45ZM419.4312 281.48126Q420.02496 281.48126 420.5562 281.1844Q421.1031 280.8719 421.33746 280.3719L421.33746 278.85626L420.33746 278.85626Q418.02496 278.85626 418.02496 280.21564Q418.02496 280.8094 418.4156 281.15314Q418.8062 281.48126 419.4312 281.48126ZM426.33746 282.45L425.07184 282.45L425.07184 271.95L426.33746 271.95L426.33746 282.45ZM432.8531 272.4969L436.1187 280.6219L439.3687 272.4969L441.07184 272.4969L441.07184 282.45L439.75934 282.45L439.75934 278.575L439.88434 274.3875L436.6187 282.45L435.6031 282.45L432.3531 274.40314L432.4781 278.575L432.4781 282.45L431.1656 282.45L431.1656 272.4969L432.8531 272.4969ZM446.0406 282.59064Q444.52496 282.59064 443.58746 281.60626Q442.64996 280.60626 442.64996 278.95L442.64996 278.73126Q442.64996 277.6219 443.07184 276.7625Q443.4937 275.8875 444.2437 275.40314Q444.9937 274.91876 445.88434 274.91876Q447.32184 274.91876 448.1187 275.8719Q448.9156 276.8094 448.9156 278.59064L448.9156 279.10626L443.9156 279.10626Q443.9312 280.2 444.5406 280.8875Q445.1656 281.5594 446.1031 281.5594Q446.77496 281.5594 447.2281 281.29376Q447.69684 281.0125 448.0562 280.5594L448.82184 281.15314Q447.89996 282.59064 446.0406 282.59064ZM445.88434 275.95Q445.1187 275.95 444.58746 276.5125Q444.07184 277.075 443.94684 278.075L447.64996 278.075L447.64996 277.98126Q447.6031 277.0125 447.13434 276.48126Q446.6656 275.95 445.88434 275.95ZM449.6656 278.6844Q449.6656 276.98126 450.46246 275.95Q451.27496 274.91876 452.57184 274.91876Q453.88434 274.91876 454.63434 275.8094L454.63434 271.95L455.89996 271.95L455.89996 282.45L454.7437 282.45L454.6812 281.65314Q453.9156 282.59064 452.57184 282.59064Q451.27496 282.59064 450.46246 281.54376Q449.6656 280.48126 449.6656 278.77814L449.6656 278.6844ZM450.9312 278.84064Q450.9312 280.09064 451.44684 280.8094Q451.96246 281.5125 452.88434 281.5125Q454.08746 281.5125 454.63434 280.4344L454.63434 277.02814Q454.07184 275.9969 452.89996 275.9969Q451.96246 275.9969 451.44684 276.71564Q450.9312 277.41876 450.9312 278.84064ZM459.33746 282.45L458.07184 282.45L458.07184 275.0594L459.33746 275.0594L459.33746 282.45ZM457.9781 273.09064Q457.9781 272.77814 458.1656 272.575Q458.3531 272.35626 458.71246 272.35626Q459.08746 272.35626 459.27496 272.575Q459.4781 272.77814 459.4781 273.09064Q459.4781 273.40314 459.27496 273.60626Q459.08746 273.8094 458.71246 273.8094Q458.3531 273.8094 458.1656 273.60626Q457.9781 273.40314 457.9781 273.09064ZM465.5406 282.45Q465.4312 282.23126 465.3531 281.66876Q464.4781 282.59064 463.2437 282.59064Q462.14996 282.59064 461.44684 281.98126Q460.75934 281.35626 460.75934 280.40314Q460.75934 279.2469 461.63434 278.60626Q462.50934 277.96564 464.1031 277.96564L465.33746 277.96564L465.33746 277.3875Q465.33746 276.71564 464.9312 276.325Q464.5406 275.9344 463.77496 275.9344Q463.08746 275.9344 462.63434 276.27814Q462.1812 276.6219 462.1812 277.10626L460.89996 277.10626Q460.89996 276.54376 461.2906 276.02814Q461.69684 275.5125 462.3687 275.21564Q463.0406 274.91876 463.83746 274.91876Q465.1187 274.91876 465.83746 275.5594Q466.57184 276.2 466.6031 277.3094L466.6031 280.71564Q466.6031 281.73126 466.8531 282.34064L466.8531 282.45L465.5406 282.45ZM463.4312 281.48126Q464.02496 281.48126 464.5562 281.1844Q465.1031 280.8719 465.33746 280.3719L465.33746 278.85626L464.33746 278.85626Q462.02496 278.85626 462.02496 280.21564Q462.02496 280.8094 462.4156 281.15314Q462.8062 281.48126 463.4312 281.48126Z" fill-rule="nonzero"/><path fill="#757575" d="M483.61243 278.0125Q481.92493 277.52814 481.14368 276.825Q480.37805 276.10626 480.37805 275.075Q480.37805 273.90314 481.31555 273.1375Q482.25305 272.35626 483.76868 272.35626Q484.7843 272.35626 485.58118 272.7625Q486.39368 273.15314 486.83118 273.85626Q487.2843 274.54376 487.2843 275.3719L485.95618 275.3719Q485.95618 274.46564 485.37805 273.95Q484.81555 273.4344 483.76868 273.4344Q482.79993 273.4344 482.25305 273.8719Q481.70618 274.29376 481.70618 275.0594Q481.70618 275.66876 482.2218 276.09064Q482.73743 276.4969 483.9718 276.85626Q485.2218 277.2 485.92493 277.6219Q486.62805 278.04376 486.95618 278.60626Q487.29993 279.16876 487.29993 279.91876Q487.29993 281.1375 486.3468 281.8719Q485.4093 282.59064 483.83118 282.59064Q482.79993 282.59064 481.9093 282.2Q481.0343 281.79376 480.54993 281.1219Q480.06555 280.4344 480.06555 279.5594L481.37805 279.5594Q481.37805 280.46564 482.04993 280.9969Q482.7218 281.5125 483.83118 281.5125Q484.87805 281.5125 485.42493 281.09064Q485.9718 280.66876 485.9718 279.9344Q485.9718 279.2 485.45618 278.8094Q484.95618 278.40314 483.61243 278.0125ZM493.04993 282.45Q492.94055 282.23126 492.86243 281.66876Q491.98743 282.59064 490.75305 282.59064Q489.6593 282.59064 488.95618 281.98126Q488.26868 281.35626 488.26868 280.40314Q488.26868 279.2469 489.14368 278.60626Q490.01868 277.96564 491.61243 277.96564L492.8468 277.96564L492.8468 277.3875Q492.8468 276.71564 492.44055 276.325Q492.04993 275.9344 491.2843 275.9344Q490.5968 275.9344 490.14368 276.27814Q489.69055 276.6219 489.69055 277.10626L488.4093 277.10626Q488.4093 276.54376 488.79993 276.02814Q489.20618 275.5125 489.87805 275.21564Q490.54993 274.91876 491.3468 274.91876Q492.62805 274.91876 493.3468 275.5594Q494.08118 276.2 494.11243 277.3094L494.11243 280.71564Q494.11243 281.73126 494.36243 282.34064L494.36243 282.45L493.04993 282.45ZM490.94055 281.48126Q491.5343 281.48126 492.06555 281.1844Q492.61243 280.8719 492.8468 280.3719L492.8468 278.85626L491.8468 278.85626Q489.5343 278.85626 489.5343 280.21564Q489.5343 280.8094 489.92493 281.15314Q490.31555 281.48126 490.94055 281.48126ZM498.9093 280.73126L500.75305 275.0594L502.0343 275.0594L499.39368 282.45L498.42493 282.45L495.73743 275.0594L497.0343 275.0594L498.9093 280.73126ZM506.54993 282.59064Q505.0343 282.59064 504.0968 281.60626Q503.1593 280.60626 503.1593 278.95L503.1593 278.73126Q503.1593 277.6219 503.58118 276.7625Q504.00305 275.8875 504.75305 275.40314Q505.50305 274.91876 506.39368 274.91876Q507.83118 274.91876 508.62805 275.8719Q509.42493 276.8094 509.42493 278.59064L509.42493 279.10626L504.42493 279.10626Q504.44055 280.2 505.04993 280.8875Q505.67493 281.5594 506.61243 281.5594Q507.2843 281.5594 507.73743 281.29376Q508.20618 281.0125 508.56555 280.5594L509.33118 281.15314Q508.4093 282.59064 506.54993 282.59064ZM506.39368 275.95Q505.62805 275.95 505.0968 276.5125Q504.58118 277.075 504.45618 278.075L508.1593 278.075L508.1593 277.98126Q508.11243 277.0125 507.64368 276.48126Q507.17493 275.95 506.39368 275.95ZM517.3312 278.41876L514.9874 278.41876L514.9874 282.45L513.6749 282.45L513.6749 272.4969L516.9562 272.4969Q518.6437 272.4969 519.5499 273.2625Q520.4562 274.02814 520.4562 275.4969Q520.4562 276.41876 519.9562 277.10626Q519.4562 277.79376 518.5499 278.1375L520.8937 282.3719L520.8937 282.45L519.4874 282.45L517.3312 278.41876ZM514.9874 277.35626L517.00305 277.35626Q517.9874 277.35626 518.56555 276.85626Q519.1437 276.34064 519.1437 275.4969Q519.1437 274.575 518.5812 274.09064Q518.0343 273.59064 517.00305 273.575L514.9874 273.575L514.9874 277.35626ZM525.5499 282.59064Q524.0343 282.59064 523.0968 281.60626Q522.1593 280.60626 522.1593 278.95L522.1593 278.73126Q522.1593 277.6219 522.5812 276.7625Q523.00305 275.8875 523.75305 275.40314Q524.50305 274.91876 525.3937 274.91876Q526.8312 274.91876 527.62805 275.8719Q528.4249 276.8094 528.4249 278.59064L528.4249 279.10626L523.4249 279.10626Q523.44055 280.2 524.0499 280.8875Q524.6749 281.5594 525.6124 281.5594Q526.2843 281.5594 526.7374 281.29376Q527.2062 281.0125 527.56555 280.5594L528.3312 281.15314Q527.4093 282.59064 525.5499 282.59064ZM525.3937 275.95Q524.62805 275.95 524.0968 276.5125Q523.5812 277.075 523.4562 278.075L527.1593 278.075L527.1593 277.98126Q527.1124 277.0125 526.6437 276.48126Q526.1749 275.95 525.3937 275.95ZM532.44055 281.5594Q533.1124 281.5594 533.6124 281.15314Q534.12805 280.73126 534.19055 280.1219L535.37805 280.1219Q535.3468 280.7469 534.94055 281.325Q534.5343 281.90314 533.8624 282.2469Q533.19055 282.59064 532.44055 282.59064Q530.9249 282.59064 530.0343 281.59064Q529.1437 280.575 529.1437 278.825L529.1437 278.60626Q529.1437 277.52814 529.5343 276.6844Q529.94055 275.84064 530.6749 275.3875Q531.4249 274.91876 532.44055 274.91876Q533.6749 274.91876 534.50305 275.66876Q535.3312 276.40314 535.37805 277.59064L534.19055 277.59064Q534.12805 276.8719 533.6437 276.41876Q533.1593 275.95 532.44055 275.95Q531.4718 275.95 530.94055 276.65314Q530.4093 277.34064 530.4093 278.65314L530.4093 278.8875Q530.4093 280.16876 530.94055 280.8719Q531.4718 281.5594 532.44055 281.5594ZM537.8468 282.45L536.5812 282.45L536.5812 275.0594L537.8468 275.0594L537.8468 282.45ZM536.4874 273.09064Q536.4874 272.77814 536.6749 272.575Q536.8624 272.35626 537.2218 272.35626Q537.5968 272.35626 537.7843 272.575Q537.9874 272.77814 537.9874 273.09064Q537.9874 273.40314 537.7843 273.60626Q537.5968 273.8094 537.2218 273.8094Q536.8624 273.8094 536.6749 273.60626Q536.4874 273.40314 536.4874 273.09064ZM545.7218 278.84064Q545.7218 280.52814 544.94055 281.5594Q544.1749 282.59064 542.8624 282.59064Q541.5187 282.59064 540.7374 281.73126L540.7374 285.29376L539.4718 285.29376L539.4718 275.0594L540.62805 275.0594L540.69055 275.8719Q541.4718 274.91876 542.8468 274.91876Q544.1749 274.91876 544.94055 275.91876Q545.7218 276.91876 545.7218 278.71564L545.7218 278.84064ZM544.4562 278.6844Q544.4562 277.4344 543.9249 276.71564Q543.3937 275.9969 542.4562 275.9969Q541.31555 275.9969 540.7374 277.0125L540.7374 280.54376Q541.31555 281.5594 542.4718 281.5594Q543.3937 281.5594 543.9249 280.84064Q544.4562 280.10626 544.4562 278.6844ZM550.5499 282.59064Q549.0343 282.59064 548.0968 281.60626Q547.1593 280.60626 547.1593 278.95L547.1593 278.73126Q547.1593 277.6219 547.5812 276.7625Q548.00305 275.8875 548.75305 275.40314Q549.50305 274.91876 550.3937 274.91876Q551.8312 274.91876 552.62805 275.8719Q553.4249 276.8094 553.4249 278.59064L553.4249 279.10626L548.4249 279.10626Q548.44055 280.2 549.0499 280.8875Q549.6749 281.5594 550.6124 281.5594Q551.2843 281.5594 551.7374 281.29376Q552.2062 281.0125 552.56555 280.5594L553.3312 281.15314Q552.4093 282.59064 550.5499 282.59064ZM550.3937 275.95Q549.62805 275.95 549.0968 276.5125Q548.5812 277.075 548.4562 278.075L552.1593 278.075L552.1593 277.98126Q552.1124 277.0125 551.6437 276.48126Q551.1749 275.95 550.3937 275.95ZM558.7843 280.48126Q558.7843 279.98126 558.3937 279.7Q558.00305 279.40314 557.0499 279.2Q556.0968 278.9969 555.5187 278.71564Q554.9562 278.41876 554.69055 278.02814Q554.4249 277.6375 554.4249 277.09064Q554.4249 276.16876 555.19055 275.54376Q555.9562 274.91876 557.1593 274.91876Q558.4093 274.91876 559.19055 275.575Q559.9718 276.21564 559.9718 277.23126L558.7062 277.23126Q558.7062 276.7 558.2687 276.325Q557.8312 275.95 557.1593 275.95Q556.4718 275.95 556.0812 276.2625Q555.69055 276.5594 555.69055 277.04376Q555.69055 277.4969 556.0499 277.73126Q556.4093 277.96564 557.3468 278.1844Q558.2999 278.3875 558.8937 278.6844Q559.4874 278.98126 559.7687 279.40314Q560.0499 279.8094 560.0499 280.40314Q560.0499 281.3875 559.25305 281.9969Q558.4562 282.59064 557.19055 282.59064Q556.31555 282.59064 555.62805 282.27814Q554.94055 281.95 554.5499 281.3875Q554.1749 280.825 554.1749 280.16876L555.44055 280.16876Q555.4718 280.8094 555.94055 281.1844Q556.4249 281.5594 557.19055 281.5594Q557.9093 281.5594 558.3468 281.2625Q558.7843 280.96564 558.7843 280.48126Z" fill-rule="nonzero"/><path fill="#757575" d="M32.55 24.4875L32.55 36.08125Q32.534374 38.503124 31.01875 40.05Q29.51875 41.58125 26.940624 41.76875L26.346874 41.784374Q23.55 41.784374 21.878124 40.26875Q20.221874 38.753124 20.190624 36.1125L20.190624 24.4875L22.425 24.4875L22.425 36.034374Q22.425 37.89375 23.440624 38.925Q24.45625 39.940624 26.346874 39.940624Q28.253124 39.940624 29.26875 38.925Q30.284374 37.909374 30.284374 36.05L30.284374 24.4875L32.55 24.4875ZM43.58125 38.190624Q43.58125 37.3 42.909374 36.815624Q42.253124 36.33125 40.596874 35.9875Q38.95625 35.628124 37.9875 35.14375Q37.01875 34.64375 36.55 33.971874Q36.096874 33.284374 36.096874 32.346874Q36.096874 30.784374 37.409374 29.70625Q38.7375 28.628124 40.784374 28.628124Q42.940624 28.628124 44.284374 29.753124Q45.628124 30.8625 45.628124 32.596874L43.440624 32.596874Q43.440624 31.70625 42.690624 31.065624Q41.940624 30.409374 40.784374 30.409374Q39.596874 30.409374 38.925 30.925Q38.26875 31.440624 38.26875 32.284374Q38.26875 33.065624 38.878124 33.471874Q39.503124 33.8625 41.128124 34.221874Q42.753124 34.58125 43.753124 35.096874Q44.76875 35.596874 45.253124 36.315624Q45.7375 37.01875 45.7375 38.034374Q45.7375 39.7375 44.378124 40.76875Q43.01875 41.784374 40.8625 41.784374Q39.33125 41.784374 38.159374 41.253124Q36.9875 40.70625 36.315624 39.7375Q35.659374 38.76875 35.659374 37.64375L37.83125 37.64375Q37.89375 38.7375 38.70625 39.378124Q39.51875 40.01875 40.8625 40.01875Q42.08125 40.01875 42.83125 39.51875Q43.58125 39.01875 43.58125 38.190624ZM56.01875 41.55Q55.83125 41.175 55.721874 40.20625Q54.20625 41.784374 52.1125 41.784374Q50.2375 41.784374 49.034374 40.721874Q47.83125 39.659374 47.83125 38.034374Q47.83125 36.05 49.33125 34.95625Q50.846874 33.8625 53.565624 33.8625L55.675 33.8625L55.675 32.8625Q55.675 31.721874 54.9875 31.05Q54.315624 30.378124 53.003124 30.378124Q51.83125 30.378124 51.05 30.971874Q50.26875 31.55 50.26875 32.378124L48.08125 32.378124Q48.08125 31.440624 48.753124 30.55Q49.440624 29.659374 50.58125 29.14375Q51.7375 28.628124 53.128124 28.628124Q55.315624 28.628124 56.55 29.7375Q57.8 30.83125 57.846874 32.753124L57.846874 38.58125Q57.846874 40.33125 58.3 41.3625L58.3 41.55L56.01875 41.55ZM52.425 39.89375Q53.440624 39.89375 54.346874 39.378124Q55.26875 38.846874 55.675 38.003124L55.675 35.39375L53.9875 35.39375Q50.003124 35.39375 50.003124 37.721874Q50.003124 38.753124 50.675 39.33125Q51.3625 39.89375 52.425 39.89375ZM60.675 35.096874Q60.675 32.14375 62.05 30.39375Q63.425 28.628124 65.675 28.628124Q68.00313 28.628124 69.3 30.26875L69.40938 28.8625L71.39375 28.8625L71.39375 41.2375Q71.39375 43.70625 69.925 45.128124Q68.47188 46.55 66.00313 46.55Q64.64375 46.55 63.33125 45.95625Q62.01875 45.378124 61.315624 44.346874L62.440624 43.05Q63.846874 44.76875 65.8625 44.76875Q67.44063 44.76875 68.31563 43.878124Q69.20625 42.9875 69.20625 41.378124L69.20625 40.284374Q67.90938 41.784374 65.65938 41.784374Q63.425 41.784374 62.05 39.9875Q60.675 38.190624 60.675 35.096874ZM62.8625 35.346874Q62.8625 37.4875 63.7375 38.721874Q64.6125 39.940624 66.19063 39.940624Q68.25313 39.940624 69.20625 38.08125L69.20625 32.284374Q68.20625 30.471874 66.22188 30.471874Q64.64375 30.471874 63.753124 31.70625Q62.8625 32.940624 62.8625 35.346874ZM79.45625 41.784374Q76.87813 41.784374 75.25313 40.096874Q73.64375 38.39375 73.64375 35.565624L73.64375 35.159374Q73.64375 33.26875 74.3625 31.8Q75.08125 30.315624 76.37813 29.471874Q77.675 28.628124 79.19063 28.628124Q81.65938 28.628124 83.01875 30.26875Q84.39375 31.89375 84.39375 34.925L84.39375 35.83125L75.81563 35.83125Q75.8625 37.70625 76.90938 38.8625Q77.95625 40.01875 79.56563 40.01875Q80.72188 40.01875 81.51875 39.55Q82.31563 39.08125 82.90938 38.3L84.2375 39.33125Q82.64375 41.784374 79.45625 41.784374ZM79.19063 30.409374Q77.87813 30.409374 76.9875 31.378124Q76.09688 32.33125 75.87813 34.05L82.2375 34.05L82.2375 33.878124Q82.14375 32.2375 81.34688 31.33125Q80.55 30.409374 79.19063 30.409374ZM92.6125 35.096874Q92.6125 33.221874 93.34688 31.7375Q94.08125 30.253124 95.37813 29.440624Q96.69063 28.628124 98.37813 28.628124Q100.95625 28.628124 102.55 30.425Q104.15938 32.221874 104.15938 35.190624L104.15938 35.346874Q104.15938 37.20625 103.44063 38.675Q102.7375 40.14375 101.425 40.971874Q100.1125 41.784374 98.39375 41.784374Q95.81563 41.784374 94.20625 39.9875Q92.6125 38.190624 92.6125 35.2375L92.6125 35.096874ZM94.8 35.346874Q94.8 37.45625 95.76875 38.7375Q96.75313 40.01875 98.39375 40.01875Q100.05 40.01875 101.01875 38.721874Q101.9875 37.425 101.9875 35.096874Q101.9875 33.003124 101.00313 31.70625Q100.01875 30.409374 98.37813 30.409374Q96.76875 30.409374 95.78438 31.690624Q94.8 32.971874 94.8 35.346874ZM108.25313 41.55L108.25313 30.55L106.25313 30.55L106.25313 28.8625L108.25313 28.8625L108.25313 27.565624Q108.25313 25.534374 109.34688 24.425Q110.44063 23.3 112.425 23.3Q113.175 23.3 113.925 23.503124L113.8 25.253124Q113.25313 25.159374 112.62813 25.159374Q111.58125 25.159374 111.00313 25.76875Q110.425 26.378124 110.425 27.534374L110.425 28.8625L113.12813 28.8625L113.12813 30.55L110.425 30.55L110.425 41.55L108.25313 41.55ZM127.78438 34.64375L123.78438 34.64375L123.78438 41.55L121.51875 41.55L121.51875 24.4875L127.175 24.4875Q130.05 24.4875 131.59688 25.8Q133.15938 27.1125 133.15938 29.6125Q133.15938 31.20625 132.3 32.39375Q131.44063 33.58125 129.89375 34.159374L133.90938 41.409374L133.90938 41.55L131.4875 41.55L127.78438 34.64375ZM123.78438 32.8L127.2375 32.8Q128.90938 32.8 129.89375 31.940624Q130.89375 31.065624 130.89375 29.6125Q130.89375 28.034374 129.94063 27.190624Q129.00313 26.346874 127.22188 26.33125L123.78438 26.33125L123.78438 32.8ZM141.45625 41.784374Q138.87813 41.784374 137.25313 40.096874Q135.64375 38.39375 135.64375 35.565624L135.64375 35.159374Q135.64375 33.26875 136.3625 31.8Q137.08125 30.315624 138.37813 29.471874Q139.675 28.628124 141.19063 28.628124Q143.65938 28.628124 145.01875 30.26875Q146.39375 31.89375 146.39375 34.925L146.39375 35.83125L137.81563 35.83125Q137.8625 37.70625 138.90938 38.8625Q139.95625 40.01875 141.56563 40.01875Q142.72188 40.01875 143.51875 39.55Q144.31563 39.08125 144.90938 38.3L146.2375 39.33125Q144.64375 41.784374 141.45625 41.784374ZM141.19063 30.409374Q139.87813 30.409374 138.9875 31.378124Q138.09688 32.33125 137.87813 34.05L144.2375 34.05L144.2375 33.878124Q144.14375 32.2375 143.34688 31.33125Q142.55 30.409374 141.19063 30.409374ZM154.28438 40.01875Q155.44063 40.01875 156.3 39.315624Q157.175 38.6125 157.26875 37.55L159.31563 37.55Q159.25313 38.64375 158.56563 39.628124Q157.87813 40.6125 156.72188 41.20625Q155.56563 41.784374 154.28438 41.784374Q151.69063 41.784374 150.15938 40.065624Q148.62813 38.33125 148.62813 35.33125L148.62813 34.95625Q148.62813 33.1125 149.3 31.675Q149.9875 30.221874 151.25313 29.425Q152.53438 28.628124 154.26875 28.628124Q156.39375 28.628124 157.8 29.909374Q159.22188 31.190624 159.31563 33.221874L157.26875 33.221874Q157.175 32.003124 156.33125 31.20625Q155.50313 30.409374 154.26875 30.409374Q152.6125 30.409374 151.70625 31.6125Q150.8 32.8 150.8 35.05L150.8 35.45625Q150.8 37.64375 151.69063 38.83125Q152.59688 40.01875 154.28438 40.01875ZM164.55 41.55L162.37813 41.55L162.37813 28.8625L164.55 28.8625L164.55 41.55ZM162.20625 25.503124Q162.20625 24.971874 162.51875 24.6125Q162.84688 24.253124 163.47188 24.253124Q164.1125 24.253124 164.44063 24.6125Q164.76875 24.971874 164.76875 25.503124Q164.76875 26.034374 164.44063 26.39375Q164.1125 26.7375 163.47188 26.7375Q162.84688 26.7375 162.51875 26.39375Q162.20625 26.034374 162.20625 25.503124ZM178.90938 35.346874Q178.90938 38.2375 177.58125 40.01875Q176.25313 41.784374 173.9875 41.784374Q171.69063 41.784374 170.3625 40.315624L170.3625 46.425L168.19063 46.425L168.19063 28.8625L170.175 28.8625L170.28438 30.26875Q171.59688 28.628124 173.95625 28.628124Q176.2375 28.628124 177.56563 30.3625Q178.90938 32.08125 178.90938 35.14375L178.90938 35.346874ZM176.7375 35.096874Q176.7375 32.95625 175.81563 31.721874Q174.90938 30.471874 173.31563 30.471874Q171.34688 30.471874 170.3625 32.221874L170.3625 38.284374Q171.33125 40.01875 173.33125 40.01875Q174.89375 40.01875 175.81563 38.784374Q176.7375 37.534374 176.7375 35.096874ZM186.45625 41.784374Q183.87813 41.784374 182.25313 40.096874Q180.64375 38.39375 180.64375 35.565624L180.64375 35.159374Q180.64375 33.26875 181.3625 31.8Q182.08125 30.315624 183.37813 29.471874Q184.675 28.628124 186.19063 28.628124Q188.65938 28.628124 190.01875 30.26875Q191.39375 31.89375 191.39375 34.925L191.39375 35.83125L182.81563 35.83125Q182.8625 37.70625 183.90938 38.8625Q184.95625 40.01875 186.56563 40.01875Q187.72188 40.01875 188.51875 39.55Q189.31563 39.08125 189.90938 38.3L191.2375 39.33125Q189.64375 41.784374 186.45625 41.784374ZM186.19063 30.409374Q184.87813 30.409374 183.9875 31.378124Q183.09688 32.33125 182.87813 34.05L189.2375 34.05L189.2375 33.878124Q189.14375 32.2375 188.34688 31.33125Q187.55 30.409374 186.19063 30.409374ZM205.56563 33.940624Q202.65938 33.1125 201.34688 31.909374Q200.03438 30.690624 200.03438 28.909374Q200.03438 26.89375 201.64375 25.58125Q203.25313 24.253124 205.83125 24.253124Q207.58125 24.253124 208.95625 24.940624Q210.34688 25.6125 211.09688 26.815624Q211.84688 28.003124 211.84688 29.425L209.59688 29.425Q209.59688 27.878124 208.6125 26.9875Q207.62813 26.096874 205.83125 26.096874Q204.15938 26.096874 203.22188 26.83125Q202.3 27.565624 202.3 28.8625Q202.3 29.909374 203.175 30.628124Q204.06563 31.346874 206.19063 31.95625Q208.33125 32.55 209.51875 33.26875Q210.72188 33.9875 211.3 34.95625Q211.89375 35.909374 211.89375 37.20625Q211.89375 39.284374 210.26875 40.534374Q208.65938 41.784374 205.94063 41.784374Q204.19063 41.784374 202.65938 41.1125Q201.14375 40.440624 200.31563 39.26875Q199.4875 38.096874 199.4875 36.596874L201.75313 36.596874Q201.75313 38.14375 202.89375 39.05Q204.03438 39.940624 205.94063 39.940624Q207.72188 39.940624 208.675 39.221874Q209.62813 38.4875 209.62813 37.2375Q209.62813 35.9875 208.7375 35.3Q207.8625 34.6125 205.56563 33.940624ZM216.55 41.55L214.37813 41.55L214.37813 28.8625L216.55 28.8625L216.55 41.55ZM214.20625 25.503124Q214.20625 24.971874 214.51875 24.6125Q214.84688 24.253124 215.47188 24.253124Q216.1125 24.253124 216.44063 24.6125Q216.76875 24.971874 216.76875 25.503124Q216.76875 26.034374 216.44063 26.39375Q216.1125 26.7375 215.47188 26.7375Q214.84688 26.7375 214.51875 26.39375Q214.20625 26.034374 214.20625 25.503124ZM223.12813 25.8L223.12813 28.8625L225.50313 28.8625L225.50313 30.55L223.12813 30.55L223.12813 38.409374Q223.12813 39.175 223.44063 39.55Q223.76875 39.925 224.53438 39.925Q224.90938 39.925 225.56563 39.784374L225.56563 41.55Q224.70625 41.784374 223.89375 41.784374Q222.44063 41.784374 221.70625 40.909374Q220.97188 40.01875 220.97188 38.409374L220.97188 30.55L218.65938 30.55L218.65938 28.8625L220.97188 28.8625L220.97188 25.8L223.12813 25.8ZM233.45625 41.784374Q230.87813 41.784374 229.25313 40.096874Q227.64375 38.39375 227.64375 35.565624L227.64375 35.159374Q227.64375 33.26875 228.3625 31.8Q229.08125 30.315624 230.37813 29.471874Q231.675 28.628124 233.19063 28.628124Q235.65938 28.628124 237.01875 30.26875Q238.39375 31.89375 238.39375 34.925L238.39375 35.83125L229.81563 35.83125Q229.8625 37.70625 230.90938 38.8625Q231.95625 40.01875 233.56563 40.01875Q234.72188 40.01875 235.51875 39.55Q236.31563 39.08125 236.90938 38.3L238.2375 39.33125Q236.64375 41.784374 233.45625 41.784374ZM233.19063 30.409374Q231.87813 30.409374 230.9875 31.378124Q230.09688 32.33125 229.87813 34.05L236.2375 34.05L236.2375 33.878124Q236.14375 32.2375 235.34688 31.33125Q234.55 30.409374 233.19063 30.409374ZM256.9406 34.01875L249.78438 34.01875L249.78438 41.55L247.53438 41.55L247.53438 24.4875L258.09686 24.4875L258.09686 26.33125L249.78438 26.33125L249.78438 32.175L256.9406 32.175L256.9406 34.01875ZM265.45624 41.784374Q262.8781 41.784374 261.2531 40.096874Q259.64374 38.39375 259.64374 35.565624L259.64374 35.159374Q259.64374 33.26875 260.3625 31.8Q261.08124 30.315624 262.3781 29.471874Q263.675 28.628124 265.1906 28.628124Q267.65936 28.628124 269.01874 30.26875Q270.39374 31.89375 270.39374 34.925L270.39374 35.83125L261.8156 35.83125Q261.8625 37.70625 262.90936 38.8625Q263.95624 40.01875 265.5656 40.01875Q266.72186 40.01875 267.51874 39.55Q268.3156 39.08125 268.90936 38.3L270.2375 39.33125Q268.64374 41.784374 265.45624 41.784374ZM265.1906 30.409374Q263.8781 30.409374 262.9875 31.378124Q262.09686 32.33125 261.8781 34.05L268.2375 34.05L268.2375 33.878124Q268.14374 32.2375 267.34686 31.33125Q266.55 30.409374 265.1906 30.409374ZM281.01874 41.55Q280.83124 41.175 280.72186 40.20625Q279.20624 41.784374 277.1125 41.784374Q275.2375 41.784374 274.03436 40.721874Q272.83124 39.659374 272.83124 38.034374Q272.83124 36.05 274.33124 34.95625Q275.84686 33.8625 278.5656 33.8625L280.675 33.8625L280.675 32.8625Q280.675 31.721874 279.9875 31.05Q279.3156 30.378124 278.0031 30.378124Q276.83124 30.378124 276.05 30.971874Q275.26874 31.55 275.26874 32.378124L273.08124 32.378124Q273.08124 31.440624 273.7531 30.55Q274.4406 29.659374 275.58124 29.14375Q276.7375 28.628124 278.1281 28.628124Q280.3156 28.628124 281.55 29.7375Q282.8 30.83125 282.84686 32.753124L282.84686 38.58125Q282.84686 40.33125 283.3 41.3625L283.3 41.55L281.01874 41.55ZM277.425 39.89375Q278.4406 39.89375 279.34686 39.378124Q280.26874 38.846874 280.675 38.003124L280.675 35.39375L278.9875 35.39375Q275.0031 35.39375 275.0031 37.721874Q275.0031 38.753124 275.675 39.33125Q276.3625 39.89375 277.425 39.89375ZM289.1281 25.8L289.1281 28.8625L291.5031 28.8625L291.5031 30.55L289.1281 30.55L289.1281 38.409374Q289.1281 39.175 289.4406 39.55Q289.76874 39.925 290.53436 39.925Q290.90936 39.925 291.5656 39.784374L291.5656 41.55Q290.70624 41.784374 289.89374 41.784374Q288.4406 41.784374 287.70624 40.909374Q286.97186 40.01875 286.97186 38.409374L286.97186 30.55L284.65936 30.55L284.65936 28.8625L286.97186 28.8625L286.97186 25.8L289.1281 25.8ZM302.01874 40.3Q300.7531 41.784374 298.3 41.784374Q296.28436 41.784374 295.22186 40.6125Q294.15936 39.425 294.14374 37.1125L294.14374 28.8625L296.3156 28.8625L296.3156 37.065624Q296.3156 39.940624 298.65936 39.940624Q301.14374 39.940624 301.95624 38.096874L301.95624 28.8625L304.1281 28.8625L304.1281 41.55L302.0656 41.55L302.01874 40.3ZM313.3156 30.815624Q312.83124 30.7375 312.2531 30.7375Q310.1281 30.7375 309.3625 32.55L309.3625 41.55L307.1906 41.55L307.1906 28.8625L309.3 28.8625L309.33124 30.33125Q310.40936 28.628124 312.3625 28.628124Q312.9875 28.628124 313.3156 28.8L313.3156 30.815624ZM320.45624 41.784374Q317.8781 41.784374 316.2531 40.096874Q314.64374 38.39375 314.64374 35.565624L314.64374 35.159374Q314.64374 33.26875 315.3625 31.8Q316.08124 30.315624 317.3781 29.471874Q318.675 28.628124 320.1906 28.628124Q322.65936 28.628124 324.01874 30.26875Q325.39374 31.89375 325.39374 34.925L325.39374 35.83125L316.8156 35.83125Q316.8625 37.70625 317.90936 38.8625Q318.95624 40.01875 320.5656 40.01875Q321.72186 40.01875 322.51874 39.55Q323.3156 39.08125 323.90936 38.3L325.2375 39.33125Q323.64374 41.784374 320.45624 41.784374ZM320.1906 30.409374Q318.8781 30.409374 317.9875 31.378124Q317.09686 32.33125 316.8781 34.05L323.2375 34.05L323.2375 33.878124Q323.14374 32.2375 322.34686 31.33125Q321.55 30.409374 320.1906 30.409374ZM335.58124 38.190624Q335.58124 37.3 334.90936 36.815624Q334.2531 36.33125 332.59686 35.9875Q330.95624 35.628124 329.9875 35.14375Q329.01874 34.64375 328.55 33.971874Q328.09686 33.284374 328.09686 32.346874Q328.09686 30.784374 329.40936 29.70625Q330.7375 28.628124 332.78436 28.628124Q334.9406 28.628124 336.28436 29.753124Q337.6281 30.8625 337.6281 32.596874L335.4406 32.596874Q335.4406 31.70625 334.6906 31.065624Q333.9406 30.409374 332.78436 30.409374Q331.59686 30.409374 330.925 30.925Q330.26874 31.440624 330.26874 32.284374Q330.26874 33.065624 330.8781 33.471874Q331.5031 33.8625 333.1281 34.221874Q334.7531 34.58125 335.7531 35.096874Q336.76874 35.596874 337.2531 36.315624Q337.7375 37.01875 337.7375 38.034374Q337.7375 39.7375 336.3781 40.76875Q335.01874 41.784374 332.8625 41.784374Q331.33124 41.784374 330.15936 41.253124Q328.9875 40.70625 328.3156 39.7375Q327.65936 38.76875 327.65936 37.64375L329.83124 37.64375Q329.89374 38.7375 330.70624 39.378124Q331.51874 40.01875 332.8625 40.01875Q334.08124 40.01875 334.83124 39.51875Q335.58124 39.01875 335.58124 38.190624Z" fill-rule="nonzero"/></svg>