<svg width="374" height="57" viewBox="0 0 374 57" fill="none" xmlns="http://www.w3.org/2000/svg">
<path d="M37.961 53.45C38.115 52.2693 38.808 51.679 40.04 51.679H41.58C42.812 51.679 43.428 52.3207 43.428 53.604L43.274 61.15C43.274 62.1767 42.812 62.921 41.888 63.383C39.8347 64.2557 37.6787 64.923 35.42 65.385C33.2127 65.8983 30.877 66.155 28.413 66.155C24.563 66.155 21.0467 65.5647 17.864 64.384C14.7327 63.152 12.0377 61.4323 9.779 59.225C7.57167 56.9663 5.852 54.2713 4.62 51.14C3.388 47.9573 2.772 44.441 2.772 40.591C2.772 36.741 3.41367 33.2503 4.697 30.119C5.98033 26.9363 7.75133 24.2413 10.01 22.034C12.32 19.7753 15.0663 18.03 18.249 16.798C21.4317 15.566 24.9223 14.95 28.721 14.95C30.723 14.95 32.7507 15.1553 34.804 15.566C36.9087 15.9767 39.039 16.721 41.195 17.799C42.119 18.3123 42.581 19.0823 42.581 20.109L42.735 27.655C42.735 28.9383 42.119 29.58 40.887 29.58H39.347C38.115 29.58 37.422 28.9897 37.268 27.809L36.267 21.957C36.1643 21.2383 35.8307 20.6993 35.266 20.34C34.7527 19.9293 34.1367 19.6213 33.418 19.416C32.6993 19.1593 31.955 19.0053 31.185 18.954C30.415 18.9027 29.7477 18.877 29.183 18.877C26.2057 18.877 23.6647 19.5187 21.56 20.802C19.4553 22.0853 17.7357 23.7793 16.401 25.884C15.0663 27.9373 14.091 30.273 13.475 32.891C12.859 35.4577 12.551 38.0243 12.551 40.591C12.551 43.1577 12.8333 45.75 13.398 48.368C14.014 50.9347 14.9637 53.2447 16.247 55.298C17.5303 57.3513 19.1987 59.0197 21.252 60.303C23.3567 61.5863 25.9233 62.228 28.952 62.228C31.0567 62.228 33.187 61.8687 35.343 61.15C36.3183 60.842 36.883 60.149 37.037 59.071L37.961 53.45ZM66.9563 28.502C69.6256 28.502 72.064 29.0153 74.2713 30.042C76.4786 31.0173 78.3523 32.3777 79.8923 34.123C81.4836 35.817 82.69 37.819 83.5113 40.129C84.384 42.3877 84.8203 44.826 84.8203 47.444C84.8203 50.1133 84.384 52.603 83.5113 54.913C82.69 57.1717 81.5093 59.148 79.9693 60.842C78.4293 62.4847 76.5556 63.7937 74.3483 64.769C72.141 65.693 69.677 66.155 66.9563 66.155C64.2356 66.155 61.7716 65.693 59.5643 64.769C57.357 63.7937 55.4833 62.4847 53.9433 60.842C52.4033 59.148 51.197 57.1717 50.3243 54.913C49.503 52.603 49.0923 50.1133 49.0923 47.444C49.0923 44.826 49.503 42.362 50.3243 40.052C51.197 37.742 52.4033 35.74 53.9433 34.046C55.5346 32.352 57.4083 31.0173 59.5643 30.042C61.7716 29.0153 64.2356 28.502 66.9563 28.502ZM66.9563 31.967C61.053 31.967 58.1013 37.1003 58.1013 47.367C58.1013 57.531 61.053 62.613 66.9563 62.613C72.8596 62.613 75.8113 57.531 75.8113 47.367C75.8113 37.1003 72.8596 31.967 66.9563 31.967ZM126.411 59.456C126.462 60.534 127.052 61.2013 128.182 61.458L129.491 61.689C130.62 61.9457 131.185 62.5617 131.185 63.537C131.185 64.5123 130.543 65 129.26 65H115.092C113.808 65 113.167 64.5123 113.167 63.537C113.167 62.5617 113.731 61.9713 114.861 61.766L116.401 61.458C117.53 61.2013 118.12 60.534 118.172 59.456V42.67C118.172 39.59 117.787 37.4083 117.017 36.125C116.298 34.7903 114.963 34.123 113.013 34.123C111.421 34.123 109.881 34.508 108.393 35.278C106.955 36.048 105.415 37.203 103.773 38.743V59.456C103.824 60.534 104.414 61.2013 105.544 61.458L106.93 61.766C108.059 61.9713 108.624 62.5617 108.624 63.537C108.624 64.5123 107.982 65 106.699 65H92.3765C91.0932 65 90.4515 64.5123 90.4515 63.537C90.4515 62.613 91.0419 62.0227 92.2225 61.766L93.8395 61.458C94.9689 61.2013 95.5592 60.534 95.6105 59.456V45.519C95.6105 44.4923 95.6105 43.5683 95.6105 42.747C95.6105 41.9257 95.5849 41.207 95.5335 40.591C95.4822 40.1803 95.4565 39.7953 95.4565 39.436C95.4565 39.0767 95.4565 38.6917 95.4565 38.281C95.3539 37.1003 94.7379 36.433 93.6085 36.279L91.7605 36.048C90.5799 35.894 89.9895 35.355 89.9895 34.431C89.9895 33.5583 90.5029 32.9167 91.5295 32.506L100.462 29.041C100.924 28.8357 101.386 28.733 101.848 28.733C102.156 28.733 102.361 28.7843 102.464 28.887C102.874 29.1437 103.105 29.734 103.157 30.658L103.542 35.201C105.492 32.9423 107.469 31.274 109.471 30.196C111.473 29.0667 113.731 28.502 116.247 28.502C119.635 28.502 122.176 29.5543 123.87 31.659C125.564 33.7123 126.411 37.1003 126.411 41.823V59.456ZM164.437 56.761C165.001 55.991 165.54 55.606 166.054 55.606C166.208 55.606 166.387 55.6573 166.593 55.76C167.363 56.222 167.517 56.992 167.055 58.07C165.874 60.688 164.077 62.69 161.665 64.076C159.303 65.462 156.506 66.155 153.272 66.155C150.5 66.155 148.036 65.693 145.88 64.769C143.724 63.7937 141.901 62.4847 140.413 60.842C138.975 59.148 137.872 57.1717 137.102 54.913C136.383 52.603 136.024 50.1133 136.024 47.444C136.024 44.826 136.46 42.362 137.333 40.052C138.205 37.742 139.437 35.74 141.029 34.046C142.62 32.3007 144.519 30.9403 146.727 29.965C148.934 28.9897 151.398 28.502 154.119 28.502C155.659 28.502 157.173 28.7073 158.662 29.118C160.202 29.5287 161.588 30.1703 162.82 31.043C164.103 31.8643 165.181 32.9167 166.054 34.2C166.926 35.432 167.44 36.8693 167.594 38.512C167.234 40.6167 165.925 41.669 163.667 41.669C161.049 41.669 159.534 40.0777 159.124 36.895L158.585 33.969C158.379 33.045 157.943 32.4803 157.276 32.275C156.66 32.0697 155.967 31.967 155.197 31.967C153.297 31.967 151.68 32.429 150.346 33.353C149.011 34.2257 147.933 35.3807 147.112 36.818C146.29 38.204 145.674 39.7697 145.264 41.515C144.904 43.209 144.725 44.8517 144.725 46.443C144.725 51.2683 145.777 54.8873 147.882 57.3C149.986 59.7127 152.681 60.919 155.967 60.919C159.457 60.919 162.281 59.533 164.437 56.761ZM185.574 59.379C185.574 60.5597 186.139 61.2527 187.268 61.458L188.885 61.766C190.015 61.9713 190.579 62.5617 190.579 63.537C190.579 64.5123 189.938 65 188.654 65H173.947C172.664 65 172.022 64.5123 172.022 63.537C172.022 62.613 172.613 62.0227 173.793 61.766L175.487 61.458C176.617 61.2527 177.181 60.5597 177.181 59.379C177.233 57.7363 177.258 56.0937 177.258 54.451C177.31 52.8083 177.335 51.1657 177.335 49.523V20.109C177.335 18.9283 176.745 18.261 175.564 18.107L173.254 17.799C172.074 17.645 171.483 17.106 171.483 16.182C171.483 15.258 172.048 14.642 173.177 14.334L183.341 11.716C183.598 11.6133 183.803 11.562 183.957 11.562C184.163 11.562 184.368 11.562 184.573 11.562C184.933 11.562 185.164 11.6133 185.266 11.716C185.574 11.9213 185.728 12.5373 185.728 13.564L185.497 22.496V49.523C185.497 51.1657 185.497 52.8083 185.497 54.451C185.549 56.0937 185.574 57.7363 185.574 59.379ZM229.388 59.379C229.388 60.5597 229.953 61.2527 231.082 61.458L232.314 61.689C233.444 61.9457 234.008 62.5617 234.008 63.537C234.008 64.5123 233.392 65.0513 232.16 65.154L223.921 65.693H223.767C222.638 65.693 221.996 65.1027 221.842 63.922L221.38 59.456C217.53 63.922 213.27 66.155 208.598 66.155C207.11 66.155 205.749 65.8983 204.517 65.385C203.285 64.923 202.233 64.153 201.36 63.075C200.488 62.0483 199.82 60.7137 199.358 59.071C198.896 57.377 198.691 55.298 198.742 52.834L198.896 35.817C198.896 34.6877 198.306 33.9947 197.125 33.738L196.047 33.507C194.918 33.3017 194.353 32.7113 194.353 31.736C194.353 30.812 194.969 30.2987 196.201 30.196L205.133 29.426C205.339 29.426 205.518 29.426 205.672 29.426C205.826 29.3747 205.955 29.349 206.057 29.349C206.417 29.349 206.699 29.4003 206.904 29.503C207.11 29.7083 207.212 30.2987 207.212 31.274L206.904 40.36V51.756C206.904 54.99 207.341 57.2487 208.213 58.532C209.137 59.8153 210.421 60.457 212.063 60.457C213.552 60.457 215.066 60.0463 216.606 59.225C218.198 58.3523 219.712 57.223 221.149 55.837L221.38 35.817C221.38 34.6877 220.79 33.9947 219.609 33.738L218.531 33.507C217.402 33.3017 216.837 32.737 216.837 31.813C216.837 30.889 217.453 30.3757 218.685 30.273L227.463 29.426C227.669 29.426 227.848 29.426 228.002 29.426C228.156 29.3747 228.285 29.349 228.387 29.349C228.747 29.349 229.029 29.4003 229.234 29.503C229.337 29.6057 229.414 29.7853 229.465 30.042C229.568 30.2987 229.619 30.7093 229.619 31.274L229.388 40.36V59.379ZM254.285 42.978L256.749 43.825C258.649 44.5437 260.214 45.3137 261.446 46.135C262.73 46.905 263.782 47.7263 264.603 48.599C265.322 49.523 265.835 50.524 266.143 51.602C266.451 52.6287 266.605 53.7323 266.605 54.913C266.605 56.9663 266.143 58.7117 265.219 60.149C264.347 61.535 263.192 62.69 261.754 63.614C260.317 64.4867 258.7 65.1283 256.903 65.539C255.158 65.9497 253.413 66.155 251.667 66.155C249.511 66.155 247.612 65.924 245.969 65.462C244.327 65.0513 242.684 64.4353 241.041 63.614C240.117 63.2033 239.655 62.459 239.655 61.381L239.578 56.53C239.578 55.2467 240.194 54.605 241.426 54.605H242.658C243.788 54.605 244.481 55.1953 244.737 56.376L245.353 59.61C245.507 60.6367 246.046 61.304 246.97 61.612C248.51 62.228 250.102 62.536 251.744 62.536C254.362 62.536 256.262 62.074 257.442 61.15C258.623 60.226 259.213 58.9427 259.213 57.3C259.213 55.8113 258.7 54.6563 257.673 53.835C256.647 52.9623 254.824 52.0127 252.206 50.986L248.818 49.754C245.944 48.5733 243.736 47.1617 242.196 45.519C240.656 43.8763 239.886 41.7717 239.886 39.205C239.886 37.2543 240.297 35.6117 241.118 34.277C241.94 32.9423 243.018 31.8387 244.352 30.966C245.687 30.0933 247.176 29.4773 248.818 29.118C250.461 28.7073 252.129 28.502 253.823 28.502C255.62 28.502 257.263 28.7073 258.751 29.118C260.24 29.4773 261.729 30.0163 263.217 30.735C264.193 31.197 264.655 31.967 264.603 33.045L264.372 37.357C264.321 38.589 263.679 39.205 262.447 39.205H261.292C260.112 39.205 259.419 38.6403 259.213 37.511L258.674 34.662C258.469 33.584 257.904 32.9167 256.98 32.66C255.902 32.2493 254.773 32.044 253.592 32.044C251.539 32.044 249.948 32.4803 248.818 33.353C247.74 34.2257 247.201 35.4833 247.201 37.126C247.201 38.358 247.689 39.4103 248.664 40.283C249.178 40.6937 249.896 41.13 250.82 41.592C251.796 42.054 252.951 42.516 254.285 42.978ZM285.366 59.456C285.417 60.534 286.007 61.2013 287.137 61.458L288.446 61.689C289.575 61.9457 290.14 62.5617 290.14 63.537C290.14 64.5123 289.498 65 288.215 65H274.047C272.763 65 272.122 64.5123 272.122 63.537C272.122 62.613 272.712 62.0227 273.893 61.766L275.433 61.458C276.562 61.2013 277.152 60.534 277.204 59.456V45.827C277.204 44.8003 277.204 43.8763 277.204 43.055C277.204 42.2337 277.178 41.4637 277.127 40.745C277.075 40.3343 277.05 39.9237 277.05 39.513C277.05 39.1023 277.05 38.6917 277.05 38.281C276.947 37.1003 276.331 36.433 275.202 36.279L273.354 36.048C272.173 35.894 271.583 35.355 271.583 34.431C271.583 33.6097 272.096 32.9937 273.123 32.583L283.133 28.964C283.389 28.8613 283.62 28.7843 283.826 28.733C284.031 28.6817 284.236 28.656 284.442 28.656C284.698 28.656 284.904 28.733 285.058 28.887C285.417 29.195 285.597 29.811 285.597 30.735L285.366 39.513V59.456ZM281.208 21.418C279.565 21.418 278.205 20.9303 277.127 19.955C276.1 18.9797 275.587 17.6963 275.587 16.105C275.587 14.5137 276.1 13.2303 277.127 12.255C278.205 11.2797 279.565 10.792 281.208 10.792C282.799 10.792 284.108 11.2797 285.135 12.255C286.213 13.2303 286.752 14.5137 286.752 16.105C286.752 17.6963 286.213 18.9797 285.135 19.955C284.108 20.9303 282.799 21.418 281.208 21.418ZM312.469 28.502C315.138 28.502 317.577 29.0153 319.784 30.042C321.991 31.0173 323.865 32.3777 325.405 34.123C326.996 35.817 328.203 37.819 329.024 40.129C329.897 42.3877 330.333 44.826 330.333 47.444C330.333 50.1133 329.897 52.603 329.024 54.913C328.203 57.1717 327.022 59.148 325.482 60.842C323.942 62.4847 322.068 63.7937 319.861 64.769C317.654 65.693 315.19 66.155 312.469 66.155C309.748 66.155 307.284 65.693 305.077 64.769C302.87 63.7937 300.996 62.4847 299.456 60.842C297.916 59.148 296.71 57.1717 295.837 54.913C295.016 52.603 294.605 50.1133 294.605 47.444C294.605 44.826 295.016 42.362 295.837 40.052C296.71 37.742 297.916 35.74 299.456 34.046C301.047 32.352 302.921 31.0173 305.077 30.042C307.284 29.0153 309.748 28.502 312.469 28.502ZM312.469 31.967C306.566 31.967 303.614 37.1003 303.614 47.367C303.614 57.531 306.566 62.613 312.469 62.613C318.372 62.613 321.324 57.531 321.324 47.367C321.324 37.1003 318.372 31.967 312.469 31.967ZM371.923 59.456C371.975 60.534 372.565 61.2013 373.694 61.458L375.003 61.689C376.133 61.9457 376.697 62.5617 376.697 63.537C376.697 64.5123 376.056 65 374.772 65H360.604C359.321 65 358.679 64.5123 358.679 63.537C358.679 62.5617 359.244 61.9713 360.373 61.766L361.913 61.458C363.043 61.2013 363.633 60.534 363.684 59.456V42.67C363.684 39.59 363.299 37.4083 362.529 36.125C361.811 34.7903 360.476 34.123 358.525 34.123C356.934 34.123 355.394 34.508 353.905 35.278C352.468 36.048 350.928 37.203 349.285 38.743V59.456C349.337 60.534 349.927 61.2013 351.056 61.458L352.442 61.766C353.572 61.9713 354.136 62.5617 354.136 63.537C354.136 64.5123 353.495 65 352.211 65H337.889C336.606 65 335.964 64.5123 335.964 63.537C335.964 62.613 336.555 62.0227 337.735 61.766L339.352 61.458C340.482 61.2013 341.072 60.534 341.123 59.456V45.519C341.123 44.4923 341.123 43.5683 341.123 42.747C341.123 41.9257 341.098 41.207 341.046 40.591C340.995 40.1803 340.969 39.7953 340.969 39.436C340.969 39.0767 340.969 38.6917 340.969 38.281C340.867 37.1003 340.251 36.433 339.121 36.279L337.273 36.048C336.093 35.894 335.502 35.355 335.502 34.431C335.502 33.5583 336.016 32.9167 337.042 32.506L345.974 29.041C346.436 28.8357 346.898 28.733 347.36 28.733C347.668 28.733 347.874 28.7843 347.976 28.887C348.387 29.1437 348.618 29.734 348.669 30.658L349.054 35.201C351.005 32.9423 352.981 31.274 354.983 30.196C356.985 29.0667 359.244 28.502 361.759 28.502C365.147 28.502 367.688 29.5543 369.382 31.659C371.076 33.7123 371.923 37.1003 371.923 41.823V59.456Z" transform="translate(-3 -10)" fill="#ADE4FF" fill-opacity="0.8"/>
</svg>
