<svg width="369" height="106" viewBox="0 0 369 106" fill="none" xmlns="http://www.w3.org/2000/svg">
<path d="M47.125 15.155C47.125 16.1083 46.605 16.65 45.565 16.78L43.225 17.04C42.2283 17.17 41.7083 17.7117 41.665 18.665C41.665 19.7483 41.6433 20.81 41.6 21.85C41.6 22.89 41.6 23.9517 41.6 25.035V43.625C41.6 44.7083 41.6 45.7917 41.6 46.875C41.6433 47.915 41.665 48.9767 41.665 50.06C41.7083 51.0567 42.2283 51.62 43.225 51.75L45.565 52.01C46.605 52.14 47.125 52.66 47.125 53.57C47.125 54.5233 46.5833 55 45.5 55H30.16C29.0767 55 28.535 54.5233 28.535 53.57C28.535 52.6167 29.055 52.075 30.095 51.945L32.435 51.685C33.4317 51.555 33.9517 51.0133 33.995 50.06C33.995 49.02 33.995 47.98 33.995 46.94C34.0383 45.9 34.06 44.8383 34.06 43.755V35.37H15.405V43.69C15.405 44.7733 15.405 45.8567 15.405 46.94C15.4483 47.98 15.47 49.02 15.47 50.06C15.5133 51.0567 16.0333 51.62 17.03 51.75L19.37 52.01C20.41 52.14 20.93 52.66 20.93 53.57C20.93 54.5233 20.3883 55 19.305 55H3.965C2.88167 55 2.34 54.5233 2.34 53.57C2.34 52.6167 2.86 52.0967 3.9 52.01L6.24 51.75C7.23667 51.62 7.75667 51.0567 7.8 50.06C7.8 49.02 7.8 47.98 7.8 46.94C7.84333 45.8567 7.865 44.7733 7.865 43.69V25.1C7.865 24.0167 7.84333 22.955 7.8 21.915C7.8 20.8317 7.8 19.7483 7.8 18.665C7.71333 17.6683 7.19333 17.105 6.24 16.975L3.9 16.715C2.86 16.585 2.34 16.065 2.34 15.155C2.34 14.2017 2.88167 13.725 3.965 13.725H19.305C20.3883 13.725 20.93 14.2017 20.93 15.155C20.93 16.1083 20.41 16.65 19.37 16.78L17.03 17.04C16.0333 17.17 15.5133 17.7117 15.47 18.665C15.47 19.6617 15.4483 20.6583 15.405 21.655C15.405 22.6517 15.405 23.6483 15.405 24.645V32.185H34.06V24.71C34.06 23.7133 34.0383 22.7167 33.995 21.72C33.995 20.7233 33.995 19.7267 33.995 18.73C33.9083 17.7333 33.3883 17.17 32.435 17.04L30.03 16.78C29.0333 16.65 28.535 16.1083 28.535 15.155C28.535 14.2017 29.0767 13.725 30.16 13.725H45.5C46.5833 13.725 47.125 14.2017 47.125 15.155ZM62.9682 50.32C63.0116 51.23 63.5099 51.7933 64.4632 52.01L65.5682 52.205C66.5216 52.4217 66.9982 52.9417 66.9982 53.765C66.9982 54.5883 66.4566 55 65.3732 55H53.4132C52.3299 55 51.7882 54.5883 51.7882 53.765C51.7882 52.985 52.2866 52.4867 53.2832 52.27L54.5832 52.01C55.5366 51.7933 56.0349 51.23 56.0782 50.32V38.815C56.0782 37.9483 56.0782 37.1683 56.0782 36.475C56.0782 35.7817 56.0566 35.1317 56.0132 34.525C55.9699 34.1783 55.9482 33.8317 55.9482 33.485C55.9482 33.1383 55.9482 32.7917 55.9482 32.445C55.8616 31.4483 55.3416 30.885 54.3882 30.755L52.8282 30.56C51.8316 30.43 51.3332 29.975 51.3332 29.195C51.3332 28.5017 51.7666 27.9817 52.6332 27.635L61.0832 24.58C61.2999 24.4933 61.4949 24.4283 61.6682 24.385C61.8416 24.3417 62.0149 24.32 62.1882 24.32C62.4049 24.32 62.5782 24.385 62.7082 24.515C63.0116 24.775 63.1632 25.295 63.1632 26.075L62.9682 33.485V50.32ZM59.4582 18.21C58.0716 18.21 56.9232 17.7983 56.0132 16.975C55.1466 16.1517 54.7132 15.0683 54.7132 13.725C54.7132 12.3817 55.1466 11.2983 56.0132 10.475C56.9232 9.65167 58.0716 9.24 59.4582 9.24C60.8016 9.24 61.9066 9.65167 62.7732 10.475C63.6832 11.2983 64.1382 12.3817 64.1382 13.725C64.1382 15.0683 63.6832 16.1517 62.7732 16.975C61.9066 17.7983 60.8016 18.21 59.4582 18.21ZM100.343 26.14V27.505C100.343 28.5883 99.8011 29.13 98.7177 29.13H94.2977C95.2511 30.6033 95.7277 32.3583 95.7277 34.395C95.7277 36.1283 95.4027 37.645 94.7527 38.945C94.1027 40.2017 93.2361 41.2633 92.1527 42.13C91.0694 42.9533 89.7911 43.5817 88.3177 44.015C86.8877 44.405 85.3927 44.6 83.8327 44.6C82.0994 44.6 80.5611 44.3833 79.2177 43.95C78.9144 44.4267 78.6761 44.8817 78.5027 45.315C78.3294 45.705 78.2427 46.16 78.2427 46.68C78.2427 47.59 78.5461 48.2833 79.1527 48.76C79.8027 49.1933 80.8644 49.41 82.3377 49.41H88.9677C92.9111 49.41 95.7277 50.0817 97.4177 51.425C99.1511 52.725 100.018 54.5667 100.018 56.95C100.018 59.03 99.4544 60.7633 98.3277 62.15C97.2011 63.58 95.7927 64.7067 94.1027 65.53C92.4561 66.3533 90.6361 66.9383 88.6427 67.285C86.6927 67.6317 84.8944 67.805 83.2477 67.805C78.6544 67.805 75.3827 67.1767 73.4327 65.92C71.3961 64.7933 70.3777 63.19 70.3777 61.11C70.3777 59.8533 70.8327 58.6833 71.7427 57.6C72.6527 56.5167 74.1044 55.4767 76.0977 54.48C74.8844 53.8733 74.0177 53.1367 73.4977 52.27C72.9777 51.36 72.7177 50.4067 72.7177 49.41C72.7177 48.1533 73.0861 47.0267 73.8227 46.03C74.5594 45.0333 75.6211 44.0367 77.0077 43.04C75.4477 42.1733 74.2344 41.025 73.3677 39.595C72.5011 38.1217 72.0677 36.3883 72.0677 34.395C72.0677 32.705 72.3927 31.2317 73.0427 29.975C73.6927 28.675 74.5594 27.6133 75.6427 26.79C76.7261 25.9233 77.9827 25.2733 79.4127 24.84C80.8427 24.4067 82.3377 24.19 83.8977 24.19C87.1911 24.19 89.9211 25.0133 92.0877 26.66L98.1977 24.645C98.4144 24.5583 98.6094 24.4933 98.7827 24.45C98.9561 24.4067 99.1294 24.385 99.3027 24.385C99.7794 24.385 100.061 24.58 100.148 24.97C100.278 25.36 100.343 25.75 100.343 26.14ZM83.7677 41.935C85.5877 41.935 86.9744 41.2633 87.9277 39.92C88.9244 38.5333 89.4227 36.67 89.4227 34.33C89.4227 32.0333 88.9461 30.2133 87.9927 28.87C87.0394 27.4833 85.6744 26.79 83.8977 26.79C82.0777 26.79 80.6911 27.4833 79.7377 28.87C78.8277 30.2567 78.3727 32.0983 78.3727 34.395C78.3727 36.735 78.8277 38.5767 79.7377 39.92C80.6477 41.2633 81.9911 41.935 83.7677 41.935ZM88.4477 55.52H81.6227C80.9294 55.52 80.3011 55.4767 79.7377 55.39C79.1744 55.3467 78.6544 55.2817 78.1777 55.195C77.1377 56.625 76.6177 58.0767 76.6177 59.55C76.6177 61.5 77.2894 62.865 78.6327 63.645C79.9761 64.425 81.7527 64.815 83.9627 64.815C87.2561 64.815 89.7694 64.2517 91.5027 63.125C93.2361 62.0417 94.1027 60.7417 94.1027 59.225C94.1027 58.185 93.6911 57.3183 92.8677 56.625C92.4344 56.2783 91.8711 55.9967 91.1777 55.78C90.4844 55.6067 89.5744 55.52 88.4477 55.52ZM133.998 50.32C134.041 51.23 134.539 51.7933 135.493 52.01L136.597 52.205C137.551 52.4217 138.027 52.9417 138.027 53.765C138.027 54.5883 137.486 55 136.403 55H124.378C123.294 55 122.753 54.5883 122.753 53.765C122.753 52.985 123.251 52.4867 124.248 52.27L125.613 52.01C126.566 51.7933 127.064 51.23 127.108 50.32V36.15C127.108 33.55 126.783 31.7083 126.132 30.625C125.483 29.4983 124.334 28.935 122.687 28.935C121.344 28.935 120.044 29.26 118.787 29.91C117.531 30.5167 116.209 31.5133 114.822 32.9V50.255C114.822 51.2517 115.299 51.8367 116.252 52.01L117.358 52.205C118.311 52.4217 118.787 52.9417 118.787 53.765C118.787 54.5883 118.246 55 117.162 55H105.203C104.119 55 103.577 54.5883 103.577 53.765C103.577 52.985 104.076 52.4867 105.073 52.27L106.373 52.01C107.326 51.7933 107.824 51.23 107.868 50.32V17.105C107.868 16.1083 107.369 15.545 106.373 15.415L104.422 15.155C103.426 15.025 102.927 14.57 102.927 13.79C102.927 13.01 103.382 12.49 104.292 12.23L112.807 10.02C113.024 9.93333 113.198 9.89 113.327 9.89C113.501 9.89 113.674 9.89 113.847 9.89C114.151 9.89 114.346 9.93333 114.432 10.02C114.692 10.1933 114.822 10.7133 114.822 11.58L114.628 19.12V29.78C116.317 27.8733 118.008 26.465 119.698 25.555C121.387 24.645 123.294 24.19 125.418 24.19C128.278 24.19 130.422 25.0783 131.852 26.855C133.283 28.5883 133.998 31.4483 133.998 35.435V50.32ZM183.432 18.47C183.258 17.5167 182.673 17.04 181.677 17.04H169.847C169.803 18.2967 169.76 19.5533 169.717 20.81C169.717 22.0233 169.717 23.2583 169.717 24.515V32.185H177.257C178.253 32.185 178.817 31.6867 178.947 30.69L179.337 27.96C179.467 26.9633 180.052 26.465 181.092 26.465C182.175 26.465 182.717 27.0067 182.717 28.09V40.05C182.717 41.1333 182.197 41.675 181.157 41.675H181.092C180.095 41.675 179.532 41.1767 179.402 40.18L178.882 36.865C178.752 35.8683 178.188 35.37 177.192 35.37H169.717V43.625C169.717 44.7083 169.717 45.7917 169.717 46.875C169.76 47.915 169.782 48.955 169.782 49.995C169.825 50.9917 170.345 51.555 171.342 51.685L174.007 51.945C175.047 52.075 175.567 52.6167 175.567 53.57C175.567 54.5233 175.025 55 173.942 55H158.277C157.193 55 156.652 54.5233 156.652 53.57C156.652 52.6167 157.172 52.0967 158.212 52.01L160.552 51.75C161.548 51.62 162.068 51.0567 162.112 50.06C162.112 49.02 162.112 47.98 162.112 46.94C162.155 45.8567 162.177 44.7733 162.177 43.69V25.1C162.177 24.0167 162.155 22.955 162.112 21.915C162.112 20.8317 162.112 19.7483 162.112 18.665C162.025 17.6683 161.505 17.105 160.552 16.975L158.212 16.715C157.172 16.585 156.652 16.065 156.652 15.155C156.652 14.2017 157.193 13.725 158.277 13.725H186.682C187.722 13.725 188.263 14.245 188.307 15.285L188.632 23.02C188.718 24.1467 188.177 24.71 187.007 24.71H186.097C185.1 24.71 184.515 24.2333 184.342 23.28L183.432 18.47ZM204.077 50.32C204.12 51.23 204.618 51.7933 205.572 52.01L206.677 52.205C207.63 52.4217 208.107 52.9417 208.107 53.765C208.107 54.5883 207.565 55 206.482 55H194.522C193.438 55 192.897 54.5883 192.897 53.765C192.897 52.985 193.395 52.4867 194.392 52.27L195.692 52.01C196.645 51.7933 197.143 51.23 197.187 50.32V38.815C197.187 37.9483 197.187 37.1683 197.187 36.475C197.187 35.7817 197.165 35.1317 197.122 34.525C197.078 34.1783 197.057 33.8317 197.057 33.485C197.057 33.1383 197.057 32.7917 197.057 32.445C196.97 31.4483 196.45 30.885 195.497 30.755L193.937 30.56C192.94 30.43 192.442 29.975 192.442 29.195C192.442 28.5017 192.875 27.9817 193.742 27.635L202.192 24.58C202.408 24.4933 202.603 24.4283 202.777 24.385C202.95 24.3417 203.123 24.32 203.297 24.32C203.513 24.32 203.687 24.385 203.817 24.515C204.12 24.775 204.272 25.295 204.272 26.075L204.077 33.485V50.32ZM200.567 18.21C199.18 18.21 198.032 17.7983 197.122 16.975C196.255 16.1517 195.822 15.0683 195.822 13.725C195.822 12.3817 196.255 11.2983 197.122 10.475C198.032 9.65167 199.18 9.24 200.567 9.24C201.91 9.24 203.015 9.65167 203.882 10.475C204.792 11.2983 205.247 12.3817 205.247 13.725C205.247 15.0683 204.792 16.1517 203.882 16.975C203.015 17.7983 201.91 18.21 200.567 18.21ZM240.151 50.255C240.151 51.2083 240.649 51.7933 241.646 52.01L243.011 52.27C244.008 52.4867 244.506 52.985 244.506 53.765C244.506 54.545 243.986 54.9783 242.946 55.065L235.536 55.52C234.496 55.52 233.911 55.0433 233.781 54.09L233.521 51.75C232.264 53.1367 230.943 54.1983 229.556 54.935C228.169 55.6283 226.501 55.975 224.551 55.975C222.384 55.975 220.499 55.52 218.896 54.61C217.336 53.7 216.036 52.5083 214.996 51.035C213.999 49.5617 213.241 47.8933 212.721 46.03C212.244 44.1667 212.006 42.26 212.006 40.31C212.006 38.3167 212.288 36.3667 212.851 34.46C213.414 32.51 214.238 30.7767 215.321 29.26C216.448 27.7433 217.834 26.53 219.481 25.62C221.171 24.6667 223.121 24.19 225.331 24.19C228.581 24.19 231.333 25.4467 233.586 27.96V17.17C233.586 16.13 233.088 15.545 232.091 15.415L229.881 15.155C228.884 15.025 228.386 14.57 228.386 13.79C228.386 13.01 228.863 12.49 229.816 12.23L238.396 10.02C238.613 9.93333 238.786 9.89 238.916 9.89C239.089 9.89 239.263 9.89 239.436 9.89C239.739 9.89 239.934 9.93333 240.021 10.02C240.238 10.1933 240.346 10.7133 240.346 11.58L240.151 19.12V50.255ZM233.261 49.085V30.95C231.008 29.2167 228.993 28.35 227.216 28.35C225.699 28.35 224.421 28.74 223.381 29.52C222.384 30.2567 221.583 31.21 220.976 32.38C220.413 33.55 220.001 34.8283 219.741 36.215C219.524 37.6017 219.416 38.9017 219.416 40.115C219.416 44.1017 220.131 47.0483 221.561 48.955C222.991 50.8183 224.811 51.75 227.021 51.75C229.058 51.75 231.138 50.8617 233.261 49.085ZM276.723 37.905C276.549 38.8583 275.943 39.335 274.903 39.335H256.053C256.139 43.2783 257.093 46.2467 258.913 48.24C260.733 50.2333 263.094 51.23 265.998 51.23C267.688 51.23 269.118 50.9267 270.288 50.32C271.501 49.67 272.606 48.7817 273.603 47.655C274.079 47.135 274.534 46.875 274.968 46.875C275.184 46.875 275.379 46.94 275.553 47.07C276.203 47.5033 276.289 48.1533 275.813 49.02C274.686 51.23 273.061 52.92 270.938 54.09C268.814 55.26 266.323 55.845 263.463 55.845C261.036 55.845 258.869 55.4333 256.963 54.61C255.099 53.7867 253.518 52.66 252.218 51.23C250.961 49.7567 250.008 48.0233 249.358 46.03C248.708 44.0367 248.383 41.87 248.383 39.53C248.383 37.2767 248.751 35.1317 249.488 33.095C250.224 31.0583 251.264 29.2817 252.608 27.765C253.994 26.205 255.641 24.9917 257.548 24.125C259.498 23.215 261.643 22.76 263.983 22.76C265.933 22.76 267.688 23.085 269.248 23.735C270.851 24.385 272.216 25.295 273.343 26.465C274.469 27.5917 275.336 28.9567 275.943 30.56C276.549 32.1633 276.853 33.94 276.853 35.89C276.853 36.2367 276.853 36.5833 276.853 36.93C276.853 37.2333 276.809 37.5583 276.723 37.905ZM256.183 36.345H265.933C267.493 36.345 268.533 36.02 269.053 35.37C269.616 34.72 269.898 33.81 269.898 32.64C269.898 30.69 269.334 29.065 268.208 27.765C267.124 26.465 265.759 25.815 264.113 25.815C262.769 25.815 261.599 26.1617 260.603 26.855C259.649 27.505 258.848 28.35 258.198 29.39C257.591 30.43 257.114 31.5783 256.768 32.835C256.464 34.0483 256.269 35.2183 256.183 36.345ZM292.684 50.255C292.684 51.2517 293.16 51.8367 294.114 52.01L295.479 52.27C296.432 52.4433 296.909 52.9417 296.909 53.765C296.909 54.5883 296.367 55 295.284 55H282.869C281.785 55 281.244 54.5883 281.244 53.765C281.244 52.985 281.742 52.4867 282.739 52.27L284.169 52.01C285.122 51.8367 285.599 51.2517 285.599 50.255C285.642 48.8683 285.664 47.4817 285.664 46.095C285.707 44.7083 285.729 43.3217 285.729 41.935V17.105C285.729 16.1083 285.23 15.545 284.234 15.415L282.284 15.155C281.287 15.025 280.789 14.57 280.789 13.79C280.789 13.01 281.265 12.49 282.219 12.23L290.799 10.02C291.015 9.93333 291.189 9.89 291.319 9.89C291.492 9.89 291.665 9.89 291.839 9.89C292.142 9.89 292.337 9.93333 292.424 10.02C292.684 10.1933 292.814 10.7133 292.814 11.58L292.619 19.12V41.935C292.619 43.3217 292.619 44.7083 292.619 46.095C292.662 47.4817 292.684 48.8683 292.684 50.255ZM311.86 50.32C311.903 51.23 312.402 51.7933 313.355 52.01L314.46 52.205C315.413 52.4217 315.89 52.9417 315.89 53.765C315.89 54.5883 315.348 55 314.265 55H302.305C301.222 55 300.68 54.5883 300.68 53.765C300.68 52.985 301.178 52.4867 302.175 52.27L303.475 52.01C304.428 51.7933 304.927 51.23 304.97 50.32V38.815C304.97 37.9483 304.97 37.1683 304.97 36.475C304.97 35.7817 304.948 35.1317 304.905 34.525C304.862 34.1783 304.84 33.8317 304.84 33.485C304.84 33.1383 304.84 32.7917 304.84 32.445C304.753 31.4483 304.233 30.885 303.28 30.755L301.72 30.56C300.723 30.43 300.225 29.975 300.225 29.195C300.225 28.5017 300.658 27.9817 301.525 27.635L309.975 24.58C310.192 24.4933 310.387 24.4283 310.56 24.385C310.733 24.3417 310.907 24.32 311.08 24.32C311.297 24.32 311.47 24.385 311.6 24.515C311.903 24.775 312.055 25.295 312.055 26.075L311.86 33.485V50.32ZM308.35 18.21C306.963 18.21 305.815 17.7983 304.905 16.975C304.038 16.1517 303.605 15.0683 303.605 13.725C303.605 12.3817 304.038 11.2983 304.905 10.475C305.815 9.65167 306.963 9.24 308.35 9.24C309.693 9.24 310.798 9.65167 311.665 10.475C312.575 11.2983 313.03 12.3817 313.03 13.725C313.03 15.0683 312.575 16.1517 311.665 16.975C310.798 17.7983 309.693 18.21 308.35 18.21ZM335.584 50.71C336.061 50.45 336.473 50.32 336.819 50.32C337.166 50.32 337.469 50.4717 337.729 50.775C338.293 51.4683 338.249 52.1617 337.599 52.855C336.776 53.7217 335.758 54.415 334.544 54.935C333.374 55.4117 331.966 55.65 330.319 55.65C327.936 55.65 326.051 55.065 324.664 53.895C323.321 52.6817 322.649 50.7967 322.649 48.24C322.649 47.6767 322.649 47.1783 322.649 46.745C322.649 46.2683 322.671 45.8133 322.714 45.38V30.56C322.714 29.4767 322.173 28.935 321.089 28.935H319.724C318.641 28.935 318.099 28.415 318.099 27.375C318.099 26.3783 318.598 25.815 319.594 25.685L321.869 25.425C322.779 25.295 323.321 24.775 323.494 23.865L324.664 18.015C324.838 17.0617 325.423 16.585 326.419 16.585H328.239C329.279 16.585 329.799 17.1267 329.799 18.21L329.669 23.67C329.669 24.7533 330.211 25.295 331.294 25.295H335.779C336.863 25.295 337.404 25.8367 337.404 26.92V27.31C337.404 28.3933 336.863 28.935 335.779 28.935H331.229C330.146 28.935 329.604 29.4767 329.604 30.56V47.005C329.604 48.6083 329.908 49.7567 330.514 50.45C331.164 51.1433 331.988 51.49 332.984 51.49C333.331 51.49 333.721 51.4467 334.154 51.36C334.631 51.23 335.108 51.0133 335.584 50.71ZM368.744 25.295C369.827 25.295 370.369 25.7283 370.369 26.595C370.369 27.4617 369.871 28.0033 368.874 28.22L367.899 28.415C367.032 28.545 366.447 29.0217 366.144 29.845L356.849 55.26C356.372 56.6033 355.787 58.0983 355.094 59.745C354.444 61.435 353.642 62.995 352.689 64.425C351.736 65.8983 350.609 67.1333 349.309 68.13C348.009 69.1267 346.492 69.625 344.759 69.625C343.112 69.625 341.682 69.235 340.469 68.455C339.299 67.7183 338.714 66.6783 338.714 65.335C339.017 64.3383 339.537 63.6233 340.274 63.19C341.011 62.8 341.856 62.605 342.809 62.605C343.589 62.605 344.326 62.735 345.019 62.995C345.756 63.255 346.557 63.8183 347.424 64.685C347.554 64.815 347.727 64.88 347.944 64.88C348.421 64.88 348.941 64.5333 349.504 63.84C350.067 63.19 350.609 62.41 351.129 61.5C351.649 60.6333 352.104 59.7667 352.494 58.9C352.927 58.0333 353.209 57.4267 353.339 57.08L342.224 29.78C341.921 29.0433 341.357 28.5883 340.534 28.415L339.624 28.22C338.671 28.0467 338.194 27.505 338.194 26.595C338.194 25.7283 338.736 25.295 339.819 25.295H352.624C353.707 25.295 354.249 25.7283 354.249 26.595C354.249 27.5483 353.751 28.09 352.754 28.22L351.194 28.48C350.024 28.6967 349.634 29.3467 350.024 30.43L356.524 48.045L362.634 30.365C363.024 29.2817 362.634 28.6317 361.464 28.415L360.034 28.22C359.037 28.09 358.539 27.5483 358.539 26.595C358.539 25.7283 359.081 25.295 360.164 25.295H368.744ZM16.9 83.88H15.405V90.185C15.405 90.965 15.405 91.7667 15.405 92.59C15.4483 93.37 15.47 94.1933 15.47 95.06C15.5133 96.0133 16.0333 96.555 17.03 96.685L19.695 96.945C20.735 97.075 21.255 97.6167 21.255 98.57C21.255 99.5233 20.7133 100 19.63 100H3.965C2.88167 100 2.34 99.5233 2.34 98.57C2.34 97.6167 2.86 97.0967 3.9 97.01L6.24 96.75C7.23667 96.62 7.75667 96.0567 7.8 95.06C7.8 94.02 7.8 92.98 7.8 91.94C7.84333 90.8567 7.865 89.7733 7.865 88.69V70.1C7.865 69.0167 7.84333 67.955 7.8 66.915C7.8 65.8317 7.8 64.7483 7.8 63.665C7.71333 62.6683 7.19333 62.105 6.24 61.975L3.9 61.715C2.86 61.585 2.34 61.065 2.34 60.155C2.34 59.2017 2.88167 58.725 3.965 58.725H19.175C21.2117 58.725 23.2267 58.92 25.22 59.31C27.2133 59.6567 28.99 60.3067 30.55 61.26C32.1533 62.17 33.4317 63.4267 34.385 65.03C35.3817 66.59 35.88 68.5833 35.88 71.01C35.88 73.6533 35.295 75.82 34.125 77.51C32.955 79.1567 31.4383 80.4567 29.575 81.41C27.755 82.3633 25.7183 83.0133 23.465 83.36C21.255 83.7067 19.0667 83.88 16.9 83.88ZM18.33 61.91H15.535C15.4917 63.2533 15.4483 64.575 15.405 65.875C15.405 67.175 15.405 68.5183 15.405 69.905V80.695H17.875C21.6017 80.695 24.31 79.8067 26 78.03C27.69 76.2533 28.535 73.9567 28.535 71.14C28.535 68.15 27.7117 65.875 26.065 64.315C24.4617 62.7117 21.8833 61.91 18.33 61.91ZM49.8057 69.515C49.9791 69.645 50.1091 69.8183 50.1957 70.035C50.2824 70.2517 50.3474 70.5983 50.3907 71.075L50.8457 76.47C52.0157 74.1733 53.3591 72.3967 54.8757 71.14C56.4357 69.84 58.0174 69.19 59.6207 69.19C60.4874 69.19 61.3757 69.45 62.2857 69.97C63.1957 70.49 63.7807 71.3783 64.0407 72.635C64.0407 73.8483 63.6724 74.8233 62.9357 75.56C62.1991 76.2533 61.2024 76.6 59.9457 76.6C58.4724 76.6 57.0857 75.9283 55.7857 74.585L55.4607 74.26C54.5074 75.1267 53.6407 76.1017 52.8607 77.185C52.1241 78.225 51.4741 79.4817 50.9107 80.955V95.125C50.9541 96.1217 51.4524 96.7067 52.4057 96.88L54.4857 97.27C55.4824 97.4867 55.9807 97.985 55.9807 98.765C55.9807 99.5883 55.4391 100 54.3557 100H41.3557C40.2724 100 39.7307 99.5883 39.7307 98.765C39.7307 97.985 40.2291 97.4867 41.2257 97.27L42.5257 97.01C43.4791 96.7933 43.9774 96.23 44.0207 95.32V83.555C44.0207 82.6883 44.0207 81.9083 44.0207 81.215C44.0207 80.5217 43.9991 79.915 43.9557 79.395C43.9124 79.0483 43.8907 78.7233 43.8907 78.42C43.8907 78.1167 43.8907 77.7917 43.8907 77.445C43.8041 76.4483 43.2841 75.885 42.3307 75.755L40.7707 75.56C39.7741 75.43 39.2757 74.975 39.2757 74.195C39.2757 73.4583 39.7091 72.9167 40.5757 72.57L48.1157 69.645C48.5057 69.4717 48.8741 69.385 49.2207 69.385C49.4807 69.385 49.6757 69.4283 49.8057 69.515ZM82.1026 69.19C84.356 69.19 86.4143 69.6233 88.2776 70.49C90.141 71.3133 91.7226 72.4617 93.0226 73.935C94.366 75.365 95.3843 77.055 96.0776 79.005C96.8143 80.9117 97.1826 82.97 97.1826 85.18C97.1826 87.4333 96.8143 89.535 96.0776 91.485C95.3843 93.3917 94.3876 95.06 93.0876 96.49C91.7876 97.8767 90.206 98.9817 88.3426 99.805C86.4793 100.585 84.3993 100.975 82.1026 100.975C79.806 100.975 77.726 100.585 75.8626 99.805C73.9993 98.9817 72.4176 97.8767 71.1176 96.49C69.8176 95.06 68.7993 93.3917 68.0626 91.485C67.3693 89.535 67.0226 87.4333 67.0226 85.18C67.0226 82.97 67.3693 80.89 68.0626 78.94C68.7993 76.99 69.8176 75.3 71.1176 73.87C72.461 72.44 74.0426 71.3133 75.8626 70.49C77.726 69.6233 79.806 69.19 82.1026 69.19ZM82.1026 72.115C77.1193 72.115 74.6276 76.4483 74.6276 85.115C74.6276 93.695 77.1193 97.985 82.1026 97.985C87.086 97.985 89.5776 93.695 89.5776 85.115C89.5776 76.4483 87.086 72.115 82.1026 72.115ZM117.796 95.71C118.273 95.45 118.685 95.32 119.031 95.32C119.378 95.32 119.681 95.4717 119.941 95.775C120.505 96.4683 120.461 97.1617 119.811 97.855C118.988 98.7217 117.97 99.415 116.756 99.935C115.586 100.412 114.178 100.65 112.531 100.65C110.148 100.65 108.263 100.065 106.876 98.895C105.533 97.6817 104.861 95.7967 104.861 93.24C104.861 92.6767 104.861 92.1783 104.861 91.745C104.861 91.2683 104.883 90.8133 104.926 90.38V75.56C104.926 74.4767 104.385 73.935 103.301 73.935H101.936C100.853 73.935 100.311 73.415 100.311 72.375C100.311 71.3783 100.81 70.815 101.806 70.685L104.081 70.425C104.991 70.295 105.533 69.775 105.706 68.865L106.876 63.015C107.05 62.0617 107.635 61.585 108.631 61.585H110.451C111.491 61.585 112.011 62.1267 112.011 63.21L111.881 68.67C111.881 69.7533 112.423 70.295 113.506 70.295H117.991C119.075 70.295 119.616 70.8367 119.616 71.92V72.31C119.616 73.3933 119.075 73.935 117.991 73.935H113.441C112.358 73.935 111.816 74.4767 111.816 75.56V92.005C111.816 93.6083 112.12 94.7567 112.726 95.45C113.376 96.1433 114.2 96.49 115.196 96.49C115.543 96.49 115.933 96.4467 116.366 96.36C116.843 96.23 117.32 96.0133 117.796 95.71ZM138.216 69.19C140.469 69.19 142.528 69.6233 144.391 70.49C146.254 71.3133 147.836 72.4617 149.136 73.935C150.479 75.365 151.498 77.055 152.191 79.005C152.928 80.9117 153.296 82.97 153.296 85.18C153.296 87.4333 152.928 89.535 152.191 91.485C151.498 93.3917 150.501 95.06 149.201 96.49C147.901 97.8767 146.319 98.9817 144.456 99.805C142.593 100.585 140.513 100.975 138.216 100.975C135.919 100.975 133.839 100.585 131.976 99.805C130.113 98.9817 128.531 97.8767 127.231 96.49C125.931 95.06 124.913 93.3917 124.176 91.485C123.483 89.535 123.136 87.4333 123.136 85.18C123.136 82.97 123.483 80.89 124.176 78.94C124.913 76.99 125.931 75.3 127.231 73.87C128.574 72.44 130.156 71.3133 131.976 70.49C133.839 69.6233 135.919 69.19 138.216 69.19ZM138.216 72.115C133.233 72.115 130.741 76.4483 130.741 85.115C130.741 93.695 133.233 97.985 138.216 97.985C143.199 97.985 145.691 93.695 145.691 85.115C145.691 76.4483 143.199 72.115 138.216 72.115ZM173.91 95.71C174.386 95.45 174.798 95.32 175.145 95.32C175.491 95.32 175.795 95.4717 176.055 95.775C176.618 96.4683 176.575 97.1617 175.925 97.855C175.101 98.7217 174.083 99.415 172.87 99.935C171.7 100.412 170.291 100.65 168.645 100.65C166.261 100.65 164.376 100.065 162.99 98.895C161.646 97.6817 160.975 95.7967 160.975 93.24C160.975 92.6767 160.975 92.1783 160.975 91.745C160.975 91.2683 160.996 90.8133 161.04 90.38V75.56C161.04 74.4767 160.498 73.935 159.415 73.935H158.05C156.966 73.935 156.425 73.415 156.425 72.375C156.425 71.3783 156.923 70.815 157.92 70.685L160.195 70.425C161.105 70.295 161.646 69.775 161.82 68.865L162.99 63.015C163.163 62.0617 163.748 61.585 164.745 61.585H166.565C167.605 61.585 168.125 62.1267 168.125 63.21L167.995 68.67C167.995 69.7533 168.536 70.295 169.62 70.295H174.105C175.188 70.295 175.73 70.8367 175.73 71.92V72.31C175.73 73.3933 175.188 73.935 174.105 73.935H169.555C168.471 73.935 167.93 74.4767 167.93 75.56V92.005C167.93 93.6083 168.233 94.7567 168.84 95.45C169.49 96.1433 170.313 96.49 171.31 96.49C171.656 96.49 172.046 96.4467 172.48 96.36C172.956 96.23 173.433 96.0133 173.91 95.71ZM207.069 70.295C208.153 70.295 208.694 70.7283 208.694 71.595C208.694 72.4617 208.196 73.0033 207.199 73.22L206.224 73.415C205.358 73.545 204.773 74.0217 204.469 74.845L195.174 100.26C194.698 101.603 194.113 103.098 193.419 104.745C192.769 106.435 191.968 107.995 191.014 109.425C190.061 110.898 188.934 112.133 187.634 113.13C186.334 114.127 184.818 114.625 183.084 114.625C181.438 114.625 180.008 114.235 178.794 113.455C177.624 112.718 177.039 111.678 177.039 110.335C177.343 109.338 177.863 108.623 178.599 108.19C179.336 107.8 180.181 107.605 181.134 107.605C181.914 107.605 182.651 107.735 183.344 107.995C184.081 108.255 184.883 108.818 185.749 109.685C185.879 109.815 186.053 109.88 186.269 109.88C186.746 109.88 187.266 109.533 187.829 108.84C188.393 108.19 188.934 107.41 189.454 106.5C189.974 105.633 190.429 104.767 190.819 103.9C191.253 103.033 191.534 102.427 191.664 102.08L180.549 74.78C180.246 74.0433 179.683 73.5883 178.859 73.415L177.949 73.22C176.996 73.0467 176.519 72.505 176.519 71.595C176.519 70.7283 177.061 70.295 178.144 70.295H190.949C192.033 70.295 192.574 70.7283 192.574 71.595C192.574 72.5483 192.076 73.09 191.079 73.22L189.519 73.48C188.349 73.6967 187.959 74.3467 188.349 75.43L194.849 93.045L200.959 75.365C201.349 74.2817 200.959 73.6317 199.789 73.415L198.359 73.22C197.363 73.09 196.864 72.5483 196.864 71.595C196.864 70.7283 197.406 70.295 198.489 70.295H207.069ZM221.699 69.515C222.045 69.7317 222.24 70.23 222.284 71.01L222.479 73.545C223.865 72.0717 225.295 70.9883 226.769 70.295C228.285 69.5583 229.975 69.19 231.839 69.19C234.005 69.19 235.847 69.6667 237.364 70.62C238.88 71.53 240.115 72.7433 241.069 74.26C242.065 75.7333 242.78 77.4017 243.214 79.265C243.69 81.1283 243.929 82.9917 243.929 84.855C243.929 86.8483 243.669 88.82 243.149 90.77C242.629 92.6767 241.827 94.3883 240.744 95.905C239.66 97.4217 238.295 98.6567 236.649 99.61C235.002 100.52 233.074 100.975 230.864 100.975C227.657 100.975 224.927 99.7833 222.674 97.4V100.91C222.674 102.167 222.674 103.532 222.674 105.005C222.717 106.522 222.76 107.973 222.804 109.36C222.804 110.357 223.28 110.942 224.234 111.115L226.509 111.57C227.462 111.743 227.939 112.242 227.939 113.065C227.939 113.888 227.397 114.3 226.314 114.3H213.184C212.1 114.3 211.559 113.888 211.559 113.065C211.559 112.242 212.035 111.722 212.989 111.505L214.484 111.18C215.437 110.963 215.914 110.378 215.914 109.425C215.957 108.038 215.979 106.587 215.979 105.07C216.022 103.597 216.044 102.21 216.044 100.91V83.555C216.044 82.6883 216.044 81.9083 216.044 81.215C216.044 80.5217 216.022 79.915 215.979 79.395C215.935 79.0483 215.914 78.7233 215.914 78.42C215.914 78.1167 215.914 77.7917 215.914 77.445C215.827 76.4483 215.307 75.885 214.354 75.755L212.794 75.56C211.797 75.43 211.299 74.975 211.299 74.195C211.299 73.4583 211.732 72.9167 212.599 72.57L220.074 69.645C220.464 69.4717 220.832 69.385 221.179 69.385C221.352 69.385 221.525 69.4283 221.699 69.515ZM222.869 76.08V94.215C224.949 95.905 226.964 96.75 228.914 96.75C231.08 96.75 232.879 95.8183 234.309 93.955C235.782 92.0917 236.519 89.1883 236.519 85.245C236.519 81.2583 235.869 78.29 234.569 76.34C233.312 74.3467 231.622 73.35 229.499 73.35C227.549 73.35 225.339 74.26 222.869 76.08ZM277.421 82.905C277.248 83.8583 276.641 84.335 275.601 84.335H256.751C256.838 88.2783 257.791 91.2467 259.611 93.24C261.431 95.2333 263.793 96.23 266.696 96.23C268.386 96.23 269.816 95.9267 270.986 95.32C272.199 94.67 273.304 93.7817 274.301 92.655C274.778 92.135 275.233 91.875 275.666 91.875C275.883 91.875 276.078 91.94 276.251 92.07C276.901 92.5033 276.988 93.1533 276.511 94.02C275.384 96.23 273.759 97.92 271.636 99.09C269.513 100.26 267.021 100.845 264.161 100.845C261.734 100.845 259.568 100.433 257.661 99.61C255.798 98.7867 254.216 97.66 252.916 96.23C251.659 94.7567 250.706 93.0233 250.056 91.03C249.406 89.0367 249.081 86.87 249.081 84.53C249.081 82.2767 249.449 80.1317 250.186 78.095C250.923 76.0583 251.963 74.2817 253.306 72.765C254.693 71.205 256.339 69.9917 258.246 69.125C260.196 68.215 262.341 67.76 264.681 67.76C266.631 67.76 268.386 68.085 269.946 68.735C271.549 69.385 272.914 70.295 274.041 71.465C275.168 72.5917 276.034 73.9567 276.641 75.56C277.248 77.1633 277.551 78.94 277.551 80.89C277.551 81.2367 277.551 81.5833 277.551 81.93C277.551 82.2333 277.508 82.5583 277.421 82.905ZM256.881 81.345H266.631C268.191 81.345 269.231 81.02 269.751 80.37C270.314 79.72 270.596 78.81 270.596 77.64C270.596 75.69 270.033 74.065 268.906 72.765C267.823 71.465 266.458 70.815 264.811 70.815C263.468 70.815 262.298 71.1617 261.301 71.855C260.348 72.505 259.546 73.35 258.896 74.39C258.289 75.43 257.813 76.5783 257.466 77.835C257.163 79.0483 256.968 80.2183 256.881 81.345ZM295.462 81.41L297.542 82.125C299.145 82.7317 300.467 83.3817 301.507 84.075C302.59 84.725 303.479 85.4183 304.172 86.155C304.779 86.935 305.212 87.78 305.472 88.69C305.732 89.5567 305.862 90.4883 305.862 91.485C305.862 93.2183 305.472 94.6917 304.692 95.905C303.955 97.075 302.98 98.05 301.767 98.83C300.554 99.5667 299.189 100.108 297.672 100.455C296.199 100.802 294.725 100.975 293.252 100.975C291.432 100.975 289.829 100.78 288.442 100.39C287.055 100.043 285.669 99.5233 284.282 98.83C283.502 98.4833 283.112 97.855 283.112 96.945L283.047 92.85C283.047 91.7667 283.567 91.225 284.607 91.225H285.647C286.6 91.225 287.185 91.7233 287.402 92.72L287.922 95.45C288.052 96.3167 288.507 96.88 289.287 97.14C290.587 97.66 291.93 97.92 293.317 97.92C295.527 97.92 297.13 97.53 298.127 96.75C299.124 95.97 299.622 94.8867 299.622 93.5C299.622 92.2433 299.189 91.2683 298.322 90.575C297.455 89.8383 295.917 89.0367 293.707 88.17L290.847 87.13C288.42 86.1333 286.557 84.9417 285.257 83.555C283.957 82.1683 283.307 80.3917 283.307 78.225C283.307 76.5783 283.654 75.1917 284.347 74.065C285.04 72.9383 285.95 72.0067 287.077 71.27C288.204 70.5333 289.46 70.0133 290.847 69.71C292.234 69.3633 293.642 69.19 295.072 69.19C296.589 69.19 297.975 69.3633 299.232 69.71C300.489 70.0133 301.745 70.4683 303.002 71.075C303.825 71.465 304.215 72.115 304.172 73.025L303.977 76.665C303.934 77.705 303.392 78.225 302.352 78.225H301.377C300.38 78.225 299.795 77.7483 299.622 76.795L299.167 74.39C298.994 73.48 298.517 72.9167 297.737 72.7C296.827 72.3533 295.874 72.18 294.877 72.18C293.144 72.18 291.8 72.5483 290.847 73.285C289.937 74.0217 289.482 75.0833 289.482 76.47C289.482 77.51 289.894 78.3983 290.717 79.135C291.15 79.4817 291.757 79.85 292.537 80.24C293.36 80.63 294.335 81.02 295.462 81.41Z" transform="translate(-2 -9)" fill="#EDA944" fill-opacity="0.5"/>
</svg>
