<svg width="143" height="28" viewBox="0 0 143 28" fill="none" xmlns="http://www.w3.org/2000/svg">
<path d="M10.54 7.41C11.1067 7.41 11.39 7.65933 11.39 8.158C11.39 8.65667 11.118 8.94 10.574 9.008L9.384 9.144C8.84 9.212 8.568 9.50667 8.568 10.028C8.568 10.572 8.55667 11.116 8.534 11.66C8.534 12.204 8.534 12.748 8.534 13.292V22.404C8.534 23.288 8.52267 24.0813 8.5 24.784C8.5 25.4867 8.47733 26.1213 8.432 26.688C8.38667 27.3227 8.30733 27.9573 8.194 28.592C8.10333 29.204 7.956 29.7933 7.752 30.36C7.548 30.9493 7.26467 31.4933 6.902 31.992C6.562 32.5133 6.12 32.978 5.576 33.386C4.46533 34.2247 3.18467 34.644 1.734 34.644C1.19 34.644 0.612 34.542 0 34.338C-0.612 34.1567 -1.07667 33.828 -1.394 33.352C-1.62067 32.9893 -1.67733 32.638 -1.564 32.298C-1.40533 31.8447 -1.14467 31.516 -0.782 31.312C-0.419333 31.108 0 31.006 0.476 31.006C0.884 31.006 1.26933 31.0853 1.632 31.244C2.01733 31.4253 2.414 31.72 2.822 32.128L3.672 33.012C4.05733 32.4907 4.318 31.9127 4.454 31.278C4.61267 30.666 4.692 29.8727 4.692 28.898C4.692 28.354 4.68067 27.64 4.658 26.756C4.658 25.8493 4.64667 24.6367 4.624 23.118C4.57867 20.942 4.54467 18.7773 4.522 16.624C4.49933 14.448 4.488 12.2607 4.488 10.062C4.488 9.518 4.216 9.212 3.672 9.144L2.142 8.974C1.598 8.906 1.326 8.634 1.326 8.158C1.326 7.65933 1.60933 7.41 2.176 7.41H10.54ZM21.5964 12.884C22.775 12.884 23.8517 13.1107 24.8264 13.564C25.801 13.9947 26.6284 14.5953 27.3084 15.366C28.011 16.114 28.5437 16.998 28.9064 18.018C29.2917 19.0153 29.4844 20.092 29.4844 21.248C29.4844 22.4267 29.2917 23.526 28.9064 24.546C28.5437 25.5433 28.0224 26.416 27.3424 27.164C26.6624 27.8893 25.835 28.4673 24.8604 28.898C23.8857 29.306 22.7977 29.51 21.5964 29.51C20.395 29.51 19.307 29.306 18.3324 28.898C17.3577 28.4673 16.5304 27.8893 15.8504 27.164C15.1704 26.416 14.6377 25.5433 14.2524 24.546C13.8897 23.526 13.7084 22.4267 13.7084 21.248C13.7084 20.092 13.8897 19.004 14.2524 17.984C14.6377 16.964 15.1704 16.08 15.8504 15.332C16.553 14.584 17.3804 13.9947 18.3324 13.564C19.307 13.1107 20.395 12.884 21.5964 12.884ZM21.5964 14.414C18.9897 14.414 17.6864 16.6807 17.6864 21.214C17.6864 25.702 18.9897 27.946 21.5964 27.946C24.203 27.946 25.5064 25.702 25.5064 21.214C25.5064 16.6807 24.203 14.414 21.5964 14.414ZM46.9309 26.688C46.9762 26.6427 47.1236 26.7333 47.3729 26.96C47.6449 27.232 47.6336 27.572 47.3389 27.98C46.9762 28.5013 46.5796 28.8527 46.1489 29.034C45.7182 29.238 45.2082 29.34 44.6189 29.34C43.6896 29.34 42.9529 29.1473 42.4089 28.762C41.8876 28.354 41.5249 27.8213 41.3209 27.164C40.5956 27.8893 39.8929 28.4673 39.2129 28.898C38.5329 29.306 37.6602 29.51 36.5949 29.51C35.3482 29.51 34.2942 29.17 33.4329 28.49C32.5942 27.81 32.1749 26.8127 32.1749 25.498C32.1749 24.614 32.4129 23.8547 32.8889 23.22C33.3876 22.5853 33.9996 22.0413 34.7249 21.588C35.4729 21.1347 36.2662 20.7607 37.1049 20.466C37.9436 20.1713 38.7256 19.922 39.4509 19.718L41.1849 19.208V18.324C41.1849 16.828 40.9582 15.808 40.5049 15.264C40.0742 14.6973 39.3262 14.414 38.2609 14.414C38.1476 14.414 38.0342 14.414 37.9209 14.414C37.8302 14.414 37.7282 14.4253 37.6149 14.448C37.1616 14.4707 36.8782 14.7427 36.7649 15.264L36.4589 16.658C36.1869 18.018 35.5069 18.698 34.4189 18.698C33.9656 18.698 33.5802 18.562 33.2629 18.29C32.9456 17.9953 32.7642 17.6213 32.7189 17.168C32.9229 15.8987 33.6029 14.8673 34.7589 14.074C35.9376 13.2807 37.4789 12.884 39.3829 12.884C41.2642 12.884 42.6356 13.3373 43.4969 14.244C44.3582 15.1507 44.7889 16.7487 44.7889 19.038V25.872C44.7889 26.892 45.1062 27.402 45.7409 27.402C46.0129 27.402 46.2622 27.3227 46.4889 27.164C46.6476 27.0507 46.7496 26.96 46.7949 26.892C46.8402 26.8013 46.8856 26.7333 46.9309 26.688ZM41.1849 25.838V20.568C40.6409 20.704 40.0516 20.874 39.4169 21.078C38.8049 21.282 38.2269 21.5427 37.6829 21.86C37.1389 22.1773 36.6856 22.574 36.3229 23.05C35.9602 23.5033 35.7789 24.0587 35.7789 24.716C35.7789 25.4867 36.0056 26.0873 36.4589 26.518C36.9349 26.9487 37.5582 27.164 38.3289 27.164C38.7822 27.164 39.2016 27.0733 39.5869 26.892C39.9949 26.7107 40.5276 26.3593 41.1849 25.838ZM64.8821 26.552C64.9048 27.028 65.1654 27.3227 65.6641 27.436L66.2421 27.538C66.7408 27.6513 66.9901 27.9233 66.9901 28.354C66.9901 28.7847 66.7068 29 66.1401 29H59.8841C59.3174 29 59.0341 28.7847 59.0341 28.354C59.0341 27.9233 59.2834 27.6627 59.7821 27.572L60.4621 27.436C60.9608 27.3227 61.2214 27.028 61.2441 26.552V19.14C61.2441 17.78 61.0741 16.8167 60.7341 16.25C60.4168 15.6607 59.8274 15.366 58.9661 15.366C58.2634 15.366 57.5834 15.536 56.9261 15.876C56.2914 16.216 55.6114 16.726 54.8861 17.406V26.552C54.9088 27.028 55.1694 27.3227 55.6681 27.436L56.2801 27.572C56.7788 27.6627 57.0281 27.9233 57.0281 28.354C57.0281 28.7847 56.7448 29 56.1781 29H49.8541C49.2874 29 49.0041 28.7847 49.0041 28.354C49.0041 27.946 49.2648 27.6853 49.7861 27.572L50.5001 27.436C50.9988 27.3227 51.2594 27.028 51.2821 26.552V20.398C51.2821 19.9447 51.2821 19.5367 51.2821 19.174C51.2821 18.8113 51.2708 18.494 51.2481 18.222C51.2254 18.0407 51.2141 17.8707 51.2141 17.712C51.2141 17.5533 51.2141 17.3833 51.2141 17.202C51.1688 16.6807 50.8968 16.386 50.3981 16.318L49.5821 16.216C49.0608 16.148 48.8001 15.91 48.8001 15.502C48.8001 15.1167 49.0268 14.8333 49.4801 14.652L53.4241 13.122C53.6281 13.0313 53.8321 12.986 54.0361 12.986C54.1721 12.986 54.2628 13.0087 54.3081 13.054C54.4894 13.1673 54.5914 13.428 54.6141 13.836L54.7841 15.842C55.6454 14.8447 56.5181 14.108 57.4021 13.632C58.2861 13.1333 59.2834 12.884 60.3941 12.884C61.8901 12.884 63.0121 13.3487 63.7601 14.278C64.5081 15.1847 64.8821 16.6807 64.8821 18.766V26.552ZM84.9368 26.552C84.9594 27.028 85.2201 27.3227 85.7188 27.436L86.2968 27.538C86.7954 27.6513 87.0448 27.9233 87.0448 28.354C87.0448 28.7847 86.7614 29 86.1948 29H79.9388C79.3721 29 79.0888 28.7847 79.0888 28.354C79.0888 27.9233 79.3381 27.6627 79.8368 27.572L80.5168 27.436C81.0154 27.3227 81.2761 27.028 81.2988 26.552V19.14C81.2988 17.78 81.1288 16.8167 80.7888 16.25C80.4714 15.6607 79.8821 15.366 79.0208 15.366C78.3181 15.366 77.6381 15.536 76.9808 15.876C76.3461 16.216 75.6661 16.726 74.9408 17.406V26.552C74.9634 27.028 75.2241 27.3227 75.7228 27.436L76.3348 27.572C76.8334 27.6627 77.0828 27.9233 77.0828 28.354C77.0828 28.7847 76.7994 29 76.2328 29H69.9088C69.3421 29 69.0588 28.7847 69.0588 28.354C69.0588 27.946 69.3194 27.6853 69.8408 27.572L70.5548 27.436C71.0534 27.3227 71.3141 27.028 71.3368 26.552V20.398C71.3368 19.9447 71.3368 19.5367 71.3368 19.174C71.3368 18.8113 71.3254 18.494 71.3028 18.222C71.2801 18.0407 71.2688 17.8707 71.2688 17.712C71.2688 17.5533 71.2688 17.3833 71.2688 17.202C71.2234 16.6807 70.9514 16.386 70.4528 16.318L69.6368 16.216C69.1154 16.148 68.8548 15.91 68.8548 15.502C68.8548 15.1167 69.0814 14.8333 69.5348 14.652L73.4788 13.122C73.6828 13.0313 73.8868 12.986 74.0908 12.986C74.2268 12.986 74.3174 13.0087 74.3628 13.054C74.5441 13.1673 74.6461 13.428 74.6688 13.836L74.8388 15.842C75.7001 14.8447 76.5728 14.108 77.4568 13.632C78.3408 13.1333 79.3381 12.884 80.4488 12.884C81.9448 12.884 83.0668 13.3487 83.8148 14.278C84.5628 15.1847 84.9368 16.6807 84.9368 18.766V26.552ZM104.073 20.058C103.983 20.5567 103.665 20.806 103.121 20.806H93.2615C93.3068 22.8687 93.8055 24.4213 94.7575 25.464C95.7095 26.5067 96.9448 27.028 98.4635 27.028C99.3475 27.028 100.095 26.8693 100.707 26.552C101.342 26.212 101.92 25.7473 102.441 25.158C102.691 24.886 102.929 24.75 103.155 24.75C103.269 24.75 103.371 24.784 103.461 24.852C103.801 25.0787 103.847 25.4187 103.597 25.872C103.008 27.028 102.158 27.912 101.047 28.524C99.9368 29.136 98.6335 29.442 97.1375 29.442C95.8681 29.442 94.7348 29.2267 93.7375 28.796C92.7628 28.3653 91.9355 27.776 91.2555 27.028C90.5981 26.2573 90.0995 25.3507 89.7595 24.308C89.4195 23.2653 89.2495 22.132 89.2495 20.908C89.2495 19.7293 89.4421 18.6073 89.8275 17.542C90.2128 16.4767 90.7568 15.5473 91.4595 14.754C92.1848 13.938 93.0461 13.3033 94.0435 12.85C95.0635 12.374 96.1855 12.136 97.4095 12.136C98.4295 12.136 99.3475 12.306 100.163 12.646C101.002 12.986 101.716 13.462 102.305 14.074C102.895 14.6633 103.348 15.3773 103.665 16.216C103.983 17.0547 104.141 17.984 104.141 19.004C104.141 19.1853 104.141 19.3667 104.141 19.548C104.141 19.7067 104.119 19.8767 104.073 20.058ZM93.3295 19.242H98.4295C99.2455 19.242 99.7895 19.072 100.061 18.732C100.356 18.392 100.503 17.916 100.503 17.304C100.503 16.284 100.209 15.434 99.6195 14.754C99.0528 14.074 98.3388 13.734 97.4775 13.734C96.7748 13.734 96.1628 13.9153 95.6415 14.278C95.1428 14.618 94.7235 15.06 94.3835 15.604C94.0661 16.148 93.8168 16.7487 93.6355 17.406C93.4768 18.0407 93.3748 18.6527 93.3295 19.242ZM121.996 20.568H121.214V23.866C121.214 24.274 121.214 24.6933 121.214 25.124C121.237 25.532 121.248 25.9627 121.248 26.416C121.271 26.9147 121.543 27.198 122.064 27.266L123.458 27.402C124.002 27.47 124.274 27.7533 124.274 28.252C124.274 28.7507 123.991 29 123.424 29H115.23C114.664 29 114.38 28.7507 114.38 28.252C114.38 27.7533 114.652 27.4813 115.196 27.436L116.42 27.3C116.942 27.232 117.214 26.9373 117.236 26.416C117.236 25.872 117.236 25.328 117.236 24.784C117.259 24.2173 117.27 23.6507 117.27 23.084V13.36C117.27 12.7933 117.259 12.238 117.236 11.694C117.236 11.1273 117.236 10.5607 117.236 9.994C117.191 9.47267 116.919 9.178 116.42 9.11L115.196 8.974C114.652 8.906 114.38 8.634 114.38 8.158C114.38 7.65933 114.664 7.41 115.23 7.41H123.186C124.252 7.41 125.306 7.512 126.348 7.716C127.391 7.89733 128.32 8.23733 129.136 8.736C129.975 9.212 130.644 9.86933 131.142 10.708C131.664 11.524 131.924 12.5667 131.924 13.836C131.924 15.2187 131.618 16.352 131.006 17.236C130.394 18.0973 129.601 18.7773 128.626 19.276C127.674 19.7747 126.609 20.1147 125.43 20.296C124.274 20.4773 123.13 20.568 121.996 20.568ZM122.744 9.076H121.282C121.26 9.77867 121.237 10.47 121.214 11.15C121.214 11.83 121.214 12.5327 121.214 13.258V18.902H122.506C124.456 18.902 125.872 18.4373 126.756 17.508C127.64 16.5787 128.082 15.3773 128.082 13.904C128.082 12.34 127.652 11.15 126.79 10.334C125.952 9.49533 124.603 9.076 122.744 9.076ZM137.746 29.51C137.021 29.51 136.398 29.2493 135.876 28.728C135.355 28.2067 135.094 27.5833 135.094 26.858C135.094 26.1327 135.355 25.5093 135.876 24.988C136.398 24.4667 137.021 24.206 137.746 24.206C138.472 24.206 139.095 24.4667 139.616 24.988C140.138 25.5093 140.398 26.1327 140.398 26.858C140.398 27.5833 140.138 28.2067 139.616 28.728C139.095 29.2493 138.472 29.51 137.746 29.51Z" transform="translate(2 -7)" fill="#ADE4FF" fill-opacity="0.8"/>
</svg>
