<svg width="116" height="25" viewBox="0 0 116 25" fill="none" xmlns="http://www.w3.org/2000/svg">
<path d="M28.424 8.158C28.424 8.65667 28.152 8.94 27.608 9.008L26.418 9.144C25.8967 9.212 25.6247 9.49533 25.602 9.994C25.602 10.5607 25.5907 11.116 25.568 11.66C25.568 12.204 25.568 12.7593 25.568 13.326V23.05C25.568 23.6167 25.568 24.1833 25.568 24.75C25.5907 25.294 25.602 25.8493 25.602 26.416C25.6473 26.9827 25.9193 27.2773 26.418 27.3L27.608 27.436C28.152 27.504 28.424 27.776 28.424 28.252C28.424 28.7507 28.1407 29 27.574 29H19.72C19.1533 29 18.87 28.7507 18.87 28.252C18.87 27.776 19.142 27.504 19.686 27.436L20.808 27.334C21.3293 27.266 21.59 26.9713 21.59 26.45C21.6127 25.8833 21.624 25.328 21.624 24.784C21.624 24.2173 21.624 23.6507 21.624 23.084V12.578L14.246 29H13.056L5.61 12.51V26.314C5.61 26.8353 5.87067 27.13 6.392 27.198L7.718 27.402C8.23933 27.47 8.5 27.7533 8.5 28.252C8.5 28.7507 8.21667 29 7.65 29H1.7C1.13333 29 0.85 28.7507 0.85 28.252C0.85 27.7533 1.11067 27.47 1.632 27.402L3.094 27.198C3.61533 27.13 3.876 26.8353 3.876 26.314V10.062C3.876 9.518 3.61533 9.212 3.094 9.144L1.836 9.008C1.31467 8.94 1.054 8.65667 1.054 8.158C1.054 7.65933 1.33733 7.41 1.904 7.41H7.242L14.756 23.798L21.93 8.056C22.134 7.62533 22.474 7.41 22.95 7.41H27.574C28.1407 7.41 28.424 7.65933 28.424 8.158ZM45.9016 26.688C45.9469 26.6427 46.0943 26.7333 46.3436 26.96C46.6156 27.232 46.6043 27.572 46.3096 27.98C45.9469 28.5013 45.5503 28.8527 45.1196 29.034C44.6889 29.238 44.1789 29.34 43.5896 29.34C42.6603 29.34 41.9236 29.1473 41.3796 28.762C40.8583 28.354 40.4956 27.8213 40.2916 27.164C39.5663 27.8893 38.8636 28.4673 38.1836 28.898C37.5036 29.306 36.6309 29.51 35.5656 29.51C34.3189 29.51 33.2649 29.17 32.4036 28.49C31.5649 27.81 31.1456 26.8127 31.1456 25.498C31.1456 24.614 31.3836 23.8547 31.8596 23.22C32.3583 22.5853 32.9703 22.0413 33.6956 21.588C34.4436 21.1347 35.2369 20.7607 36.0756 20.466C36.9143 20.1713 37.6963 19.922 38.4216 19.718L40.1556 19.208V18.324C40.1556 16.828 39.9289 15.808 39.4756 15.264C39.0449 14.6973 38.2969 14.414 37.2316 14.414C37.1183 14.414 37.0049 14.414 36.8916 14.414C36.8009 14.414 36.6989 14.4253 36.5856 14.448C36.1323 14.4707 35.8489 14.7427 35.7356 15.264L35.4296 16.658C35.1576 18.018 34.4776 18.698 33.3896 18.698C32.9363 18.698 32.5509 18.562 32.2336 18.29C31.9163 17.9953 31.7349 17.6213 31.6896 17.168C31.8936 15.8987 32.5736 14.8673 33.7296 14.074C34.9083 13.2807 36.4496 12.884 38.3536 12.884C40.2349 12.884 41.6063 13.3373 42.4676 14.244C43.3289 15.1507 43.7596 16.7487 43.7596 19.038V25.872C43.7596 26.892 44.0769 27.402 44.7116 27.402C44.9836 27.402 45.2329 27.3227 45.4596 27.164C45.6183 27.0507 45.7203 26.96 45.7656 26.892C45.8109 26.8013 45.8563 26.7333 45.9016 26.688ZM40.1556 25.838V20.568C39.6116 20.704 39.0223 20.874 38.3876 21.078C37.7756 21.282 37.1976 21.5427 36.6536 21.86C36.1096 22.1773 35.6563 22.574 35.2936 23.05C34.9309 23.5033 34.7496 24.0587 34.7496 24.716C34.7496 25.4867 34.9763 26.0873 35.4296 26.518C35.9056 26.9487 36.5289 27.164 37.2996 27.164C37.7529 27.164 38.1723 27.0733 38.5576 26.892C38.9656 26.7107 39.4983 26.3593 40.1556 25.838ZM53.2788 13.054C53.3695 13.122 53.4375 13.2127 53.4828 13.326C53.5281 13.4393 53.5621 13.6207 53.5848 13.87L53.8228 16.692C54.4348 15.4907 55.1375 14.5613 55.9308 13.904C56.7468 13.224 57.5741 12.884 58.4128 12.884C58.8661 12.884 59.3308 13.02 59.8068 13.292C60.2828 13.564 60.5888 14.0287 60.7248 14.686C60.7248 15.3207 60.5321 15.8307 60.1468 16.216C59.7615 16.5787 59.2401 16.76 58.5828 16.76C57.8121 16.76 57.0868 16.4087 56.4068 15.706L56.2368 15.536C55.7381 15.9893 55.2848 16.4993 54.8768 17.066C54.4915 17.61 54.1515 18.2673 53.8568 19.038V26.45C53.8795 26.9713 54.1401 27.2773 54.6388 27.368L55.7268 27.572C56.2481 27.6853 56.5088 27.946 56.5088 28.354C56.5088 28.7847 56.2255 29 55.6588 29H48.8588C48.2921 29 48.0088 28.7847 48.0088 28.354C48.0088 27.946 48.2695 27.6853 48.7908 27.572L49.4708 27.436C49.9695 27.3227 50.2301 27.028 50.2528 26.552V20.398C50.2528 19.9447 50.2528 19.5367 50.2528 19.174C50.2528 18.8113 50.2415 18.494 50.2188 18.222C50.1961 18.0407 50.1848 17.8707 50.1848 17.712C50.1848 17.5533 50.1848 17.3833 50.1848 17.202C50.1395 16.6807 49.8675 16.386 49.3688 16.318L48.5528 16.216C48.0315 16.148 47.7708 15.91 47.7708 15.502C47.7708 15.1167 47.9975 14.8333 48.4508 14.652L52.3948 13.122C52.5988 13.0313 52.7915 12.986 52.9728 12.986C53.1088 12.986 53.2108 13.0087 53.2788 13.054ZM77.1765 26.688C77.4032 27.0507 77.7092 27.2773 78.0945 27.368L78.9785 27.538C79.4772 27.6513 79.7265 27.9233 79.7265 28.354C79.7265 28.7847 79.4432 29 78.8765 29H75.1025C74.6719 29 74.3319 28.8073 74.0825 28.422L69.7305 21.18L67.8945 23.05C67.8945 23.594 67.8945 24.1607 67.8945 24.75C67.9172 25.3393 67.9285 25.9287 67.9285 26.518C67.9739 27.0393 68.2345 27.3453 68.7105 27.436L69.4585 27.572C69.9799 27.6853 70.2405 27.946 70.2405 28.354C70.2405 28.7847 69.9572 29 69.3905 29H62.8625C62.2959 29 62.0125 28.7847 62.0125 28.354C62.0125 27.946 62.2732 27.6853 62.7945 27.572L63.5425 27.436C64.0412 27.3453 64.2905 27.0393 64.2905 26.518C64.3132 25.7927 64.3245 25.056 64.3245 24.308C64.3472 23.5373 64.3585 22.8233 64.3585 22.166V9.178C64.3585 8.65667 64.0979 8.362 63.5765 8.294L62.5565 8.158C62.0352 8.09 61.7745 7.852 61.7745 7.444C61.7745 7.036 62.0125 6.764 62.4885 6.628L66.9425 5.472C67.0559 5.42667 67.1465 5.404 67.2145 5.404C67.3052 5.404 67.3959 5.404 67.4865 5.404C67.6452 5.404 67.7472 5.42667 67.7925 5.472C67.9285 5.56267 67.9965 5.83467 67.9965 6.288L67.8945 10.232V21.044L72.7905 16.114C73.0399 15.8647 73.1305 15.638 73.0625 15.434C73.0172 15.2073 72.8359 15.0713 72.5185 15.026L72.0765 14.958C71.5552 14.89 71.2945 14.618 71.2945 14.142C71.2945 13.6887 71.5779 13.462 72.1445 13.462H77.9245C78.4912 13.462 78.7745 13.6887 78.7745 14.142C78.7745 14.618 78.5139 14.89 77.9925 14.958L76.3265 15.196C75.9639 15.264 75.6352 15.4227 75.3405 15.672L72.2805 18.664L77.1765 26.688ZM104.053 23.9C104.121 23.3787 104.427 23.118 104.971 23.118H105.651C106.195 23.118 106.467 23.4013 106.467 23.968L106.399 27.3C106.399 27.7533 106.195 28.082 105.787 28.286C104.88 28.6713 103.928 28.966 102.931 29.17C101.956 29.3967 100.925 29.51 99.837 29.51C98.137 29.51 96.5843 29.2493 95.179 28.728C93.7963 28.184 92.6063 27.4247 91.609 26.45C90.6343 25.4527 89.875 24.2627 89.331 22.88C88.787 21.4747 88.515 19.922 88.515 18.222C88.515 16.522 88.7983 14.9807 89.365 13.598C89.9317 12.1927 90.7137 11.0027 91.711 10.028C92.731 9.03067 93.9437 8.26 95.349 7.716C96.7543 7.172 98.2957 6.9 99.973 6.9C100.857 6.9 101.752 6.99067 102.659 7.172C103.588 7.35333 104.529 7.682 105.481 8.158C105.889 8.38467 106.093 8.72467 106.093 9.178L106.161 12.51C106.161 13.0767 105.889 13.36 105.345 13.36H104.665C104.121 13.36 103.815 13.0993 103.747 12.578L103.305 9.994C103.26 9.67667 103.112 9.43867 102.863 9.28C102.636 9.09867 102.364 8.96267 102.047 8.872C101.73 8.75867 101.401 8.69067 101.061 8.668C100.721 8.64533 100.426 8.634 100.177 8.634C98.8623 8.634 97.7403 8.91733 96.811 9.484C95.8817 10.0507 95.1223 10.7987 94.533 11.728C93.9437 12.6347 93.513 13.666 93.241 14.822C92.969 15.9553 92.833 17.0887 92.833 18.222C92.833 19.3553 92.9577 20.5 93.207 21.656C93.479 22.7893 93.8983 23.8093 94.465 24.716C95.0317 25.6227 95.7683 26.3593 96.675 26.926C97.6043 27.4927 98.7377 27.776 100.075 27.776C101.004 27.776 101.945 27.6173 102.897 27.3C103.328 27.164 103.577 26.858 103.645 26.382L104.053 23.9ZM112.844 29.51C112.119 29.51 111.495 29.2493 110.974 28.728C110.453 28.2067 110.192 27.5833 110.192 26.858C110.192 26.1327 110.453 25.5093 110.974 24.988C111.495 24.4667 112.119 24.206 112.844 24.206C113.569 24.206 114.193 24.4667 114.714 24.988C115.235 25.5093 115.496 26.1327 115.496 26.858C115.496 27.5833 115.235 28.2067 114.714 28.728C114.193 29.2493 113.569 29.51 112.844 29.51Z" transform="translate(0 -5)" fill="#ADE4FF" fill-opacity="0.8"/>
</svg>
