<svg width="375" height="74" viewBox="0 0 375 74" fill="none" xmlns="http://www.w3.org/2000/svg">
<path d="M29.38 67.976H26.781V78.937C26.781 80.293 26.781 81.6867 26.781 83.118C26.8563 84.474 26.894 85.9053 26.894 87.412C26.9693 89.0693 27.8733 90.011 29.606 90.237L34.239 90.689C36.047 90.915 36.951 91.8567 36.951 93.514C36.951 95.1713 36.0093 96 34.126 96H6.893C5.00967 96 4.068 95.1713 4.068 93.514C4.068 91.8567 4.972 90.9527 6.78 90.802L10.848 90.35C12.5807 90.124 13.4847 89.1447 13.56 87.412C13.56 85.604 13.56 83.796 13.56 81.988C13.6353 80.1047 13.673 78.2213 13.673 76.338V44.02C13.673 42.1367 13.6353 40.291 13.56 38.483C13.56 36.5997 13.56 34.7163 13.56 32.833C13.4093 31.1003 12.5053 30.121 10.848 29.895L6.78 29.443C4.972 29.217 4.068 28.313 4.068 26.731C4.068 25.0737 5.00967 24.245 6.893 24.245H33.335C36.8757 24.245 40.3787 24.584 43.844 25.262C47.3093 25.8647 50.398 26.9947 53.11 28.652C55.8973 30.234 58.1197 32.4187 59.777 35.206C61.5097 37.918 62.376 41.3833 62.376 45.602C62.376 50.1973 61.359 53.964 59.325 56.902C57.291 59.7647 54.6543 62.0247 51.415 63.682C48.251 65.3393 44.7103 66.4693 40.793 67.072C36.951 67.6747 33.1467 67.976 29.38 67.976ZM31.866 29.782H27.007C26.9317 32.1173 26.8563 34.415 26.781 36.675C26.781 38.935 26.781 41.2703 26.781 43.681V62.439H31.075C37.5537 62.439 42.262 60.8947 45.2 57.806C48.138 54.7173 49.607 50.7247 49.607 45.828C49.607 40.63 48.1757 36.675 45.313 33.963C42.5257 31.1757 38.0433 29.782 31.866 29.782ZM86.5854 43.003C86.8867 43.229 87.1127 43.5303 87.2634 43.907C87.414 44.2837 87.527 44.8863 87.6024 45.715L88.3934 55.094C90.4274 51.1013 92.7627 48.0127 95.3994 45.828C98.1114 43.568 100.861 42.438 103.648 42.438C105.155 42.438 106.699 42.89 108.281 43.794C109.863 44.698 110.88 46.2423 111.332 48.427C111.332 50.5363 110.692 52.2313 109.411 53.512C108.131 54.7173 106.398 55.32 104.213 55.32C101.652 55.32 99.2414 54.1523 96.9814 51.817L96.4164 51.252C94.759 52.7587 93.2524 54.4537 91.8964 56.337C90.6157 58.145 89.4857 60.3297 88.5064 62.891V87.525C88.5817 89.2577 89.448 90.2747 91.1054 90.576L94.7214 91.254C96.454 91.6307 97.3204 92.497 97.3204 93.853C97.3204 95.2843 96.3787 96 94.4954 96H71.8954C70.012 96 69.0704 95.2843 69.0704 93.853C69.0704 92.497 69.9367 91.6307 71.6694 91.254L73.9294 90.802C75.5867 90.4253 76.453 89.446 76.5284 87.864V67.411C76.5284 65.9043 76.5284 64.5483 76.5284 63.343C76.5284 62.1377 76.4907 61.083 76.4154 60.179C76.34 59.5763 76.3024 59.0113 76.3024 58.484C76.3024 57.9567 76.3024 57.3917 76.3024 56.789C76.1517 55.0563 75.2477 54.077 73.5904 53.851L70.8784 53.512C69.1457 53.286 68.2794 52.495 68.2794 51.139C68.2794 49.8583 69.0327 48.9167 70.5394 48.314L83.6474 43.229C84.3254 42.9277 84.9657 42.777 85.5684 42.777C86.0204 42.777 86.3594 42.8523 86.5854 43.003ZM142.732 42.438C146.65 42.438 150.228 43.1913 153.467 44.698C156.707 46.1293 159.456 48.1257 161.716 50.687C164.052 53.173 165.822 56.111 167.027 59.501C168.308 62.8157 168.948 66.394 168.948 70.236C168.948 74.1533 168.308 77.807 167.027 81.197C165.822 84.5117 164.089 87.412 161.829 89.898C159.569 92.3087 156.82 94.2297 153.58 95.661C150.341 97.017 146.725 97.695 142.732 97.695C138.74 97.695 135.124 97.017 131.884 95.661C128.645 94.2297 125.895 92.3087 123.635 89.898C121.375 87.412 119.605 84.5117 118.324 81.197C117.119 77.807 116.516 74.1533 116.516 70.236C116.516 66.394 117.119 62.778 118.324 59.388C119.605 55.998 121.375 53.06 123.635 50.574C125.971 48.088 128.72 46.1293 131.884 44.698C135.124 43.1913 138.74 42.438 142.732 42.438ZM142.732 47.523C134.069 47.523 129.737 55.0563 129.737 70.123C129.737 85.039 134.069 92.497 142.732 92.497C151.396 92.497 155.727 85.039 155.727 70.123C155.727 55.0563 151.396 47.523 142.732 47.523ZM219.135 83.909C219.964 82.779 220.755 82.214 221.508 82.214C221.734 82.214 221.998 82.2893 222.299 82.44C223.429 83.118 223.655 84.248 222.977 85.83C221.245 89.672 218.608 92.61 215.067 94.644C211.602 96.678 207.496 97.695 202.75 97.695C198.682 97.695 195.066 97.017 191.902 95.661C188.738 94.2297 186.064 92.3087 183.879 89.898C181.77 87.412 180.15 84.5117 179.02 81.197C177.966 77.807 177.438 74.1533 177.438 70.236C177.438 66.394 178.079 62.778 179.359 59.388C180.64 55.998 182.448 53.06 184.783 50.574C187.119 48.0127 189.906 46.0163 193.145 44.585C196.385 43.1537 200.001 42.438 203.993 42.438C206.253 42.438 208.476 42.7393 210.66 43.342C212.92 43.9447 214.954 44.8863 216.762 46.167C218.646 47.3723 220.228 48.9167 221.508 50.8C222.789 52.608 223.542 54.7173 223.768 57.128C223.241 60.2167 221.32 61.761 218.005 61.761C214.163 61.761 211.941 59.4257 211.338 54.755L210.547 50.461C210.246 49.105 209.606 48.2763 208.626 47.975C207.722 47.6737 206.705 47.523 205.575 47.523C202.788 47.523 200.415 48.201 198.456 49.557C196.498 50.8377 194.916 52.5327 193.71 54.642C192.505 56.676 191.601 58.9737 190.998 61.535C190.471 64.021 190.207 66.4317 190.207 68.767C190.207 75.8483 191.752 81.1593 194.84 84.7C197.929 88.2407 201.884 90.011 206.705 90.011C211.828 90.011 215.971 87.977 219.135 83.909ZM281.005 66.281C280.703 67.9383 279.649 68.767 277.841 68.767H245.071C245.221 75.6223 246.879 80.7827 250.043 84.248C253.207 87.7133 257.312 89.446 262.36 89.446C265.298 89.446 267.784 88.9187 269.818 87.864C271.927 86.734 273.848 85.1897 275.581 83.231C276.409 82.327 277.2 81.875 277.954 81.875C278.33 81.875 278.669 81.988 278.971 82.214C280.101 82.9673 280.251 84.0973 279.423 85.604C277.464 89.446 274.639 92.384 270.948 94.418C267.256 96.452 262.925 97.469 257.953 97.469C253.734 97.469 249.967 96.7533 246.653 95.322C243.413 93.8907 240.664 91.932 238.404 89.446C236.219 86.8847 234.562 83.8713 233.432 80.406C232.302 76.9407 231.737 73.174 231.737 69.106C231.737 65.1887 232.377 61.4597 233.658 57.919C234.938 54.3783 236.746 51.2897 239.082 48.653C241.492 45.941 244.355 43.8317 247.67 42.325C251.06 40.743 254.789 39.952 258.857 39.952C262.247 39.952 265.298 40.517 268.01 41.647C270.797 42.777 273.17 44.359 275.129 46.393C277.087 48.3517 278.594 50.7247 279.649 53.512C280.703 56.2993 281.231 59.388 281.231 62.778C281.231 63.3807 281.231 63.9833 281.231 64.586C281.231 65.1133 281.155 65.6783 281.005 66.281ZM245.297 63.569H262.247C264.959 63.569 266.767 63.004 267.671 61.874C268.65 60.744 269.14 59.162 269.14 57.128C269.14 53.738 268.16 50.913 266.202 48.653C264.318 46.393 261.945 45.263 259.083 45.263C256.747 45.263 254.713 45.8657 252.981 47.071C251.323 48.201 249.93 49.67 248.8 51.478C247.745 53.286 246.916 55.2823 246.314 57.467C245.786 59.5763 245.447 61.6103 245.297 63.569ZM312.368 63.682L315.984 64.925C318.772 65.9797 321.069 67.1097 322.877 68.315C324.761 69.445 326.305 70.6503 327.51 71.931C328.565 73.287 329.318 74.756 329.77 76.338C330.222 77.8447 330.448 79.4643 330.448 81.197C330.448 84.2103 329.77 86.7717 328.414 88.881C327.134 90.915 325.439 92.61 323.329 93.966C321.22 95.2467 318.847 96.1883 316.21 96.791C313.649 97.3937 311.088 97.695 308.526 97.695C305.362 97.695 302.575 97.356 300.164 96.678C297.754 96.0753 295.343 95.1713 292.932 93.966C291.576 93.3633 290.898 92.271 290.898 90.689L290.785 83.57C290.785 81.6867 291.689 80.745 293.497 80.745H295.305C296.963 80.745 297.98 81.6113 298.356 83.344L299.26 88.09C299.486 89.5967 300.277 90.576 301.633 91.028C303.893 91.932 306.229 92.384 308.639 92.384C312.481 92.384 315.269 91.706 317.001 90.35C318.734 88.994 319.6 87.1107 319.6 84.7C319.6 82.5153 318.847 80.8203 317.34 79.615C315.834 78.3343 313.159 76.9407 309.317 75.434L304.345 73.626C300.127 71.8933 296.887 69.8217 294.627 67.411C292.367 65.0003 291.237 61.9117 291.237 58.145C291.237 55.2823 291.84 52.8717 293.045 50.913C294.251 48.9543 295.833 47.3347 297.791 46.054C299.75 44.7733 301.935 43.8693 304.345 43.342C306.756 42.7393 309.204 42.438 311.69 42.438C314.327 42.438 316.738 42.7393 318.922 43.342C321.107 43.8693 323.292 44.6603 325.476 45.715C326.908 46.393 327.586 47.523 327.51 49.105L327.171 55.433C327.096 57.241 326.154 58.145 324.346 58.145H322.651C320.919 58.145 319.902 57.3163 319.6 55.659L318.809 51.478C318.508 49.896 317.679 48.9167 316.323 48.54C314.741 47.9373 313.084 47.636 311.351 47.636C308.338 47.636 306.003 48.2763 304.345 49.557C302.763 50.8377 301.972 52.6833 301.972 55.094C301.972 56.902 302.688 58.4463 304.119 59.727C304.873 60.3297 305.927 60.97 307.283 61.648C308.715 62.326 310.41 63.004 312.368 63.682ZM361.144 63.682L364.76 64.925C367.547 65.9797 369.845 67.1097 371.653 68.315C373.536 69.445 375.08 70.6503 376.286 71.931C377.34 73.287 378.094 74.756 378.546 76.338C378.998 77.8447 379.224 79.4643 379.224 81.197C379.224 84.2103 378.546 86.7717 377.19 88.881C375.909 90.915 374.214 92.61 372.105 93.966C369.995 95.2467 367.622 96.1883 364.986 96.791C362.424 97.3937 359.863 97.695 357.302 97.695C354.138 97.695 351.35 97.356 348.94 96.678C346.529 96.0753 344.118 95.1713 341.708 93.966C340.352 93.3633 339.674 92.271 339.674 90.689L339.561 83.57C339.561 81.6867 340.465 80.745 342.273 80.745H344.081C345.738 80.745 346.755 81.6113 347.132 83.344L348.036 88.09C348.262 89.5967 349.053 90.576 350.409 91.028C352.669 91.932 355.004 92.384 357.415 92.384C361.257 92.384 364.044 91.706 365.777 90.35C367.509 88.994 368.376 87.1107 368.376 84.7C368.376 82.5153 367.622 80.8203 366.116 79.615C364.609 78.3343 361.935 76.9407 358.093 75.434L353.121 73.626C348.902 71.8933 345.663 69.8217 343.403 67.411C341.143 65.0003 340.013 61.9117 340.013 58.145C340.013 55.2823 340.615 52.8717 341.821 50.913C343.026 48.9543 344.608 47.3347 346.567 46.054C348.525 44.7733 350.71 43.8693 353.121 43.342C355.531 42.7393 357.98 42.438 360.466 42.438C363.102 42.438 365.513 42.7393 367.698 43.342C369.882 43.8693 372.067 44.6603 374.252 45.715C375.683 46.393 376.361 47.523 376.286 49.105L375.947 55.433C375.871 57.241 374.93 58.145 373.122 58.145H371.427C369.694 58.145 368.677 57.3163 368.376 55.659L367.585 51.478C367.283 49.896 366.455 48.9167 365.099 48.54C363.517 47.9373 361.859 47.636 360.127 47.636C357.113 47.636 354.778 48.2763 353.121 49.557C351.539 50.8377 350.748 52.6833 350.748 55.094C350.748 56.902 351.463 58.4463 352.895 59.727C353.648 60.3297 354.703 60.97 356.059 61.648C357.49 62.326 359.185 63.004 361.144 63.682Z" transform="translate(-5 -24.0007)" fill="#ADE4FF" fill-opacity="0.8"/>
</svg>
