<svg width="309" height="20" viewBox="0 0 309 20" fill="none" xmlns="http://www.w3.org/2000/svg">
<path d="M8.8 6H11.4V15.04C11.4 15.9467 11.28 16.7267 11.04 17.38C10.8 18.0333 10.4667 18.5733 10.04 19C9.61333 19.4267 9.09333 19.74 8.48 19.94C7.86667 20.14 7.19333 20.24 6.46 20.24C2.91333 20.24 1.14 18.62 1.14 15.38V6H3.88V14.84C3.88 15.3867 3.92667 15.8533 4.02 16.24C4.12667 16.6133 4.28667 16.92 4.5 17.16C4.71333 17.3867 4.98 17.5533 5.3 17.66C5.62 17.7533 5.99333 17.8 6.42 17.8C7.26 17.8 7.86667 17.5667 8.24 17.1C8.61333 16.6333 8.8 15.88 8.8 14.84V6ZM17.0391 12.88L13.1391 6H16.4391L18.5991 10.04L19.0791 11.46L19.5391 10.04L21.7991 6H24.7791L20.7391 12.74L24.9791 20H21.7191L19.2591 15.68L18.7191 14.2L18.1991 15.68L15.7191 20H12.7391L17.0391 12.88ZM30.8484 6C31.1284 5.96 31.4418 5.92667 31.7884 5.9C32.1484 5.87333 32.5151 5.85333 32.8884 5.84C33.2618 5.82667 33.6218 5.82 33.9684 5.82C34.3284 5.80667 34.6484 5.8 34.9284 5.8C36.1684 5.8 37.2284 5.97333 38.1084 6.32C38.9884 6.66667 39.7018 7.15333 40.2484 7.78C40.7951 8.40667 41.1951 9.15333 41.4484 10.02C41.7018 10.8867 41.8284 11.84 41.8284 12.88C41.8284 13.8267 41.7084 14.74 41.4684 15.62C41.2284 16.5 40.8284 17.28 40.2684 17.96C39.7084 18.64 38.9684 19.1867 38.0484 19.6C37.1418 20.0133 36.0151 20.22 34.6684 20.22C34.4551 20.22 34.1684 20.2133 33.8084 20.2C33.4618 20.1867 33.0951 20.1667 32.7084 20.14C32.3351 20.1267 31.9751 20.1067 31.6284 20.08C31.2818 20.0667 31.0218 20.0467 30.8484 20.02V6ZM35.1484 8.24C34.8551 8.24 34.5551 8.24667 34.2484 8.26C33.9551 8.27333 33.7351 8.29333 33.5884 8.32V17.7C33.6418 17.7133 33.7284 17.7267 33.8484 17.74C33.9818 17.74 34.1218 17.7467 34.2684 17.76C34.4151 17.76 34.5551 17.7667 34.6884 17.78C34.8218 17.78 34.9218 17.78 34.9884 17.78C35.7618 17.78 36.4018 17.6467 36.9084 17.38C37.4284 17.1 37.8351 16.7333 38.1284 16.28C38.4351 15.8267 38.6484 15.3067 38.7684 14.72C38.8884 14.12 38.9484 13.5067 38.9484 12.88C38.9484 12.3333 38.8951 11.7867 38.7884 11.24C38.6818 10.68 38.4818 10.18 38.1884 9.74C37.9084 9.3 37.5218 8.94 37.0284 8.66C36.5351 8.38 35.9084 8.24 35.1484 8.24ZM51.7377 19.14C51.3377 19.46 50.791 19.7333 50.0977 19.96C49.4177 20.1733 48.691 20.28 47.9177 20.28C46.3043 20.28 45.1243 19.8133 44.3777 18.88C43.631 17.9333 43.2577 16.64 43.2577 15C43.2577 13.24 43.6777 11.92 44.5177 11.04C45.3577 10.16 46.5377 9.72 48.0577 9.72C48.5643 9.72 49.0577 9.78667 49.5377 9.92C50.0177 10.0533 50.4443 10.2733 50.8177 10.58C51.191 10.8867 51.491 11.3 51.7177 11.82C51.9443 12.34 52.0577 12.9867 52.0577 13.76C52.0577 14.04 52.0377 14.34 51.9977 14.66C51.971 14.98 51.9243 15.3133 51.8577 15.66H45.8577C45.8977 16.5 46.111 17.1333 46.4977 17.56C46.8977 17.9867 47.5377 18.2 48.4177 18.2C48.9643 18.2 49.451 18.12 49.8777 17.96C50.3177 17.7867 50.651 17.6133 50.8777 17.44L51.7377 19.14ZM48.0177 11.8C47.3377 11.8 46.831 12.0067 46.4977 12.42C46.1777 12.82 45.9843 13.36 45.9177 14.04H49.6377C49.691 13.32 49.5777 12.7667 49.2977 12.38C49.031 11.9933 48.6043 11.8 48.0177 11.8ZM58.0339 17.24C58.0339 16.9733 57.9206 16.76 57.6939 16.6C57.4672 16.44 57.1872 16.2933 56.8539 16.16C56.5206 16.0267 56.1539 15.8933 55.7539 15.76C55.3539 15.6133 54.9872 15.42 54.6539 15.18C54.3206 14.9267 54.0406 14.6133 53.8139 14.24C53.5872 13.8533 53.4739 13.36 53.4739 12.76C53.4739 11.7733 53.7672 11.02 54.3539 10.5C54.9406 9.98 55.7872 9.72 56.8939 9.72C57.6539 9.72 58.3406 9.8 58.9539 9.96C59.5672 10.12 60.0472 10.3 60.3939 10.5L59.8139 12.38C59.5072 12.26 59.1206 12.1333 58.6539 12C58.1872 11.8667 57.7139 11.8 57.2339 11.8C56.4606 11.8 56.0739 12.1 56.0739 12.7C56.0739 12.94 56.1872 13.1333 56.4139 13.28C56.6406 13.4267 56.9206 13.5667 57.2539 13.7C57.5872 13.82 57.9539 13.9533 58.3539 14.1C58.7539 14.2467 59.1206 14.44 59.4539 14.68C59.7872 14.9067 60.0672 15.2067 60.2939 15.58C60.5206 15.9533 60.6339 16.4333 60.6339 17.02C60.6339 18.0333 60.3072 18.8333 59.6539 19.42C59.0139 19.9933 58.0472 20.28 56.7539 20.28C56.0472 20.28 55.3806 20.1867 54.7539 20C54.1406 19.8267 53.6406 19.62 53.2539 19.38L53.9739 17.44C54.2806 17.6133 54.6872 17.7867 55.1939 17.96C55.7006 18.12 56.2206 18.2 56.7539 18.2C57.1406 18.2 57.4472 18.1267 57.6739 17.98C57.9139 17.8333 58.0339 17.5867 58.0339 17.24ZM62.5514 10H65.1514V20H62.5514V10ZM62.1714 7.18C62.1714 6.79333 62.3114 6.46667 62.5914 6.2C62.8847 5.92 63.2847 5.78 63.7914 5.78C64.2981 5.78 64.7047 5.92 65.0114 6.2C65.3314 6.46667 65.4914 6.79333 65.4914 7.18C65.4914 7.56667 65.3314 7.89333 65.0114 8.16C64.7047 8.41333 64.2981 8.54 63.7914 8.54C63.2847 8.54 62.8847 8.41333 62.5914 8.16C62.3114 7.89333 62.1714 7.56667 62.1714 7.18ZM76.1625 20C76.1625 21.4533 75.7692 22.52 74.9825 23.2C74.1958 23.8933 73.0958 24.24 71.6825 24.24C70.7225 24.24 69.9625 24.1733 69.4025 24.04C68.8558 23.9067 68.4425 23.7667 68.1625 23.62L68.7025 21.56C69.0092 21.68 69.3625 21.8 69.7625 21.92C70.1758 22.04 70.6825 22.1 71.2825 22.1C72.1892 22.1 72.8025 21.9 73.1225 21.5C73.4558 21.1133 73.6225 20.5667 73.6225 19.86V19.22H73.5425C73.0758 19.8467 72.2492 20.16 71.0625 20.16C69.7692 20.16 68.8025 19.76 68.1625 18.96C67.5358 18.16 67.2225 16.9067 67.2225 15.2C67.2225 13.4133 67.6492 12.06 68.5025 11.14C69.3558 10.22 70.5958 9.76 72.2225 9.76C73.0758 9.76 73.8358 9.82 74.5025 9.94C75.1825 10.06 75.7358 10.2 76.1625 10.36V20ZM71.7625 18.08C72.2692 18.08 72.6558 17.9667 72.9225 17.74C73.2025 17.5133 73.4158 17.1733 73.5625 16.72V12.22C73.1492 12.0467 72.6358 11.96 72.0225 11.96C71.3558 11.96 70.8358 12.2133 70.4625 12.72C70.0892 13.2133 69.9025 14.0067 69.9025 15.1C69.9025 16.0733 70.0625 16.8133 70.3825 17.32C70.7025 17.8267 71.1625 18.08 71.7625 18.08ZM84.5452 20V14.32C84.5452 13.5067 84.4252 12.92 84.1852 12.56C83.9585 12.2 83.5652 12.02 83.0052 12.02C82.5118 12.02 82.0918 12.1667 81.7452 12.46C81.4118 12.74 81.1718 13.0933 81.0252 13.52V20H78.4252V10H80.4852L80.7852 11.32H80.8652C81.1718 10.8933 81.5785 10.52 82.0852 10.2C82.5918 9.88 83.2452 9.72 84.0452 9.72C84.5385 9.72 84.9785 9.78667 85.3652 9.92C85.7518 10.0533 86.0785 10.2733 86.3452 10.58C86.6118 10.8867 86.8118 11.3067 86.9452 11.84C87.0785 12.36 87.1452 13.0067 87.1452 13.78V20H84.5452ZM94.4422 6H96.5822V22.6H94.4422V6ZM113.452 9.26C113.452 9.60667 113.405 9.95333 113.312 10.3C113.232 10.6467 113.092 10.9667 112.892 11.26C112.692 11.54 112.432 11.7933 112.112 12.02C111.792 12.2333 111.405 12.3933 110.952 12.5V12.62C111.352 12.6867 111.732 12.8 112.092 12.96C112.452 13.12 112.765 13.34 113.032 13.62C113.299 13.9 113.505 14.24 113.652 14.64C113.812 15.04 113.892 15.5133 113.892 16.06C113.892 16.78 113.739 17.4067 113.432 17.94C113.125 18.46 112.712 18.8867 112.192 19.22C111.685 19.5533 111.105 19.8 110.452 19.96C109.799 20.12 109.125 20.2 108.432 20.2C108.205 20.2 107.912 20.2 107.552 20.2C107.205 20.2 106.825 20.1867 106.412 20.16C106.012 20.1467 105.599 20.12 105.172 20.08C104.759 20.04 104.379 19.98 104.032 19.9V6.1C104.285 6.06 104.572 6.02 104.892 5.98C105.225 5.94 105.579 5.90667 105.952 5.88C106.325 5.85333 106.705 5.83333 107.092 5.82C107.492 5.80667 107.885 5.8 108.272 5.8C108.925 5.8 109.559 5.85333 110.172 5.96C110.799 6.05333 111.352 6.22667 111.832 6.48C112.325 6.73333 112.719 7.08667 113.012 7.54C113.305 7.99333 113.452 8.56667 113.452 9.26ZM108.452 17.94C108.785 17.94 109.105 17.9 109.412 17.82C109.732 17.74 110.012 17.62 110.252 17.46C110.492 17.2867 110.685 17.0733 110.832 16.82C110.979 16.5667 111.052 16.2667 111.052 15.92C111.052 15.48 110.965 15.1333 110.792 14.88C110.619 14.6267 110.392 14.4333 110.112 14.3C109.832 14.1533 109.519 14.06 109.172 14.02C108.825 13.98 108.479 13.96 108.132 13.96H106.672V17.82C106.739 17.8467 106.845 17.8667 106.992 17.88C107.139 17.8933 107.292 17.9067 107.452 17.92C107.625 17.92 107.799 17.9267 107.972 17.94C108.159 17.94 108.319 17.94 108.452 17.94ZM107.552 11.88C107.739 11.88 107.952 11.8733 108.192 11.86C108.445 11.8467 108.652 11.8267 108.812 11.8C109.319 11.64 109.752 11.4 110.112 11.08C110.485 10.76 110.672 10.34 110.672 9.82C110.672 9.47333 110.605 9.18667 110.472 8.96C110.339 8.73333 110.159 8.55333 109.932 8.42C109.719 8.28667 109.472 8.19333 109.192 8.14C108.912 8.08667 108.619 8.06 108.312 8.06C107.965 8.06 107.645 8.06667 107.352 8.08C107.059 8.09333 106.832 8.11333 106.672 8.14V11.88H107.552ZM121.308 12.44C120.895 12.2933 120.522 12.22 120.188 12.22C119.722 12.22 119.328 12.3467 119.008 12.6C118.702 12.84 118.495 13.1533 118.388 13.54V20H115.788V10H117.808L118.108 11.32H118.188C118.415 10.8267 118.722 10.4467 119.108 10.18C119.495 9.91333 119.948 9.78 120.468 9.78C120.815 9.78 121.208 9.85333 121.648 10L121.308 12.44ZM122.74 10.58C123.273 10.34 123.907 10.1533 124.64 10.02C125.373 9.87333 126.14 9.8 126.94 9.8C127.633 9.8 128.213 9.88667 128.68 10.06C129.147 10.22 129.513 10.4533 129.78 10.76C130.06 11.0667 130.253 11.4333 130.36 11.86C130.48 12.2867 130.54 12.7667 130.54 13.3C130.54 13.8867 130.52 14.48 130.48 15.08C130.44 15.6667 130.413 16.2467 130.4 16.82C130.4 17.3933 130.42 17.9533 130.46 18.5C130.5 19.0333 130.6 19.54 130.76 20.02H128.64L128.22 18.64H128.12C127.853 19.0533 127.48 19.4133 127 19.72C126.533 20.0133 125.927 20.16 125.18 20.16C124.713 20.16 124.293 20.0933 123.92 19.96C123.547 19.8133 123.227 19.6133 122.96 19.36C122.693 19.0933 122.487 18.7867 122.34 18.44C122.193 18.08 122.12 17.68 122.12 17.24C122.12 16.6267 122.253 16.1133 122.52 15.7C122.8 15.2733 123.193 14.9333 123.7 14.68C124.22 14.4133 124.833 14.2333 125.54 14.14C126.26 14.0333 127.06 14 127.94 14.04C128.033 13.2933 127.98 12.76 127.78 12.44C127.58 12.1067 127.133 11.94 126.44 11.94C125.92 11.94 125.367 11.9933 124.78 12.1C124.207 12.2067 123.733 12.3467 123.36 12.52L122.74 10.58ZM126.04 18.02C126.56 18.02 126.973 17.9067 127.28 17.68C127.587 17.44 127.813 17.1867 127.96 16.92V15.62C127.547 15.58 127.147 15.5733 126.76 15.6C126.387 15.6267 126.053 15.6867 125.76 15.78C125.467 15.8733 125.233 16.0067 125.06 16.18C124.887 16.3533 124.8 16.5733 124.8 16.84C124.8 17.2133 124.907 17.5067 125.12 17.72C125.347 17.92 125.653 18.02 126.04 18.02ZM138.842 20V14.32C138.842 13.5067 138.722 12.92 138.482 12.56C138.255 12.2 137.862 12.02 137.302 12.02C136.809 12.02 136.389 12.1667 136.042 12.46C135.709 12.74 135.469 13.0933 135.322 13.52V20H132.722V10H134.782L135.082 11.32H135.162C135.469 10.8933 135.875 10.52 136.382 10.2C136.889 9.88 137.542 9.72 138.342 9.72C138.835 9.72 139.275 9.78667 139.662 9.92C140.049 10.0533 140.375 10.2733 140.642 10.58C140.909 10.8867 141.109 11.3067 141.242 11.84C141.375 12.36 141.442 13.0067 141.442 13.78V20H138.842ZM152.12 16.48C152.12 17.04 152.127 17.6 152.14 18.16C152.154 18.72 152.214 19.34 152.32 20.02H150.46L150.1 18.72H150.02C149.754 19.1867 149.367 19.5667 148.86 19.86C148.367 20.14 147.78 20.28 147.1 20.28C145.847 20.28 144.874 19.8667 144.18 19.04C143.487 18.2133 143.14 16.92 143.14 15.16C143.14 13.4533 143.527 12.1267 144.3 11.18C145.074 10.2333 146.207 9.76 147.7 9.76C148.114 9.76 148.454 9.78667 148.72 9.84C148.987 9.88 149.254 9.95333 149.52 10.06V6H152.12V16.48ZM147.7 18.08C148.207 18.08 148.607 17.96 148.9 17.72C149.194 17.4667 149.4 17.1067 149.52 16.64V12.4C149.334 12.2533 149.127 12.1467 148.9 12.08C148.674 12 148.38 11.96 148.02 11.96C147.287 11.96 146.734 12.2067 146.36 12.7C146 13.1933 145.82 14.04 145.82 15.24C145.82 16.0933 145.967 16.78 146.26 17.3C146.567 17.82 147.047 18.08 147.7 18.08ZM154.622 10H157.222V20H154.622V10ZM154.242 7.18C154.242 6.79333 154.382 6.46667 154.662 6.2C154.955 5.92 155.355 5.78 155.862 5.78C156.368 5.78 156.775 5.92 157.082 6.2C157.402 6.46667 157.562 6.79333 157.562 7.18C157.562 7.56667 157.402 7.89333 157.082 8.16C156.775 8.41333 156.368 8.54 155.862 8.54C155.355 8.54 154.955 8.41333 154.662 8.16C154.382 7.89333 154.242 7.56667 154.242 7.18ZM165.893 20V14.32C165.893 13.5067 165.773 12.92 165.533 12.56C165.306 12.2 164.913 12.02 164.353 12.02C163.859 12.02 163.439 12.1667 163.093 12.46C162.759 12.74 162.519 13.0933 162.373 13.52V20H159.773V10H161.833L162.133 11.32H162.213C162.519 10.8933 162.926 10.52 163.433 10.2C163.939 9.88 164.593 9.72 165.393 9.72C165.886 9.72 166.326 9.78667 166.713 9.92C167.099 10.0533 167.426 10.2733 167.693 10.58C167.959 10.8867 168.159 11.3067 168.293 11.84C168.426 12.36 168.493 13.0067 168.493 13.78V20H165.893ZM179.131 20C179.131 21.4533 178.738 22.52 177.951 23.2C177.165 23.8933 176.065 24.24 174.651 24.24C173.691 24.24 172.931 24.1733 172.371 24.04C171.825 23.9067 171.411 23.7667 171.131 23.62L171.671 21.56C171.978 21.68 172.331 21.8 172.731 21.92C173.145 22.04 173.651 22.1 174.251 22.1C175.158 22.1 175.771 21.9 176.091 21.5C176.425 21.1133 176.591 20.5667 176.591 19.86V19.22H176.511C176.045 19.8467 175.218 20.16 174.031 20.16C172.738 20.16 171.771 19.76 171.131 18.96C170.505 18.16 170.191 16.9067 170.191 15.2C170.191 13.4133 170.618 12.06 171.471 11.14C172.325 10.22 173.565 9.76 175.191 9.76C176.045 9.76 176.805 9.82 177.471 9.94C178.151 10.06 178.705 10.2 179.131 10.36V20ZM174.731 18.08C175.238 18.08 175.625 17.9667 175.891 17.74C176.171 17.5133 176.385 17.1733 176.531 16.72V12.22C176.118 12.0467 175.605 11.96 174.991 11.96C174.325 11.96 173.805 12.2133 173.431 12.72C173.058 13.2133 172.871 14.0067 172.871 15.1C172.871 16.0733 173.031 16.8133 173.351 17.32C173.671 17.8267 174.131 18.08 174.731 18.08ZM186.512 6H188.652V22.6H186.512V6ZM200.097 14.22L200.457 16.6H200.557L200.957 14.2L203.637 6H206.517L201.317 20.1H199.357L194.117 6H197.297L200.097 14.22ZM207.688 10H210.288V20H207.688V10ZM207.308 7.18C207.308 6.79333 207.448 6.46667 207.728 6.2C208.021 5.92 208.421 5.78 208.928 5.78C209.435 5.78 209.841 5.92 210.148 6.2C210.468 6.46667 210.628 6.79333 210.628 7.18C210.628 7.56667 210.468 7.89333 210.148 8.16C209.841 8.41333 209.435 8.54 208.928 8.54C208.421 8.54 208.021 8.41333 207.728 8.16C207.448 7.89333 207.308 7.56667 207.308 7.18ZM216.979 17.24C216.979 16.9733 216.866 16.76 216.639 16.6C216.413 16.44 216.133 16.2933 215.799 16.16C215.466 16.0267 215.099 15.8933 214.699 15.76C214.299 15.6133 213.933 15.42 213.599 15.18C213.266 14.9267 212.986 14.6133 212.759 14.24C212.533 13.8533 212.419 13.36 212.419 12.76C212.419 11.7733 212.713 11.02 213.299 10.5C213.886 9.98 214.733 9.72 215.839 9.72C216.599 9.72 217.286 9.8 217.899 9.96C218.513 10.12 218.993 10.3 219.339 10.5L218.759 12.38C218.453 12.26 218.066 12.1333 217.599 12C217.133 11.8667 216.659 11.8 216.179 11.8C215.406 11.8 215.019 12.1 215.019 12.7C215.019 12.94 215.133 13.1333 215.359 13.28C215.586 13.4267 215.866 13.5667 216.199 13.7C216.533 13.82 216.899 13.9533 217.299 14.1C217.699 14.2467 218.066 14.44 218.399 14.68C218.733 14.9067 219.013 15.2067 219.239 15.58C219.466 15.9533 219.579 16.4333 219.579 17.02C219.579 18.0333 219.253 18.8333 218.599 19.42C217.959 19.9933 216.993 20.28 215.699 20.28C214.993 20.28 214.326 20.1867 213.699 20C213.086 19.8267 212.586 19.62 212.199 19.38L212.919 17.44C213.226 17.6133 213.633 17.7867 214.139 17.96C214.646 18.12 215.166 18.2 215.699 18.2C216.086 18.2 216.393 18.1267 216.619 17.98C216.859 17.8333 216.979 17.5867 216.979 17.24ZM223.777 10V15.68C223.777 16.4933 223.87 17.08 224.057 17.44C224.257 17.8 224.637 17.98 225.197 17.98C225.69 17.98 226.097 17.8333 226.417 17.54C226.75 17.2467 226.997 16.8867 227.157 16.46V10H229.757V16.96C229.757 17.5067 229.783 18.0467 229.837 18.58C229.89 19.1 229.97 19.5733 230.077 20H228.117L227.657 18.52H227.577C227.27 19.0267 226.843 19.4467 226.297 19.78C225.75 20.1133 225.103 20.28 224.357 20.28C223.85 20.28 223.397 20.2133 222.997 20.08C222.597 19.9467 222.263 19.7267 221.997 19.42C221.73 19.1133 221.523 18.7 221.377 18.18C221.243 17.66 221.177 17.0067 221.177 16.22V10H223.777ZM231.978 10.58C232.512 10.34 233.145 10.1533 233.878 10.02C234.612 9.87333 235.378 9.8 236.178 9.8C236.872 9.8 237.452 9.88667 237.918 10.06C238.385 10.22 238.752 10.4533 239.018 10.76C239.298 11.0667 239.492 11.4333 239.598 11.86C239.718 12.2867 239.778 12.7667 239.778 13.3C239.778 13.8867 239.758 14.48 239.718 15.08C239.678 15.6667 239.652 16.2467 239.638 16.82C239.638 17.3933 239.658 17.9533 239.698 18.5C239.738 19.0333 239.838 19.54 239.998 20.02H237.878L237.458 18.64H237.358C237.092 19.0533 236.718 19.4133 236.238 19.72C235.772 20.0133 235.165 20.16 234.418 20.16C233.952 20.16 233.532 20.0933 233.158 19.96C232.785 19.8133 232.465 19.6133 232.198 19.36C231.932 19.0933 231.725 18.7867 231.578 18.44C231.432 18.08 231.358 17.68 231.358 17.24C231.358 16.6267 231.492 16.1133 231.758 15.7C232.038 15.2733 232.432 14.9333 232.938 14.68C233.458 14.4133 234.072 14.2333 234.778 14.14C235.498 14.0333 236.298 14 237.178 14.04C237.272 13.2933 237.218 12.76 237.018 12.44C236.818 12.1067 236.372 11.94 235.678 11.94C235.158 11.94 234.605 11.9933 234.018 12.1C233.445 12.2067 232.972 12.3467 232.598 12.52L231.978 10.58ZM235.278 18.02C235.798 18.02 236.212 17.9067 236.518 17.68C236.825 17.44 237.052 17.1867 237.198 16.92V15.62C236.785 15.58 236.385 15.5733 235.998 15.6C235.625 15.6267 235.292 15.6867 234.998 15.78C234.705 15.8733 234.472 16.0067 234.298 16.18C234.125 16.3533 234.038 16.5733 234.038 16.84C234.038 17.2133 234.145 17.5067 234.358 17.72C234.585 17.92 234.892 18.02 235.278 18.02ZM244.64 16.64C244.64 17.1067 244.7 17.4467 244.82 17.66C244.94 17.8733 245.134 17.98 245.4 17.98C245.56 17.98 245.714 17.9667 245.86 17.94C246.02 17.9133 246.214 17.8533 246.44 17.76L246.72 19.8C246.507 19.9067 246.18 20.0133 245.74 20.12C245.3 20.2267 244.847 20.28 244.38 20.28C243.62 20.28 243.04 20.1067 242.64 19.76C242.24 19.4 242.04 18.8133 242.04 18V6H244.64V16.64ZM252.958 6C253.238 5.96 253.551 5.92667 253.898 5.9C254.258 5.87333 254.624 5.85333 254.998 5.84C255.371 5.82667 255.731 5.82 256.078 5.82C256.438 5.80667 256.758 5.8 257.038 5.8C258.278 5.8 259.338 5.97333 260.218 6.32C261.098 6.66667 261.811 7.15333 262.358 7.78C262.904 8.40667 263.304 9.15333 263.558 10.02C263.811 10.8867 263.938 11.84 263.938 12.88C263.938 13.8267 263.818 14.74 263.578 15.62C263.338 16.5 262.938 17.28 262.378 17.96C261.818 18.64 261.078 19.1867 260.158 19.6C259.251 20.0133 258.124 20.22 256.778 20.22C256.564 20.22 256.278 20.2133 255.918 20.2C255.571 20.1867 255.204 20.1667 254.818 20.14C254.444 20.1267 254.084 20.1067 253.738 20.08C253.391 20.0667 253.131 20.0467 252.958 20.02V6ZM257.258 8.24C256.964 8.24 256.664 8.24667 256.358 8.26C256.064 8.27333 255.844 8.29333 255.698 8.32V17.7C255.751 17.7133 255.838 17.7267 255.958 17.74C256.091 17.74 256.231 17.7467 256.378 17.76C256.524 17.76 256.664 17.7667 256.798 17.78C256.931 17.78 257.031 17.78 257.098 17.78C257.871 17.78 258.511 17.6467 259.018 17.38C259.538 17.1 259.944 16.7333 260.238 16.28C260.544 15.8267 260.758 15.3067 260.878 14.72C260.998 14.12 261.058 13.5067 261.058 12.88C261.058 12.3333 261.004 11.7867 260.898 11.24C260.791 10.68 260.591 10.18 260.298 9.74C260.018 9.3 259.631 8.94 259.138 8.66C258.644 8.38 258.018 8.24 257.258 8.24ZM273.847 19.14C273.447 19.46 272.9 19.7333 272.207 19.96C271.527 20.1733 270.8 20.28 270.027 20.28C268.414 20.28 267.234 19.8133 266.487 18.88C265.74 17.9333 265.367 16.64 265.367 15C265.367 13.24 265.787 11.92 266.627 11.04C267.467 10.16 268.647 9.72 270.167 9.72C270.674 9.72 271.167 9.78667 271.647 9.92C272.127 10.0533 272.554 10.2733 272.927 10.58C273.3 10.8867 273.6 11.3 273.827 11.82C274.054 12.34 274.167 12.9867 274.167 13.76C274.167 14.04 274.147 14.34 274.107 14.66C274.08 14.98 274.034 15.3133 273.967 15.66H267.967C268.007 16.5 268.22 17.1333 268.607 17.56C269.007 17.9867 269.647 18.2 270.527 18.2C271.074 18.2 271.56 18.12 271.987 17.96C272.427 17.7867 272.76 17.6133 272.987 17.44L273.847 19.14ZM270.127 11.8C269.447 11.8 268.94 12.0067 268.607 12.42C268.287 12.82 268.094 13.36 268.027 14.04H271.747C271.8 13.32 271.687 12.7667 271.407 12.38C271.14 11.9933 270.714 11.8 270.127 11.8ZM280.143 17.24C280.143 16.9733 280.03 16.76 279.803 16.6C279.577 16.44 279.297 16.2933 278.963 16.16C278.63 16.0267 278.263 15.8933 277.863 15.76C277.463 15.6133 277.097 15.42 276.763 15.18C276.43 14.9267 276.15 14.6133 275.923 14.24C275.697 13.8533 275.583 13.36 275.583 12.76C275.583 11.7733 275.877 11.02 276.463 10.5C277.05 9.98 277.897 9.72 279.003 9.72C279.763 9.72 280.45 9.8 281.063 9.96C281.677 10.12 282.157 10.3 282.503 10.5L281.923 12.38C281.617 12.26 281.23 12.1333 280.763 12C280.297 11.8667 279.823 11.8 279.343 11.8C278.57 11.8 278.183 12.1 278.183 12.7C278.183 12.94 278.297 13.1333 278.523 13.28C278.75 13.4267 279.03 13.5667 279.363 13.7C279.697 13.82 280.063 13.9533 280.463 14.1C280.863 14.2467 281.23 14.44 281.563 14.68C281.897 14.9067 282.177 15.2067 282.403 15.58C282.63 15.9533 282.743 16.4333 282.743 17.02C282.743 18.0333 282.417 18.8333 281.763 19.42C281.123 19.9933 280.157 20.28 278.863 20.28C278.157 20.28 277.49 20.1867 276.863 20C276.25 19.8267 275.75 19.62 275.363 19.38L276.083 17.44C276.39 17.6133 276.797 17.7867 277.303 17.96C277.81 18.12 278.33 18.2 278.863 18.2C279.25 18.2 279.557 18.1267 279.783 17.98C280.023 17.8333 280.143 17.5867 280.143 17.24ZM284.661 10H287.261V20H284.661V10ZM284.281 7.18C284.281 6.79333 284.421 6.46667 284.701 6.2C284.994 5.92 285.394 5.78 285.901 5.78C286.407 5.78 286.814 5.92 287.121 6.2C287.441 6.46667 287.601 6.79333 287.601 7.18C287.601 7.56667 287.441 7.89333 287.121 8.16C286.814 8.41333 286.407 8.54 285.901 8.54C285.394 8.54 284.994 8.41333 284.701 8.16C284.421 7.89333 284.281 7.56667 284.281 7.18ZM298.272 20C298.272 21.4533 297.879 22.52 297.092 23.2C296.305 23.8933 295.205 24.24 293.792 24.24C292.832 24.24 292.072 24.1733 291.512 24.04C290.965 23.9067 290.552 23.7667 290.272 23.62L290.812 21.56C291.119 21.68 291.472 21.8 291.872 21.92C292.285 22.04 292.792 22.1 293.392 22.1C294.299 22.1 294.912 21.9 295.232 21.5C295.565 21.1133 295.732 20.5667 295.732 19.86V19.22H295.652C295.185 19.8467 294.359 20.16 293.172 20.16C291.879 20.16 290.912 19.76 290.272 18.96C289.645 18.16 289.332 16.9067 289.332 15.2C289.332 13.4133 289.759 12.06 290.612 11.14C291.465 10.22 292.705 9.76 294.332 9.76C295.185 9.76 295.945 9.82 296.612 9.94C297.292 10.06 297.845 10.2 298.272 10.36V20ZM293.872 18.08C294.379 18.08 294.765 17.9667 295.032 17.74C295.312 17.5133 295.525 17.1733 295.672 16.72V12.22C295.259 12.0467 294.745 11.96 294.132 11.96C293.465 11.96 292.945 12.2133 292.572 12.72C292.199 13.2133 292.012 14.0067 292.012 15.1C292.012 16.0733 292.172 16.8133 292.492 17.32C292.812 17.8267 293.272 18.08 293.872 18.08ZM306.655 20V14.32C306.655 13.5067 306.535 12.92 306.295 12.56C306.068 12.2 305.675 12.02 305.115 12.02C304.621 12.02 304.201 12.1667 303.855 12.46C303.521 12.74 303.281 13.0933 303.135 13.52V20H300.535V10H302.595L302.895 11.32H302.975C303.281 10.8933 303.688 10.52 304.195 10.2C304.701 9.88 305.355 9.72 306.155 9.72C306.648 9.72 307.088 9.78667 307.475 9.92C307.861 10.0533 308.188 10.2733 308.455 10.58C308.721 10.8867 308.921 11.3067 309.055 11.84C309.188 12.36 309.255 13.0067 309.255 13.78V20H306.655Z" transform="translate(-1 -5)" fill="#ADE4FF" fill-opacity="0.8"/>
</svg>
