<svg width="374" height="64" viewBox="0 0 374 64" fill="none" xmlns="http://www.w3.org/2000/svg">
<path d="M49.929 68.859C50.3443 70.0457 51.1453 70.6687 52.332 70.728L54.468 70.995C55.892 71.173 56.604 71.8553 56.604 73.042C56.604 74.3473 55.8623 75 54.379 75H34.621C33.1377 75 32.396 74.3473 32.396 73.042C32.396 71.796 33.0783 71.084 34.443 70.906L37.469 70.55C38.2403 70.4313 38.7743 70.1347 39.071 69.66C39.427 69.1853 39.4567 68.592 39.16 67.88L35.333 57.022H16.91L13.083 67.702C12.549 69.304 13.083 70.194 14.685 70.372L17.8 70.817C19.1647 70.995 19.847 71.7367 19.847 73.042C19.847 74.3473 19.1053 75 17.622 75H2.67C1.18667 75 0.445 74.3473 0.445 73.042C0.445 71.7367 1.12733 70.995 2.492 70.817L5.963 70.283C7.14967 70.105 7.95067 69.4523 8.366 68.325L25.899 20.265C26.3737 19.0783 27.2043 18.485 28.391 18.485H29.726C30.9127 18.485 31.7433 19.0783 32.218 20.265L49.929 68.859ZM18.423 52.661H33.909L26.344 30.856L18.423 52.661ZM74.9915 25.872V38.51C76.8309 36.6113 78.7592 35.1873 80.7765 34.238C82.7939 33.2887 85.0782 32.814 87.6295 32.814C90.5962 32.814 93.1179 33.4667 95.1945 34.772C97.2712 36.018 98.9622 37.6793 100.268 39.756C101.632 41.7733 102.611 44.0577 103.205 46.609C103.857 49.1603 104.184 51.7117 104.184 54.263C104.184 56.9923 103.828 59.692 103.116 62.362C102.404 64.9727 101.306 67.3163 99.8225 69.393C98.3392 71.4697 96.4702 73.1607 94.2155 74.466C91.9609 75.712 89.3205 76.335 86.2945 76.335C84.0399 76.335 81.9929 75.9197 80.1535 75.089C78.3142 74.3177 76.5639 73.0123 74.9025 71.173H74.3685L74.1015 73.932C73.9235 75.2967 73.0929 75.979 71.6095 75.979L61.9975 75.178C60.5735 75.0593 59.8615 74.4363 59.8615 73.309C59.8615 72.241 60.5439 71.5587 61.9085 71.262L63.6885 70.906C64.9939 70.6093 65.6762 69.838 65.7355 68.592V23.113C65.7355 21.7483 65.0532 20.977 63.6885 20.799L61.0185 20.443C59.6539 20.265 58.9715 19.642 58.9715 18.574C58.9715 17.506 59.5945 16.794 60.8405 16.438L72.4995 13.412C72.7962 13.2933 73.0335 13.234 73.2115 13.234C73.4489 13.234 73.6862 13.234 73.9235 13.234C74.3389 13.234 74.6059 13.2933 74.7245 13.412C75.0805 13.6493 75.2585 14.3613 75.2585 15.548L74.9915 25.872ZM75.2585 42.337V66.99C78.1659 69.3633 81.0139 70.55 83.8025 70.55C85.8199 70.55 87.4812 70.0457 88.7865 69.037C90.1512 67.969 91.2192 66.6637 91.9905 65.121C92.7619 63.519 93.2959 61.7983 93.5925 59.959C93.9485 58.1197 94.1265 56.399 94.1265 54.797C94.1265 49.3383 93.2365 45.274 91.4565 42.604C89.6765 39.8747 87.2735 38.51 84.2475 38.51C81.6369 38.51 78.6405 39.7857 75.2585 42.337ZM131.191 32.814C134.276 32.814 137.095 33.4073 139.646 34.594C142.197 35.7213 144.363 37.2937 146.143 39.311C147.982 41.269 149.377 43.583 150.326 46.253C151.335 48.8637 151.839 51.682 151.839 54.708C151.839 57.7933 151.335 60.671 150.326 63.341C149.377 65.9517 148.012 68.236 146.232 70.194C144.452 72.0927 142.286 73.6057 139.735 74.733C137.184 75.801 134.336 76.335 131.191 76.335C128.046 76.335 125.198 75.801 122.647 74.733C120.096 73.6057 117.93 72.0927 116.15 70.194C114.37 68.236 112.976 65.9517 111.967 63.341C111.018 60.671 110.543 57.7933 110.543 54.708C110.543 51.682 111.018 48.834 111.967 46.164C112.976 43.494 114.37 41.18 116.15 39.222C117.989 37.264 120.155 35.7213 122.647 34.594C125.198 33.4073 128.046 32.814 131.191 32.814ZM131.191 36.819C124.368 36.819 120.956 42.7523 120.956 54.619C120.956 66.367 124.368 72.241 131.191 72.241C138.014 72.241 141.426 66.367 141.426 54.619C141.426 42.7523 138.014 36.819 131.191 36.819ZM197.953 68.503C197.953 69.8677 198.605 70.6687 199.911 70.906L201.335 71.173C202.64 71.4697 203.293 72.1817 203.293 73.309C203.293 74.4363 202.581 75.0593 201.157 75.178L191.634 75.801H191.456C190.15 75.801 189.409 75.1187 189.231 73.754L188.697 68.592C184.247 73.754 179.322 76.335 173.923 76.335C172.202 76.335 170.63 76.0383 169.206 75.445C167.782 74.911 166.565 74.021 165.557 72.775C164.548 71.5883 163.777 70.0457 163.243 68.147C162.709 66.189 162.471 63.786 162.531 60.938L162.709 41.269C162.709 39.9637 162.026 39.1627 160.662 38.866L159.416 38.599C158.11 38.3617 157.458 37.6793 157.458 36.552C157.458 35.484 158.17 34.8907 159.594 34.772L169.918 33.882C170.155 33.882 170.363 33.882 170.541 33.882C170.719 33.8227 170.867 33.793 170.986 33.793C171.401 33.793 171.727 33.8523 171.965 33.971C172.202 34.2083 172.321 34.8907 172.321 36.018L171.965 46.52V59.692C171.965 63.43 172.469 66.0407 173.478 67.524C174.546 69.0073 176.029 69.749 177.928 69.749C179.648 69.749 181.399 69.2743 183.179 68.325C185.018 67.3163 186.768 66.011 188.43 64.409L188.697 41.269C188.697 39.9637 188.014 39.1627 186.65 38.866L185.404 38.599C184.098 38.3617 183.446 37.709 183.446 36.641C183.446 35.573 184.158 34.9797 185.582 34.861L195.728 33.882C195.965 33.882 196.173 33.882 196.351 33.882C196.529 33.8227 196.677 33.793 196.796 33.793C197.211 33.793 197.537 33.8523 197.775 33.971C197.893 34.0897 197.982 34.2973 198.042 34.594C198.16 34.8907 198.22 35.3653 198.22 36.018L197.953 46.52V68.503ZM230.735 69.126C231.387 68.77 231.951 68.592 232.426 68.592C232.9 68.592 233.316 68.7997 233.672 69.215C234.443 70.1643 234.384 71.1137 233.494 72.063C232.366 73.2497 230.972 74.199 229.311 74.911C227.709 75.5637 225.78 75.89 223.526 75.89C220.262 75.89 217.681 75.089 215.783 73.487C213.943 71.8257 213.024 69.2447 213.024 65.744C213.024 64.9727 213.024 64.2903 213.024 63.697C213.024 63.0443 213.053 62.4213 213.113 61.828V41.536C213.113 40.0527 212.371 39.311 210.888 39.311H209.019C207.535 39.311 206.794 38.599 206.794 37.175C206.794 35.8103 207.476 35.039 208.841 34.861L211.956 34.505C213.202 34.327 213.943 33.615 214.181 32.369L215.783 24.359C216.02 23.0537 216.821 22.401 218.186 22.401H220.678C222.102 22.401 222.814 23.1427 222.814 24.626L222.636 32.102C222.636 33.5853 223.377 34.327 224.861 34.327H231.002C232.485 34.327 233.227 35.0687 233.227 36.552V37.086C233.227 38.5693 232.485 39.311 231.002 39.311H224.772C223.288 39.311 222.547 40.0527 222.547 41.536V64.053C222.547 66.2483 222.962 67.8207 223.793 68.77C224.683 69.7193 225.81 70.194 227.175 70.194C227.649 70.194 228.183 70.1347 228.777 70.016C229.429 69.838 230.082 69.5413 230.735 69.126ZM329.323 20.443C329.323 21.7483 328.611 22.49 327.187 22.668L324.072 23.024C322.707 23.202 321.995 23.9437 321.936 25.249C321.936 26.7323 321.906 28.186 321.847 29.61C321.847 31.034 321.847 32.4877 321.847 33.971V59.425C321.847 60.9083 321.847 62.3917 321.847 63.875C321.906 65.299 321.936 66.7527 321.936 68.236C322.055 69.7193 322.767 70.4907 324.072 70.55L327.187 70.906C328.611 71.084 329.323 71.796 329.323 73.042C329.323 74.3473 328.581 75 327.098 75H306.539C305.056 75 304.314 74.3473 304.314 73.042C304.314 71.796 305.026 71.084 306.45 70.906L309.387 70.639C310.752 70.461 311.434 69.6897 311.434 68.325C311.493 66.8417 311.523 65.388 311.523 63.964C311.523 62.4807 311.523 60.9973 311.523 59.514V32.013L292.21 75H289.095L269.604 31.835V67.969C269.604 69.3337 270.286 70.105 271.651 70.283L275.122 70.817C276.487 70.995 277.169 71.7367 277.169 73.042C277.169 74.3473 276.427 75 274.944 75H259.369C257.886 75 257.144 74.3473 257.144 73.042C257.144 71.7367 257.826 70.995 259.191 70.817L263.018 70.283C264.383 70.105 265.065 69.3337 265.065 67.969V25.427C265.065 24.003 264.383 23.202 263.018 23.024L259.725 22.668C258.36 22.49 257.678 21.7483 257.678 20.443C257.678 19.1377 258.42 18.485 259.903 18.485H273.876L293.545 61.383L312.324 20.176C312.858 19.0487 313.748 18.485 314.994 18.485H327.098C328.581 18.485 329.323 19.1377 329.323 20.443ZM375.073 51.593C374.836 52.8983 374.005 53.551 372.581 53.551H346.771C346.89 58.9503 348.195 63.0147 350.687 65.744C353.179 68.4733 356.413 69.838 360.388 69.838C362.702 69.838 364.66 69.4227 366.262 68.592C367.923 67.702 369.436 66.4857 370.801 64.943C371.454 64.231 372.077 63.875 372.67 63.875C372.967 63.875 373.234 63.964 373.471 64.142C374.361 64.7353 374.48 65.6253 373.827 66.812C372.284 69.838 370.059 72.152 367.152 73.754C364.245 75.356 360.833 76.157 356.917 76.157C353.594 76.157 350.628 75.5933 348.017 74.466C345.466 73.3387 343.3 71.796 341.52 69.838C339.799 67.8207 338.494 65.4473 337.604 62.718C336.714 59.9887 336.269 57.022 336.269 53.818C336.269 50.7327 336.773 47.7957 337.782 45.007C338.791 42.2183 340.215 39.7857 342.054 37.709C343.953 35.573 346.207 33.9117 348.818 32.725C351.488 31.479 354.425 30.856 357.629 30.856C360.299 30.856 362.702 31.301 364.838 32.191C367.033 33.081 368.902 34.327 370.445 35.929C371.988 37.4717 373.174 39.3407 374.005 41.536C374.836 43.7313 375.251 46.164 375.251 48.834C375.251 49.3087 375.251 49.7833 375.251 50.258C375.251 50.6733 375.192 51.1183 375.073 51.593ZM346.949 49.457H360.299C362.435 49.457 363.859 49.012 364.571 48.122C365.342 47.232 365.728 45.986 365.728 44.384C365.728 41.714 364.957 39.489 363.414 37.709C361.931 35.929 360.062 35.039 357.807 35.039C355.968 35.039 354.366 35.5137 353.001 36.463C351.696 37.353 350.598 38.51 349.708 39.934C348.877 41.358 348.225 42.9303 347.75 44.651C347.335 46.3123 347.068 47.9143 346.949 49.457Z" transform="translate(-2 -13)" fill="#0889C9" fill-opacity="0.6"/>
</svg>
