<svg width="372" height="58" viewBox="0 0 372 58" fill="none" xmlns="http://www.w3.org/2000/svg">
<path d="M42.398 60.1C42.57 58.7813 43.344 58.122 44.72 58.122H46.44C47.816 58.122 48.504 58.8387 48.504 60.272L48.332 68.7C48.332 69.8467 47.816 70.678 46.784 71.194C44.4907 72.1687 42.0827 72.914 39.56 73.43C37.0947 74.0033 34.486 74.29 31.734 74.29C27.434 74.29 23.5067 73.6307 19.952 72.312C16.4547 70.936 13.4447 69.0153 10.922 66.55C8.45667 64.0273 6.536 61.0173 5.16 57.52C3.784 53.9653 3.096 50.038 3.096 45.738C3.096 41.438 3.81267 37.5393 5.246 34.042C6.67933 30.4873 8.65733 27.4773 11.18 25.012C13.76 22.4893 16.8273 20.54 20.382 19.164C23.9367 17.788 27.8353 17.1 32.078 17.1C34.314 17.1 36.5787 17.3293 38.872 17.788C41.2227 18.2467 43.602 19.078 46.01 20.282C47.042 20.8553 47.558 21.7153 47.558 22.862L47.73 31.29C47.73 32.7233 47.042 33.44 45.666 33.44H43.946C42.57 33.44 41.796 32.7807 41.624 31.462L40.506 24.926C40.3913 24.1233 40.0187 23.5213 39.388 23.12C38.8147 22.6613 38.1267 22.3173 37.324 22.088C36.5213 21.8013 35.69 21.6293 34.83 21.572C33.97 21.5147 33.2247 21.486 32.594 21.486C29.2687 21.486 26.4307 22.2027 24.08 23.636C21.7293 25.0693 19.8087 26.9613 18.318 29.312C16.8273 31.6053 15.738 34.214 15.05 37.138C14.362 40.0047 14.018 42.8713 14.018 45.738C14.018 48.6047 14.3333 51.5 14.964 54.424C15.652 57.2907 16.7127 59.8707 18.146 62.164C19.5793 64.4573 21.4427 66.3207 23.736 67.754C26.0867 69.1873 28.9533 69.904 32.336 69.904C34.6867 69.904 37.066 69.5027 39.474 68.7C40.5633 68.356 41.194 67.582 41.366 66.378L42.398 60.1ZM98.0024 66.722C98.289 67.926 99.0344 68.5853 100.238 68.7L103.42 69.044C104.796 69.1587 105.484 69.8467 105.484 71.108C105.484 72.4267 104.854 73.2007 103.592 73.43C102.675 73.5447 101.786 73.6307 100.926 73.688C100.066 73.8027 99.2064 73.86 98.3464 73.86C95.4224 73.86 93.0717 73.4587 91.2944 72.656C89.517 71.8533 88.3704 70.2193 87.8544 67.754L85.1884 55.628C84.5004 52.6467 83.3824 50.6687 81.8344 49.694C80.3437 48.662 78.1077 48.146 75.1264 48.146H72.0304V58.38C72.0304 59.756 72.0304 61.132 72.0304 62.508C72.0877 63.8267 72.1164 65.1453 72.1164 66.464C72.1737 67.7253 72.8617 68.442 74.1804 68.614L77.4484 68.958C78.767 69.13 79.4264 69.8467 79.4264 71.108C79.4264 72.3693 78.7097 73 77.2764 73H56.9804C55.547 73 54.8304 72.3693 54.8304 71.108C54.8304 69.8467 55.5184 69.1587 56.8944 69.044L59.9904 68.7C61.309 68.528 61.997 67.7827 62.0544 66.464C62.0544 65.088 62.0544 63.712 62.0544 62.336C62.1117 60.9027 62.1404 59.4693 62.1404 58.036V33.44C62.1404 32.0067 62.1117 30.602 62.0544 29.226C62.0544 27.7927 62.0544 26.3593 62.0544 24.926C61.9397 23.6073 61.2517 22.862 59.9904 22.69L56.8944 22.346C55.5184 22.174 54.8304 21.486 54.8304 20.282C54.8304 19.0207 55.547 18.39 56.9804 18.39H79.3404C85.647 18.39 90.5204 19.6227 93.9604 22.088C97.4004 24.5533 99.1204 27.936 99.1204 32.236C99.1204 36.192 97.8877 39.374 95.4224 41.782C93.0144 44.19 89.9757 45.7667 86.3064 46.512C88.7144 47.2573 90.6637 48.49 92.1544 50.21C93.7024 51.8727 94.8777 54.1947 95.6804 57.176L98.0024 66.722ZM72.0304 43.932H77.0184C80.6877 43.932 83.6404 43.0433 85.8764 41.266C88.1697 39.4313 89.3164 36.5933 89.3164 32.752C89.3164 29.4267 88.3704 26.904 86.4784 25.184C84.5864 23.464 81.5764 22.604 77.4484 22.604H72.2024C72.145 24.324 72.0877 26.044 72.0304 27.764C72.0304 29.484 72.0304 31.2327 72.0304 33.01V43.932ZM147.69 60.444C147.977 59.1253 148.751 58.466 150.012 58.466H151.216C152.764 58.466 153.481 59.2113 153.366 60.702L152.936 70.936C152.879 72.312 152.162 73 150.786 73H111.57C110.137 73 109.42 72.3693 109.42 71.108C109.42 69.8467 110.108 69.1587 111.484 69.044L114.58 68.7C115.899 68.528 116.587 67.7827 116.644 66.464C116.644 65.088 116.644 63.712 116.644 62.336C116.702 60.9027 116.73 59.4693 116.73 58.036V33.44C116.73 32.0067 116.702 30.602 116.644 29.226C116.644 27.7927 116.644 26.3593 116.644 24.926C116.53 23.6073 115.842 22.862 114.58 22.69L111.484 22.346C110.108 22.174 109.42 21.486 109.42 20.282C109.42 19.0207 110.137 18.39 111.57 18.39H149.152C150.528 18.39 151.245 19.078 151.302 20.454L151.732 30.688C151.847 32.1787 151.13 32.924 149.582 32.924H148.378C147.06 32.924 146.286 32.2933 146.056 31.032L144.852 24.668C144.623 23.4067 143.849 22.776 142.53 22.776H126.878C126.821 24.4387 126.764 26.1013 126.706 27.764C126.706 29.3693 126.706 31.0033 126.706 32.666V42.814H136.166C137.485 42.814 138.23 42.1547 138.402 40.836L138.918 37.224C139.09 35.9053 139.836 35.246 141.154 35.246C142.588 35.246 143.304 35.9627 143.304 37.396V52.36C143.304 53.7933 142.616 54.51 141.24 54.51C139.864 54.51 139.09 53.8507 138.918 52.532L138.488 49.006C138.316 47.6873 137.542 47.028 136.166 47.028H126.706V58.208C126.706 59.9853 126.706 61.7627 126.706 63.54C126.764 65.26 126.821 66.98 126.878 68.7H144.25C145.512 68.7 146.286 68.0407 146.572 66.722L147.69 60.444ZM204.205 67.066C204.606 68.2127 205.38 68.8147 206.527 68.872L208.591 69.13C209.967 69.302 210.655 69.9613 210.655 71.108C210.655 72.3693 209.938 73 208.505 73H189.413C187.98 73 187.263 72.3693 187.263 71.108C187.263 69.904 187.922 69.216 189.241 69.044L192.165 68.7C192.91 68.5853 193.426 68.2987 193.713 67.84C194.057 67.3813 194.086 66.808 193.799 66.12L190.101 55.628H172.299L168.601 65.948C168.085 67.496 168.601 68.356 170.149 68.528L173.159 68.958C174.478 69.13 175.137 69.8467 175.137 71.108C175.137 72.3693 174.42 73 172.987 73H158.539C157.106 73 156.389 72.3693 156.389 71.108C156.389 69.8467 157.048 69.13 158.367 68.958L161.721 68.442C162.868 68.27 163.642 67.6393 164.043 66.55L180.985 20.11C181.444 18.9633 182.246 18.39 183.393 18.39H184.683C185.83 18.39 186.632 18.9633 187.091 20.11L204.205 67.066ZM173.761 51.414H188.725L181.415 30.344L173.761 51.414ZM254.223 24.754C254.051 23.4353 253.277 22.776 251.901 22.776H242.097C242.039 24.496 241.982 26.216 241.925 27.936C241.925 29.656 241.925 31.4333 241.925 33.268V57.864C241.925 59.2973 241.925 60.7307 241.925 62.164C241.982 63.54 242.011 64.9447 242.011 66.378C242.125 67.8113 242.813 68.5567 244.075 68.614L247.945 69.044C249.321 69.216 250.009 69.904 250.009 71.108C250.009 72.3693 249.292 73 247.859 73H226.015C224.581 73 223.865 72.3693 223.865 71.108C223.865 69.8467 224.553 69.1587 225.929 69.044L229.799 68.614C231.117 68.442 231.805 67.6967 231.863 66.378C231.863 65.002 231.863 63.626 231.863 62.25C231.92 60.8167 231.949 59.412 231.949 58.036V33.44C231.949 31.6053 231.92 29.828 231.863 28.108C231.863 26.3307 231.834 24.5533 231.777 22.776H221.973C220.597 22.776 219.823 23.4353 219.651 24.754L218.619 31.462C218.447 32.7807 217.673 33.44 216.297 33.44H214.921C213.487 33.44 212.799 32.7233 212.857 31.29L213.201 20.54C213.315 19.1067 214.061 18.39 215.437 18.39H258.437C259.813 18.39 260.558 19.1067 260.673 20.54L261.017 31.29C261.074 32.7233 260.386 33.44 258.953 33.44H257.577C256.201 33.44 255.427 32.7807 255.255 31.462L254.223 24.754ZM291.943 17.1C296.014 17.1 299.626 17.874 302.779 19.422C305.99 20.97 308.713 23.0627 310.949 25.7C313.185 28.28 314.876 31.3187 316.023 34.816C317.227 38.256 317.829 41.8967 317.829 45.738C317.829 49.522 317.227 53.134 316.023 56.574C314.819 60.014 313.099 63.0527 310.863 65.69C308.627 68.3273 305.904 70.42 302.693 71.968C299.54 73.516 295.956 74.29 291.943 74.29C288.675 74.29 285.493 73.688 282.397 72.484C279.301 71.2227 276.52 69.388 274.055 66.98C271.59 64.572 269.612 61.6193 268.121 58.122C266.63 54.6247 265.885 50.4967 265.885 45.738C265.885 41.954 266.487 38.342 267.691 34.902C268.895 31.4047 270.615 28.3373 272.851 25.7C275.144 23.0627 277.896 20.97 281.107 19.422C284.318 17.874 287.93 17.1 291.943 17.1ZM276.807 45.738C276.807 48.146 277.008 50.7547 277.409 53.564C277.868 56.3733 278.67 58.982 279.817 61.39C280.964 63.798 282.512 65.8333 284.461 67.496C286.41 69.1013 288.904 69.904 291.943 69.904C294.982 69.904 297.476 69.1013 299.425 67.496C301.374 65.8333 302.894 63.798 303.983 61.39C305.13 58.9247 305.932 56.2873 306.391 53.478C306.85 50.6687 307.079 48.0887 307.079 45.738C307.079 43.3873 306.85 40.8073 306.391 37.998C305.99 35.1313 305.216 32.494 304.069 30.086C302.922 27.6207 301.374 25.5853 299.425 23.98C297.476 22.3173 294.982 21.486 291.943 21.486C288.904 21.486 286.382 22.3173 284.375 23.98C282.426 25.5853 280.878 27.6207 279.731 30.086C278.642 32.494 277.868 35.1027 277.409 37.912C277.008 40.7213 276.807 43.33 276.807 45.738ZM367.424 66.722C367.711 67.926 368.456 68.5853 369.66 68.7L372.842 69.044C374.218 69.1587 374.906 69.8467 374.906 71.108C374.906 72.4267 374.276 73.2007 373.014 73.43C372.097 73.5447 371.208 73.6307 370.348 73.688C369.488 73.8027 368.628 73.86 367.768 73.86C364.844 73.86 362.494 73.4587 360.716 72.656C358.939 71.8533 357.792 70.2193 357.276 67.754L354.61 55.628C353.922 52.6467 352.804 50.6687 351.256 49.694C349.766 48.662 347.53 48.146 344.548 48.146H341.452V58.38C341.452 59.756 341.452 61.132 341.452 62.508C341.51 63.8267 341.538 65.1453 341.538 66.464C341.596 67.7253 342.284 68.442 343.602 68.614L346.87 68.958C348.189 69.13 348.848 69.8467 348.848 71.108C348.848 72.3693 348.132 73 346.698 73H326.402C324.969 73 324.252 72.3693 324.252 71.108C324.252 69.8467 324.94 69.1587 326.316 69.044L329.412 68.7C330.731 68.528 331.419 67.7827 331.476 66.464C331.476 65.088 331.476 63.712 331.476 62.336C331.534 60.9027 331.562 59.4693 331.562 58.036V33.44C331.562 32.0067 331.534 30.602 331.476 29.226C331.476 27.7927 331.476 26.3593 331.476 24.926C331.362 23.6073 330.674 22.862 329.412 22.69L326.316 22.346C324.94 22.174 324.252 21.486 324.252 20.282C324.252 19.0207 324.969 18.39 326.402 18.39H348.762C355.069 18.39 359.942 19.6227 363.382 22.088C366.822 24.5533 368.542 27.936 368.542 32.236C368.542 36.192 367.31 39.374 364.844 41.782C362.436 44.19 359.398 45.7667 355.728 46.512C358.136 47.2573 360.086 48.49 361.576 50.21C363.124 51.8727 364.3 54.1947 365.102 57.176L367.424 66.722ZM341.452 43.932H346.44C350.11 43.932 353.062 43.0433 355.298 41.266C357.592 39.4313 358.738 36.5933 358.738 32.752C358.738 29.4267 357.792 26.904 355.9 25.184C354.008 23.464 350.998 22.604 346.87 22.604H341.624C341.567 24.324 341.51 26.044 341.452 27.764C341.452 29.484 341.452 31.2327 341.452 33.01V43.932Z" transform="translate(-3 -17)" fill="#ADE4FF" fill-opacity="0.8"/>
</svg>
