<svg width="375" height="55" viewBox="0 0 375 55" fill="none" xmlns="http://www.w3.org/2000/svg">
<path d="M2.916 19.347C2.916 18.159 3.591 17.565 4.941 17.565H26.244C30.186 17.565 33.696 18.186 36.774 19.428C39.906 20.616 42.552 22.317 44.712 24.531C46.926 26.745 48.6 29.445 49.734 32.631C50.922 35.763 51.516 39.273 51.516 43.161C51.516 47.211 50.841 50.856 49.491 54.096C48.195 57.282 46.359 59.982 43.983 62.196C41.661 64.41 38.826 66.111 35.478 67.299C32.184 68.433 28.566 69 24.624 69H4.941C3.591 69 2.916 68.406 2.916 67.218C2.916 66.03 3.564 65.382 4.86 65.274L7.776 64.95C9.018 64.788 9.666 64.113 9.72 62.925C9.72 61.521 9.72 60.171 9.72 58.875C9.774 57.525 9.801 56.148 9.801 54.744V31.74C9.801 30.39 9.774 29.067 9.72 27.771C9.72 26.421 9.72 25.071 9.72 23.721C9.612 22.479 8.964 21.777 7.776 21.615L4.86 21.291C3.564 21.129 2.916 20.481 2.916 19.347ZM19.359 65.031H24.219C27.351 65.031 29.997 64.41 32.157 63.168C34.317 61.926 36.072 60.306 37.422 58.308C38.826 56.256 39.825 53.934 40.419 51.342C41.013 48.75 41.31 46.077 41.31 43.323C41.31 36.195 39.717 30.795 36.531 27.123C33.399 23.397 29.268 21.534 24.138 21.534H19.359C19.305 23.208 19.251 24.855 19.197 26.475C19.197 28.095 19.197 29.769 19.197 31.497V54.825C19.197 56.553 19.197 58.254 19.197 59.928C19.251 61.602 19.305 63.303 19.359 65.031ZM93.3829 57.174C93.6529 55.932 94.3819 55.311 95.5699 55.311H96.7039C98.1619 55.311 98.8369 56.013 98.7289 57.417L98.3239 67.056C98.2699 68.352 97.5949 69 96.2989 69H59.3629C58.0129 69 57.3379 68.406 57.3379 67.218C57.3379 66.03 57.9859 65.382 59.2819 65.274L62.1979 64.95C63.4399 64.788 64.0879 64.086 64.1419 62.844C64.1419 61.548 64.1419 60.252 64.1419 58.956C64.1959 57.606 64.2229 56.256 64.2229 54.906V31.74C64.2229 30.39 64.1959 29.067 64.1419 27.771C64.1419 26.421 64.1419 25.071 64.1419 23.721C64.0339 22.479 63.3859 21.777 62.1979 21.615L59.2819 21.291C57.9859 21.129 57.3379 20.481 57.3379 19.347C57.3379 18.159 58.0129 17.565 59.3629 17.565H94.7599C96.0559 17.565 96.7309 18.213 96.7849 19.509L97.1899 29.148C97.2979 30.552 96.6229 31.254 95.1649 31.254H94.0309C92.7889 31.254 92.0599 30.66 91.8439 29.472L90.7099 23.478C90.4939 22.29 89.7649 21.696 88.5229 21.696H73.7809C73.7269 23.262 73.6729 24.828 73.6189 26.394C73.6189 27.906 73.6189 29.445 73.6189 31.011V40.569H82.5289C83.7709 40.569 84.4729 39.948 84.6349 38.706L85.1209 35.304C85.2829 34.062 85.9849 33.441 87.2269 33.441C88.5769 33.441 89.2519 34.116 89.2519 35.466V49.56C89.2519 50.91 88.6039 51.585 87.3079 51.585C86.0119 51.585 85.2829 50.964 85.1209 49.722L84.7159 46.401C84.5539 45.159 83.8249 44.538 82.5289 44.538H73.6189V55.068C73.6189 56.742 73.6189 58.416 73.6189 60.09C73.6729 61.71 73.7269 63.33 73.7809 64.95H90.1429C91.3309 64.95 92.0599 64.329 92.3299 63.087L93.3829 57.174ZM121.421 37.896L124.985 39.273C126.821 39.921 128.603 40.704 130.331 41.622C132.059 42.486 133.571 43.539 134.867 44.781C136.217 45.969 137.297 47.4 138.107 49.074C138.917 50.694 139.322 52.584 139.322 54.744C139.322 57.39 138.728 59.685 137.54 61.629C136.406 63.573 134.894 65.193 133.004 66.489C131.168 67.731 129.089 68.649 126.767 69.243C124.445 69.891 122.123 70.215 119.801 70.215C117.155 70.215 114.59 69.918 112.106 69.324C109.622 68.73 107.408 67.947 105.464 66.975C104.6 66.489 104.168 65.679 104.168 64.545L104.411 57.012C104.519 55.662 105.221 54.987 106.517 54.987H108.299C109.487 54.987 110.216 55.608 110.486 56.85L111.539 62.682C111.647 63.438 111.998 64.059 112.592 64.545C113.24 64.977 113.969 65.328 114.779 65.598C115.643 65.814 116.507 65.949 117.371 66.003C118.289 66.057 119.045 66.084 119.639 66.084C123.149 66.084 125.903 65.328 127.901 63.816C129.899 62.25 130.898 60.036 130.898 57.174C130.898 55.878 130.628 54.771 130.088 53.853C129.602 52.935 128.927 52.152 128.063 51.504C127.253 50.802 126.308 50.235 125.228 49.803C124.202 49.317 123.149 48.885 122.069 48.507L118.667 47.292C114.293 45.564 110.837 43.431 108.299 40.893C105.815 38.355 104.573 35.142 104.573 31.254C104.573 28.716 105.086 26.529 106.112 24.693C107.192 22.803 108.569 21.237 110.243 19.995C111.971 18.753 113.915 17.835 116.075 17.241C118.289 16.647 120.53 16.35 122.798 16.35C125.228 16.35 127.469 16.647 129.521 17.241C131.573 17.835 133.463 18.618 135.191 19.59C136.163 20.13 136.595 20.967 136.487 22.101L136.082 28.986C136.028 30.282 135.353 30.93 134.057 30.93H132.275C131.087 30.93 130.358 30.309 130.088 29.067L129.035 23.397C128.873 22.317 128.306 21.615 127.334 21.291C125.876 20.751 124.31 20.481 122.636 20.481C121.34 20.481 120.098 20.67 118.91 21.048C117.722 21.372 116.669 21.885 115.751 22.587C114.833 23.235 114.104 24.099 113.564 25.179C113.024 26.205 112.754 27.447 112.754 28.905C112.754 31.281 113.483 33.117 114.941 34.413C116.399 35.655 118.559 36.816 121.421 37.896ZM167.911 19.347C167.911 20.535 167.263 21.21 165.967 21.372L163.051 21.696C161.809 21.858 161.161 22.533 161.107 23.721C161.107 25.071 161.08 26.394 161.026 27.69C161.026 28.986 161.026 30.309 161.026 31.659V54.825C161.026 56.175 161.026 57.525 161.026 58.875C161.08 60.171 161.107 61.494 161.107 62.844C161.161 64.086 161.809 64.788 163.051 64.95L165.967 65.274C167.263 65.436 167.911 66.084 167.911 67.218C167.911 68.406 167.236 69 165.886 69H146.77C145.42 69 144.745 68.406 144.745 67.218C144.745 66.03 145.393 65.382 146.689 65.274L149.605 64.95C150.847 64.788 151.495 64.086 151.549 62.844C151.549 61.548 151.549 60.252 151.549 58.956C151.603 57.606 151.63 56.256 151.63 54.906V31.74C151.63 30.39 151.603 29.067 151.549 27.771C151.549 26.421 151.549 25.071 151.549 23.721C151.441 22.479 150.793 21.777 149.605 21.615L146.689 21.291C145.393 21.129 144.745 20.481 144.745 19.347C144.745 18.159 145.42 17.565 146.77 17.565H165.886C167.236 17.565 167.911 18.159 167.911 19.347ZM220.026 44.619C221.376 44.619 222.051 45.186 222.051 46.32C222.051 47.508 221.43 48.183 220.188 48.345L219.459 48.426C218.217 48.588 217.596 49.29 217.596 50.532C217.542 52.476 217.488 54.42 217.434 56.364C217.434 58.254 217.434 60.225 217.434 62.277V64.059C217.434 65.193 216.948 65.976 215.976 66.408C213.492 67.65 211.008 68.595 208.524 69.243C206.04 69.891 203.34 70.215 200.424 70.215C196.482 70.215 192.891 69.54 189.651 68.19C186.411 66.84 183.603 64.977 181.227 62.601C178.851 60.225 177.015 57.39 175.719 54.096C174.423 50.802 173.775 47.211 173.775 43.323C173.775 39.327 174.45 35.682 175.8 32.388C177.15 29.094 179.013 26.259 181.389 23.883C183.819 21.507 186.708 19.671 190.056 18.375C193.404 17.025 197.049 16.35 200.991 16.35C203.583 16.35 205.986 16.593 208.2 17.079C210.468 17.565 212.736 18.348 215.004 19.428C215.976 19.86 216.462 20.643 216.462 21.777L216.624 29.229C216.624 30.579 215.976 31.254 214.68 31.254H213.06C211.764 31.254 211.035 30.633 210.873 29.391L209.982 23.883C209.82 22.803 209.253 22.074 208.281 21.696C206.121 20.886 203.88 20.481 201.558 20.481C198.372 20.481 195.645 21.156 193.377 22.506C191.163 23.856 189.354 25.611 187.95 27.771C186.6 29.931 185.601 32.388 184.953 35.142C184.359 37.842 184.062 40.569 184.062 43.323C184.062 46.185 184.386 48.966 185.034 51.666C185.682 54.366 186.708 56.796 188.112 58.956C189.57 61.116 191.433 62.844 193.701 64.14C195.969 65.436 198.723 66.084 201.963 66.084C203.529 66.084 205.041 65.922 206.499 65.598C207.579 65.274 208.119 64.626 208.119 63.654V62.277C208.119 60.387 208.092 58.47 208.038 56.526C208.038 54.582 208.011 52.665 207.957 50.775C207.957 49.533 207.336 48.831 206.094 48.669L203.016 48.345C201.72 48.183 201.072 47.508 201.072 46.32C201.072 45.186 201.747 44.619 203.097 44.619H220.026ZM277.323 17.565C278.673 17.565 279.348 18.159 279.348 19.347C279.348 20.589 278.727 21.291 277.485 21.453L274.326 21.939C273.084 22.101 272.463 22.803 272.463 24.045V67.785C272.463 69.135 271.923 69.81 270.843 69.81H270.762C269.736 69.81 268.899 69.405 268.251 68.595L237.39 28.5V62.52C237.39 63.816 238.038 64.545 239.334 64.707L244.032 65.193C245.328 65.355 245.976 66.03 245.976 67.218C245.976 68.406 245.301 69 243.951 69H228.156C226.806 69 226.131 68.406 226.131 67.218C226.131 66.03 226.752 65.355 227.994 65.193L231.234 64.788C232.476 64.626 233.097 63.897 233.097 62.601V24.369C233.097 23.397 232.935 22.722 232.611 22.344C232.287 21.912 231.639 21.669 230.667 21.615L228.561 21.372C227.319 21.21 226.698 20.535 226.698 19.347C226.698 18.159 227.373 17.565 228.723 17.565H238.848C239.82 17.565 240.63 17.97 241.278 18.78L268.17 54.015V24.126C268.17 22.83 267.549 22.101 266.307 21.939L261.447 21.372C260.205 21.21 259.584 20.535 259.584 19.347C259.584 18.159 260.259 17.565 261.609 17.565H277.323ZM320.8 57.174C321.07 55.932 321.799 55.311 322.987 55.311H324.121C325.579 55.311 326.254 56.013 326.146 57.417L325.741 67.056C325.687 68.352 325.012 69 323.716 69H286.78C285.43 69 284.755 68.406 284.755 67.218C284.755 66.03 285.403 65.382 286.699 65.274L289.615 64.95C290.857 64.788 291.505 64.086 291.559 62.844C291.559 61.548 291.559 60.252 291.559 58.956C291.613 57.606 291.64 56.256 291.64 54.906V31.74C291.64 30.39 291.613 29.067 291.559 27.771C291.559 26.421 291.559 25.071 291.559 23.721C291.451 22.479 290.803 21.777 289.615 21.615L286.699 21.291C285.403 21.129 284.755 20.481 284.755 19.347C284.755 18.159 285.43 17.565 286.78 17.565H322.177C323.473 17.565 324.148 18.213 324.202 19.509L324.607 29.148C324.715 30.552 324.04 31.254 322.582 31.254H321.448C320.206 31.254 319.477 30.66 319.261 29.472L318.127 23.478C317.911 22.29 317.182 21.696 315.94 21.696H301.198C301.144 23.262 301.09 24.828 301.036 26.394C301.036 27.906 301.036 29.445 301.036 31.011V40.569H309.946C311.188 40.569 311.89 39.948 312.052 38.706L312.538 35.304C312.7 34.062 313.402 33.441 314.644 33.441C315.994 33.441 316.669 34.116 316.669 35.466V49.56C316.669 50.91 316.021 51.585 314.725 51.585C313.429 51.585 312.7 50.964 312.538 49.722L312.133 46.401C311.971 45.159 311.242 44.538 309.946 44.538H301.036V55.068C301.036 56.742 301.036 58.416 301.036 60.09C301.09 61.71 301.144 63.33 301.198 64.95H317.56C318.748 64.95 319.477 64.329 319.747 63.087L320.8 57.174ZM372.166 63.087C372.436 64.221 373.138 64.842 374.272 64.95L377.269 65.274C378.565 65.382 379.213 66.03 379.213 67.218C379.213 68.46 378.619 69.189 377.431 69.405C376.567 69.513 375.73 69.594 374.92 69.648C374.11 69.756 373.3 69.81 372.49 69.81C369.736 69.81 367.522 69.432 365.848 68.676C364.174 67.92 363.094 66.381 362.608 64.059L360.097 52.638C359.449 49.83 358.396 47.967 356.938 47.049C355.534 46.077 353.428 45.591 350.62 45.591H347.704V55.23C347.704 56.526 347.704 57.822 347.704 59.118C347.758 60.36 347.785 61.602 347.785 62.844C347.839 64.032 348.487 64.707 349.729 64.869L352.807 65.193C354.049 65.355 354.67 66.03 354.67 67.218C354.67 68.406 353.995 69 352.645 69H333.529C332.179 69 331.504 68.406 331.504 67.218C331.504 66.03 332.152 65.382 333.448 65.274L336.364 64.95C337.606 64.788 338.254 64.086 338.308 62.844C338.308 61.548 338.308 60.252 338.308 58.956C338.362 57.606 338.389 56.256 338.389 54.906V31.74C338.389 30.39 338.362 29.067 338.308 27.771C338.308 26.421 338.308 25.071 338.308 23.721C338.2 22.479 337.552 21.777 336.364 21.615L333.448 21.291C332.152 21.129 331.504 20.481 331.504 19.347C331.504 18.159 332.179 17.565 333.529 17.565H354.589C360.529 17.565 365.119 18.726 368.359 21.048C371.599 23.37 373.219 26.556 373.219 30.606C373.219 34.332 372.058 37.329 369.736 39.597C367.468 41.865 364.606 43.35 361.15 44.052C363.418 44.754 365.254 45.915 366.658 47.535C368.116 49.101 369.223 51.288 369.979 54.096L372.166 63.087ZM347.704 41.622H352.402C355.858 41.622 358.639 40.785 360.745 39.111C362.905 37.383 363.985 34.71 363.985 31.092C363.985 27.96 363.094 25.584 361.312 23.964C359.53 22.344 356.695 21.534 352.807 21.534H347.866C347.812 23.154 347.758 24.774 347.704 26.394C347.704 28.014 347.704 29.661 347.704 31.335V41.622Z" transform="translate(-4 -16)" fill="#ADE4FF" fill-opacity="0.8"/>
</svg>
