<svg width="375" height="54" viewBox="0 0 375 54" fill="none" xmlns="http://www.w3.org/2000/svg">
<path d="M2.952 19.734C2.952 18.5313 3.63533 17.93 5.002 17.93H26.568C30.5587 17.93 34.112 18.5587 37.228 19.816C40.3987 21.0187 43.0773 22.7407 45.264 24.982C47.5053 27.2233 49.2 29.9567 50.348 33.182C51.5507 36.3527 52.152 39.906 52.152 43.842C52.152 47.942 51.4687 51.632 50.102 54.912C48.79 58.1373 46.9313 60.8707 44.526 63.112C42.1753 65.3533 39.3053 67.0753 35.916 68.278C32.5813 69.426 28.9187 70 24.928 70H5.002C3.63533 70 2.952 69.3987 2.952 68.196C2.952 66.9933 3.608 66.3373 4.92 66.228L7.872 65.9C9.12933 65.736 9.78533 65.0527 9.84 63.85C9.84 62.4287 9.84 61.062 9.84 59.75C9.89467 58.3833 9.922 56.9893 9.922 55.568V32.28C9.922 30.9133 9.89467 29.574 9.84 28.262C9.84 26.8953 9.84 25.5287 9.84 24.162C9.73067 22.9047 9.07467 22.194 7.872 22.03L4.92 21.702C3.608 21.538 2.952 20.882 2.952 19.734ZM19.598 65.982H24.518C27.6887 65.982 30.3673 65.3533 32.554 64.096C34.7407 62.8387 36.5173 61.1987 37.884 59.176C39.3053 57.0987 40.3167 54.748 40.918 52.124C41.5193 49.5 41.82 46.794 41.82 44.006C41.82 36.79 40.2073 31.3233 36.982 27.606C33.8113 23.834 29.6293 21.948 24.436 21.948H19.598C19.5433 23.6427 19.4887 25.31 19.434 26.95C19.434 28.59 19.434 30.2847 19.434 32.034V55.65C19.434 57.3993 19.434 59.1213 19.434 60.816C19.4887 62.5107 19.5433 64.2327 19.598 65.982ZM99.2097 64.014C99.4831 65.162 100.194 65.7907 101.342 65.9L104.376 66.228C105.688 66.3373 106.344 66.9933 106.344 68.196C106.344 69.4533 105.742 70.1913 104.54 70.41C103.665 70.5193 102.818 70.6013 101.998 70.656C101.178 70.7653 100.358 70.82 99.5377 70.82C96.7497 70.82 94.5084 70.4373 92.8138 69.672C91.1191 68.9067 90.0257 67.3487 89.5337 64.998L86.9917 53.436C86.3358 50.5933 85.2698 48.7073 83.7937 47.778C82.3724 46.794 80.2404 46.302 77.3978 46.302H74.4458V56.06C74.4458 57.372 74.4458 58.684 74.4458 59.996C74.5004 61.2533 74.5278 62.5107 74.5278 63.768C74.5824 64.9707 75.2384 65.654 76.4958 65.818L79.6117 66.146C80.8691 66.31 81.4977 66.9933 81.4977 68.196C81.4977 69.3987 80.8144 70 79.4477 70H60.0958C58.7291 70 58.0457 69.3987 58.0457 68.196C58.0457 66.9933 58.7017 66.3373 60.0137 66.228L62.9658 65.9C64.2231 65.736 64.8791 65.0253 64.9337 63.768C64.9337 62.456 64.9337 61.144 64.9337 59.832C64.9884 58.4653 65.0157 57.0987 65.0157 55.732V32.28C65.0157 30.9133 64.9884 29.574 64.9337 28.262C64.9337 26.8953 64.9337 25.5287 64.9337 24.162C64.8244 22.9047 64.1684 22.194 62.9658 22.03L60.0137 21.702C58.7017 21.538 58.0457 20.882 58.0457 19.734C58.0457 18.5313 58.7291 17.93 60.0958 17.93H81.4158C87.4291 17.93 92.0757 19.1053 95.3557 21.456C98.6357 23.8067 100.276 27.032 100.276 31.132C100.276 34.904 99.1004 37.938 96.7498 40.234C94.4537 42.53 91.5564 44.0333 88.0578 44.744C90.3538 45.4547 92.2124 46.63 93.6337 48.27C95.1098 49.8553 96.2304 52.0693 96.9957 54.912L99.2097 64.014ZM74.4458 42.284H79.2017C82.7004 42.284 85.5158 41.4367 87.6478 39.742C89.8344 37.9927 90.9278 35.2867 90.9278 31.624C90.9278 28.4533 90.0258 26.048 88.2218 24.408C86.4177 22.768 83.5477 21.948 79.6117 21.948H74.6098C74.5551 23.588 74.5004 25.228 74.4458 26.868C74.4458 28.508 74.4458 30.1753 74.4458 31.87V42.284ZM146.587 58.028C146.86 56.7707 147.598 56.142 148.801 56.142H149.949C151.425 56.142 152.108 56.8527 151.999 58.274L151.589 68.032C151.534 69.344 150.851 70 149.539 70H112.147C110.78 70 110.097 69.3987 110.097 68.196C110.097 66.9933 110.753 66.3373 112.065 66.228L115.017 65.9C116.274 65.736 116.93 65.0253 116.985 63.768C116.985 62.456 116.985 61.144 116.985 59.832C117.039 58.4653 117.067 57.0987 117.067 55.732V32.28C117.067 30.9133 117.039 29.574 116.985 28.262C116.985 26.8953 116.985 25.5287 116.985 24.162C116.875 22.9047 116.219 22.194 115.017 22.03L112.065 21.702C110.753 21.538 110.097 20.882 110.097 19.734C110.097 18.5313 110.78 17.93 112.147 17.93H147.981C149.293 17.93 149.976 18.586 150.031 19.898L150.441 29.656C150.55 31.0773 149.867 31.788 148.391 31.788H147.243C145.985 31.788 145.247 31.1867 145.029 29.984L143.881 23.916C143.662 22.7133 142.924 22.112 141.667 22.112H126.743C126.688 23.6973 126.633 25.2827 126.579 26.868C126.579 28.3987 126.579 29.9567 126.579 31.542V41.218H135.599C136.856 41.218 137.567 40.5893 137.731 39.332L138.223 35.888C138.387 34.6307 139.097 34.002 140.355 34.002C141.721 34.002 142.405 34.6853 142.405 36.052V50.32C142.405 51.6867 141.749 52.37 140.437 52.37C139.125 52.37 138.387 51.7413 138.223 50.484L137.813 47.122C137.649 45.8647 136.911 45.236 135.599 45.236H126.579V55.896C126.579 57.5907 126.579 59.2853 126.579 60.98C126.633 62.62 126.688 64.26 126.743 65.9H143.307C144.509 65.9 145.247 65.2713 145.521 64.014L146.587 58.028ZM200.473 64.342C200.855 65.4353 201.593 66.0093 202.687 66.064L204.655 66.31C205.967 66.474 206.623 67.1027 206.623 68.196C206.623 69.3987 205.939 70 204.573 70H186.369C185.002 70 184.319 69.3987 184.319 68.196C184.319 67.048 184.947 66.392 186.205 66.228L188.993 65.9C189.703 65.7907 190.195 65.5173 190.469 65.08C190.797 64.6427 190.824 64.096 190.551 63.44L187.025 53.436H170.051L166.525 63.276C166.033 64.752 166.525 65.572 168.001 65.736L170.871 66.146C172.128 66.31 172.757 66.9933 172.757 68.196C172.757 69.3987 172.073 70 170.707 70H156.931C155.564 70 154.881 69.3987 154.881 68.196C154.881 66.9933 155.509 66.31 156.767 66.146L159.965 65.654C161.058 65.49 161.796 64.8887 162.179 63.85L178.333 19.57C178.77 18.4767 179.535 17.93 180.629 17.93H181.859C182.952 17.93 183.717 18.4767 184.155 19.57L200.473 64.342ZM171.445 49.418H185.713L178.743 29.328L171.445 49.418ZM275.634 19.734C275.634 20.9367 274.978 21.62 273.666 21.784L270.796 22.112C269.539 22.276 268.883 22.9593 268.828 24.162C268.828 25.5287 268.801 26.868 268.746 28.18C268.746 29.492 268.746 30.8313 268.746 32.198V55.65C268.746 57.0167 268.746 58.3833 268.746 59.75C268.801 61.062 268.828 62.4013 268.828 63.768C268.937 65.1347 269.593 65.8453 270.796 65.9L273.666 66.228C274.978 66.392 275.634 67.048 275.634 68.196C275.634 69.3987 274.951 70 273.584 70H254.642C253.275 70 252.592 69.3987 252.592 68.196C252.592 67.048 253.248 66.392 254.56 66.228L257.266 65.982C258.523 65.818 259.152 65.1073 259.152 63.85C259.207 62.4833 259.234 61.144 259.234 59.832C259.234 58.4653 259.234 57.0987 259.234 55.732V30.394L241.44 70H238.57L220.612 30.23V63.522C220.612 64.7793 221.241 65.49 222.498 65.654L225.696 66.146C226.953 66.31 227.582 66.9933 227.582 68.196C227.582 69.3987 226.899 70 225.532 70H211.182C209.815 70 209.132 69.3987 209.132 68.196C209.132 66.9933 209.761 66.31 211.018 66.146L214.544 65.654C215.801 65.49 216.43 64.7793 216.43 63.522V24.326C216.43 23.014 215.801 22.276 214.544 22.112L211.51 21.784C210.253 21.62 209.624 20.9367 209.624 19.734C209.624 18.5313 210.307 17.93 211.674 17.93H224.548L242.67 57.454L259.972 19.488C260.464 18.4493 261.284 17.93 262.432 17.93H273.584C274.951 17.93 275.634 18.5313 275.634 19.734ZM318.114 58.028C318.387 56.7707 319.125 56.142 320.328 56.142H321.476C322.952 56.142 323.635 56.8527 323.526 58.274L323.116 68.032C323.061 69.344 322.378 70 321.066 70H283.674C282.307 70 281.624 69.3987 281.624 68.196C281.624 66.9933 282.28 66.3373 283.592 66.228L286.544 65.9C287.801 65.736 288.457 65.0253 288.512 63.768C288.512 62.456 288.512 61.144 288.512 59.832C288.567 58.4653 288.594 57.0987 288.594 55.732V32.28C288.594 30.9133 288.567 29.574 288.512 28.262C288.512 26.8953 288.512 25.5287 288.512 24.162C288.403 22.9047 287.747 22.194 286.544 22.03L283.592 21.702C282.28 21.538 281.624 20.882 281.624 19.734C281.624 18.5313 282.307 17.93 283.674 17.93H319.508C320.82 17.93 321.503 18.586 321.558 19.898L321.968 29.656C322.077 31.0773 321.394 31.788 319.918 31.788H318.77C317.513 31.788 316.775 31.1867 316.556 29.984L315.408 23.916C315.189 22.7133 314.451 22.112 313.194 22.112H298.27C298.215 23.6973 298.161 25.2827 298.106 26.868C298.106 28.3987 298.106 29.9567 298.106 31.542V41.218H307.126C308.383 41.218 309.094 40.5893 309.258 39.332L309.75 35.888C309.914 34.6307 310.625 34.002 311.882 34.002C313.249 34.002 313.932 34.6853 313.932 36.052V50.32C313.932 51.6867 313.276 52.37 311.964 52.37C310.652 52.37 309.914 51.7413 309.75 50.484L309.34 47.122C309.176 45.8647 308.438 45.236 307.126 45.236H298.106V55.896C298.106 57.5907 298.106 59.2853 298.106 60.98C298.161 62.62 298.215 64.26 298.27 65.9H314.834C316.037 65.9 316.775 65.2713 317.048 64.014L318.114 58.028ZM370.114 64.014C370.387 65.162 371.098 65.7907 372.246 65.9L375.28 66.228C376.592 66.3373 377.248 66.9933 377.248 68.196C377.248 69.4533 376.647 70.1913 375.444 70.41C374.569 70.5193 373.722 70.6013 372.902 70.656C372.082 70.7653 371.262 70.82 370.442 70.82C367.654 70.82 365.413 70.4373 363.718 69.672C362.023 68.9067 360.93 67.3487 360.438 64.998L357.896 53.436C357.24 50.5933 356.174 48.7073 354.698 47.778C353.277 46.794 351.145 46.302 348.302 46.302H345.35V56.06C345.35 57.372 345.35 58.684 345.35 59.996C345.405 61.2533 345.432 62.5107 345.432 63.768C345.487 64.9707 346.143 65.654 347.4 65.818L350.516 66.146C351.773 66.31 352.402 66.9933 352.402 68.196C352.402 69.3987 351.719 70 350.352 70H331C329.633 70 328.95 69.3987 328.95 68.196C328.95 66.9933 329.606 66.3373 330.918 66.228L333.87 65.9C335.127 65.736 335.783 65.0253 335.838 63.768C335.838 62.456 335.838 61.144 335.838 59.832C335.893 58.4653 335.92 57.0987 335.92 55.732V32.28C335.92 30.9133 335.893 29.574 335.838 28.262C335.838 26.8953 335.838 25.5287 335.838 24.162C335.729 22.9047 335.073 22.194 333.87 22.03L330.918 21.702C329.606 21.538 328.95 20.882 328.95 19.734C328.95 18.5313 329.633 17.93 331 17.93H352.32C358.333 17.93 362.98 19.1053 366.26 21.456C369.54 23.8067 371.18 27.032 371.18 31.132C371.18 34.904 370.005 37.938 367.654 40.234C365.358 42.53 362.461 44.0333 358.962 44.744C361.258 45.4547 363.117 46.63 364.538 48.27C366.014 49.8553 367.135 52.0693 367.9 54.912L370.114 64.014ZM345.35 42.284H350.106C353.605 42.284 356.42 41.4367 358.552 39.742C360.739 37.9927 361.832 35.2867 361.832 31.624C361.832 28.4533 360.93 26.048 359.126 24.408C357.322 22.768 354.452 21.948 350.516 21.948H345.514C345.459 23.588 345.405 25.228 345.35 26.868C345.35 28.508 345.35 30.1753 345.35 31.87V42.284Z" transform="translate(-2 -17)" fill="#ADE4FF" fill-opacity="0.8"/>
</svg>
