<svg width="374" height="40" viewBox="0 0 374 40" fill="none" xmlns="http://www.w3.org/2000/svg">
<path d="M33.385 30.445C34.3017 30.445 34.76 30.83 34.76 31.6C34.76 32.4067 34.3383 32.865 33.495 32.975L33 33.03C32.1567 33.14 31.735 33.6167 31.735 34.46C31.6983 35.78 31.6617 37.1 31.625 38.42C31.625 39.7033 31.625 41.0417 31.625 42.435V43.645C31.625 44.415 31.295 44.9467 30.635 45.24C28.9483 46.0833 27.2617 46.725 25.575 47.165C23.8883 47.605 22.055 47.825 20.075 47.825C17.3983 47.825 14.96 47.3667 12.76 46.45C10.56 45.5333 8.65333 44.2683 7.04 42.655C5.42667 41.0417 4.18 39.1167 3.3 36.88C2.42 34.6433 1.98 32.205 1.98 29.565C1.98 26.8517 2.43833 24.3767 3.355 22.14C4.27167 19.9033 5.53667 17.9783 7.15 16.365C8.8 14.7517 10.7617 13.505 13.035 12.625C15.3083 11.7083 17.7833 11.25 20.46 11.25C22.22 11.25 23.8517 11.415 25.355 11.745C26.895 12.075 28.435 12.6067 29.975 13.34C30.635 13.6333 30.965 14.165 30.965 14.935L31.075 19.995C31.075 20.9117 30.635 21.37 29.755 21.37H28.655C27.775 21.37 27.28 20.9483 27.17 20.105L26.565 16.365C26.455 15.6317 26.07 15.1367 25.41 14.88C23.9433 14.33 22.4217 14.055 20.845 14.055C18.6817 14.055 16.83 14.5133 15.29 15.43C13.7867 16.3467 12.5583 17.5383 11.605 19.005C10.6883 20.4717 10.01 22.14 9.57 24.01C9.16667 25.8433 8.965 27.695 8.965 29.565C8.965 31.5083 9.185 33.3967 9.625 35.23C10.065 37.0633 10.7617 38.7133 11.715 40.18C12.705 41.6467 13.97 42.82 15.51 43.7C17.05 44.58 18.92 45.02 21.12 45.02C22.1833 45.02 23.21 44.91 24.2 44.69C24.9333 44.47 25.3 44.03 25.3 43.37V42.435C25.3 41.1517 25.2817 39.85 25.245 38.53C25.245 37.21 25.2267 35.9083 25.19 34.625C25.19 33.7817 24.7683 33.305 23.925 33.195L21.835 32.975C20.955 32.865 20.515 32.4067 20.515 31.6C20.515 30.83 20.9733 30.445 21.89 30.445H33.385ZM62.0602 32.535C61.9135 33.3417 61.4002 33.745 60.5202 33.745H44.5702C44.6435 37.0817 45.4502 39.5933 46.9902 41.28C48.5302 42.9667 50.5285 43.81 52.9852 43.81C54.4152 43.81 55.6252 43.5533 56.6152 43.04C57.6419 42.49 58.5769 41.7383 59.4202 40.785C59.8235 40.345 60.2085 40.125 60.5752 40.125C60.7585 40.125 60.9235 40.18 61.0702 40.29C61.6202 40.6567 61.6935 41.2067 61.2902 41.94C60.3369 43.81 58.9619 45.24 57.1652 46.23C55.3685 47.22 53.2602 47.715 50.8402 47.715C48.7869 47.715 46.9535 47.3667 45.3402 46.67C43.7635 45.9733 42.4252 45.02 41.3252 43.81C40.2619 42.5633 39.4552 41.0967 38.9052 39.41C38.3552 37.7233 38.0802 35.89 38.0802 33.91C38.0802 32.0033 38.3919 30.1883 39.0152 28.465C39.6385 26.7417 40.5185 25.2383 41.6552 23.955C42.8285 22.635 44.2219 21.6083 45.8352 20.875C47.4852 20.105 49.3002 19.72 51.2802 19.72C52.9302 19.72 54.4152 19.995 55.7352 20.545C57.0919 21.095 58.2469 21.865 59.2002 22.855C60.1535 23.8083 60.8869 24.9633 61.4002 26.32C61.9135 27.6767 62.1702 29.18 62.1702 30.83C62.1702 31.1233 62.1702 31.4167 62.1702 31.71C62.1702 31.9667 62.1335 32.2417 62.0602 32.535ZM44.6802 31.215H52.9302C54.2502 31.215 55.1302 30.94 55.5702 30.39C56.0469 29.84 56.2852 29.07 56.2852 28.08C56.2852 26.43 55.8085 25.055 54.8552 23.955C53.9385 22.855 52.7835 22.305 51.3902 22.305C50.2535 22.305 49.2635 22.5983 48.4202 23.185C47.6135 23.735 46.9352 24.45 46.3852 25.33C45.8719 26.21 45.4685 27.1817 45.1752 28.245C44.9185 29.2717 44.7535 30.2617 44.6802 31.215ZM79.8007 43.37C80.204 43.15 80.5524 43.04 80.8457 43.04C81.139 43.04 81.3957 43.1683 81.6157 43.425C82.0924 44.0117 82.0557 44.5983 81.5057 45.185C80.809 45.9183 79.9474 46.505 78.9207 46.945C77.9307 47.3483 76.739 47.55 75.3457 47.55C73.329 47.55 71.734 47.055 70.5607 46.065C69.424 45.0383 68.8557 43.4433 68.8557 41.28C68.8557 40.8033 68.8557 40.3817 68.8557 40.015C68.8557 39.6117 68.874 39.2267 68.9107 38.86V26.32C68.9107 25.4033 68.4524 24.945 67.5357 24.945H66.3807C65.464 24.945 65.0057 24.505 65.0057 23.625C65.0057 22.7817 65.4274 22.305 66.2707 22.195L68.1957 21.975C68.9657 21.865 69.424 21.425 69.5707 20.655L70.5607 15.705C70.7074 14.8983 71.2024 14.495 72.0457 14.495H73.5857C74.4657 14.495 74.9057 14.9533 74.9057 15.87L74.7957 20.49C74.7957 21.4067 75.254 21.865 76.1707 21.865H79.9657C80.8824 21.865 81.3407 22.3233 81.3407 23.24V23.57C81.3407 24.4867 80.8824 24.945 79.9657 24.945H76.1157C75.199 24.945 74.7407 25.4033 74.7407 26.32V40.235C74.7407 41.5917 74.9974 42.5633 75.5107 43.15C76.0607 43.7367 76.7574 44.03 77.6007 44.03C77.894 44.03 78.224 43.9933 78.5907 43.92C78.994 43.81 79.3974 43.6267 79.8007 43.37ZM110.201 43.37C110.604 43.15 110.953 43.04 111.246 43.04C111.539 43.04 111.796 43.1683 112.016 43.425C112.493 44.0117 112.456 44.5983 111.906 45.185C111.209 45.9183 110.348 46.505 109.321 46.945C108.331 47.3483 107.139 47.55 105.746 47.55C103.729 47.55 102.134 47.055 100.961 46.065C99.8244 45.0383 99.2561 43.4433 99.2561 41.28C99.2561 40.8033 99.2561 40.3817 99.2561 40.015C99.2561 39.6117 99.2744 39.2267 99.3111 38.86V26.32C99.3111 25.4033 98.8528 24.945 97.9361 24.945H96.7811C95.8644 24.945 95.4061 24.505 95.4061 23.625C95.4061 22.7817 95.8278 22.305 96.6711 22.195L98.5961 21.975C99.3661 21.865 99.8244 21.425 99.9711 20.655L100.961 15.705C101.108 14.8983 101.603 14.495 102.446 14.495H103.986C104.866 14.495 105.306 14.9533 105.306 15.87L105.196 20.49C105.196 21.4067 105.654 21.865 106.571 21.865H110.366C111.283 21.865 111.741 22.3233 111.741 23.24V23.57C111.741 24.4867 111.283 24.945 110.366 24.945H106.516C105.599 24.945 105.141 25.4033 105.141 26.32V40.235C105.141 41.5917 105.398 42.5633 105.911 43.15C106.461 43.7367 107.158 44.03 108.001 44.03C108.294 44.03 108.624 43.9933 108.991 43.92C109.394 43.81 109.798 43.6267 110.201 43.37ZM127.479 20.93C129.386 20.93 131.128 21.2967 132.704 22.03C134.281 22.7267 135.619 23.6983 136.719 24.945C137.856 26.155 138.718 27.585 139.304 29.235C139.928 30.8483 140.239 32.59 140.239 34.46C140.239 36.3667 139.928 38.145 139.304 39.795C138.718 41.4083 137.874 42.82 136.774 44.03C135.674 45.2033 134.336 46.1383 132.759 46.835C131.183 47.495 129.423 47.825 127.479 47.825C125.536 47.825 123.776 47.495 122.199 46.835C120.623 46.1383 119.284 45.2033 118.184 44.03C117.084 42.82 116.223 41.4083 115.599 39.795C115.013 38.145 114.719 36.3667 114.719 34.46C114.719 32.59 115.013 30.83 115.599 29.18C116.223 27.53 117.084 26.1 118.184 24.89C119.321 23.68 120.659 22.7267 122.199 22.03C123.776 21.2967 125.536 20.93 127.479 20.93ZM127.479 23.405C123.263 23.405 121.154 27.0717 121.154 34.405C121.154 41.665 123.263 45.295 127.479 45.295C131.696 45.295 133.804 41.665 133.804 34.405C133.804 27.0717 131.696 23.405 127.479 23.405ZM180.704 43.26C181.07 43.8467 181.565 44.2133 182.189 44.36L183.619 44.635C184.425 44.8183 184.829 45.2583 184.829 45.955C184.829 46.6517 184.37 47 183.454 47H177.349C176.652 47 176.102 46.6883 175.699 46.065L168.659 34.35L165.689 37.375C165.689 38.255 165.689 39.1717 165.689 40.125C165.725 41.0783 165.744 42.0317 165.744 42.985C165.817 43.8283 166.239 44.3233 167.009 44.47L168.219 44.69C169.062 44.8733 169.484 45.295 169.484 45.955C169.484 46.6517 169.025 47 168.109 47H157.549C156.632 47 156.174 46.6517 156.174 45.955C156.174 45.295 156.595 44.8733 157.439 44.69L158.649 44.47C159.455 44.3233 159.859 43.8283 159.859 42.985C159.895 41.8117 159.914 40.62 159.914 39.41C159.95 38.1633 159.969 37.0083 159.969 35.945V14.935C159.969 14.0917 159.547 13.615 158.704 13.505L157.054 13.285C156.21 13.175 155.789 12.79 155.789 12.13C155.789 11.47 156.174 11.03 156.944 10.81L164.149 8.94C164.332 8.86667 164.479 8.83 164.589 8.83C164.735 8.83 164.882 8.83 165.029 8.83C165.285 8.83 165.45 8.86667 165.524 8.94C165.744 9.08667 165.854 9.52667 165.854 10.26L165.689 16.64V34.13L173.609 26.155C174.012 25.7517 174.159 25.385 174.049 25.055C173.975 24.6883 173.682 24.4683 173.169 24.395L172.454 24.285C171.61 24.175 171.189 23.735 171.189 22.965C171.189 22.2317 171.647 21.865 172.564 21.865H181.914C182.83 21.865 183.289 22.2317 183.289 22.965C183.289 23.735 182.867 24.175 182.024 24.285L179.329 24.67C178.742 24.78 178.21 25.0367 177.734 25.44L172.784 30.28L180.704 43.26ZM212.378 43.04C212.415 43.81 212.837 44.2867 213.643 44.47L214.578 44.635C215.385 44.8183 215.788 45.2583 215.788 45.955C215.788 46.6517 215.33 47 214.413 47H204.293C203.377 47 202.918 46.6517 202.918 45.955C202.918 45.2583 203.322 44.8367 204.128 44.69L205.228 44.47C206.035 44.2867 206.457 43.81 206.493 43.04V31.05C206.493 28.85 206.218 27.2917 205.668 26.375C205.155 25.4217 204.202 24.945 202.808 24.945C201.672 24.945 200.572 25.22 199.508 25.77C198.482 26.32 197.382 27.145 196.208 28.245V43.04C196.245 43.81 196.667 44.2867 197.473 44.47L198.463 44.69C199.27 44.8367 199.673 45.2583 199.673 45.955C199.673 46.6517 199.215 47 198.298 47H188.068C187.152 47 186.693 46.6517 186.693 45.955C186.693 45.295 187.115 44.8733 187.958 44.69L189.113 44.47C189.92 44.2867 190.342 43.81 190.378 43.04V33.085C190.378 32.3517 190.378 31.6917 190.378 31.105C190.378 30.5183 190.36 30.005 190.323 29.565C190.287 29.2717 190.268 28.9967 190.268 28.74C190.268 28.4833 190.268 28.2083 190.268 27.915C190.195 27.0717 189.755 26.595 188.948 26.485L187.628 26.32C186.785 26.21 186.363 25.825 186.363 25.165C186.363 24.5417 186.73 24.0833 187.463 23.79L193.843 21.315C194.173 21.1683 194.503 21.095 194.833 21.095C195.053 21.095 195.2 21.1317 195.273 21.205C195.567 21.3883 195.732 21.81 195.768 22.47L196.043 25.715C197.437 24.1017 198.848 22.91 200.278 22.14C201.708 21.3333 203.322 20.93 205.118 20.93C207.538 20.93 209.353 21.6817 210.563 23.185C211.773 24.6517 212.378 27.0717 212.378 30.445V43.04ZM231.84 20.93C233.746 20.93 235.488 21.2967 237.065 22.03C238.641 22.7267 239.98 23.6983 241.08 24.945C242.216 26.155 243.078 27.585 243.665 29.235C244.288 30.8483 244.6 32.59 244.6 34.46C244.6 36.3667 244.288 38.145 243.665 39.795C243.078 41.4083 242.235 42.82 241.135 44.03C240.035 45.2033 238.696 46.1383 237.12 46.835C235.543 47.495 233.783 47.825 231.84 47.825C229.896 47.825 228.136 47.495 226.56 46.835C224.983 46.1383 223.645 45.2033 222.545 44.03C221.445 42.82 220.583 41.4083 219.96 39.795C219.373 38.145 219.08 36.3667 219.08 34.46C219.08 32.59 219.373 30.83 219.96 29.18C220.583 27.53 221.445 26.1 222.545 24.89C223.681 23.68 225.02 22.7267 226.56 22.03C228.136 21.2967 229.896 20.93 231.84 20.93ZM231.84 23.405C227.623 23.405 225.515 27.0717 225.515 34.405C225.515 41.665 227.623 45.295 231.84 45.295C236.056 45.295 238.165 41.665 238.165 34.405C238.165 27.0717 236.056 23.405 231.84 23.405ZM286.407 21.865C287.324 21.865 287.782 22.2317 287.782 22.965C287.782 23.735 287.379 24.1933 286.572 24.34L285.582 24.505C284.885 24.6517 284.409 25.0733 284.152 25.77L276.507 46.45C276.214 47.1833 275.7 47.55 274.967 47.55H274.802C274.069 47.55 273.555 47.1833 273.262 46.45L266.992 29.675L260.612 46.45C260.319 47.1833 259.805 47.55 259.072 47.55H258.907C258.174 47.55 257.66 47.1833 257.367 46.45L249.667 25.55C249.41 24.8533 248.915 24.45 248.182 24.34L247.687 24.285C246.844 24.175 246.422 23.735 246.422 22.965C246.422 22.2317 246.88 21.865 247.797 21.865H257.697C258.614 21.865 259.072 22.2317 259.072 22.965C259.072 23.735 258.65 24.175 257.807 24.285L256.982 24.395C256.505 24.4683 256.157 24.6517 255.937 24.945C255.754 25.2383 255.754 25.605 255.937 26.045L260.557 39.575L265.617 26.045C265.947 25.0917 265.617 24.5417 264.627 24.395L263.912 24.285C263.069 24.175 262.647 23.735 262.647 22.965C262.647 22.2317 263.105 21.865 264.022 21.865H273.097C274.014 21.865 274.472 22.2317 274.472 22.965C274.472 23.735 274.05 24.175 273.207 24.285L272.547 24.395C271.557 24.5783 271.227 25.1283 271.557 26.045L276.562 39.355L281.072 26.155C281.365 25.2383 281.035 24.6883 280.082 24.505L279.037 24.34C278.194 24.1567 277.772 23.6983 277.772 22.965C277.772 22.2317 278.23 21.865 279.147 21.865H286.407ZM343.904 43.04C343.94 43.81 344.362 44.2867 345.169 44.47L346.159 44.69C346.965 44.8367 347.369 45.2583 347.369 45.955C347.369 46.6517 346.91 47 345.994 47H335.929C335.012 47 334.554 46.6517 334.554 45.955C334.554 45.295 334.975 44.8733 335.819 44.69L336.974 44.47C337.78 44.2867 338.202 43.81 338.239 43.04V31.05C338.239 28.8133 337.909 27.2367 337.249 26.32C336.625 25.4033 335.672 24.945 334.389 24.945C333.362 24.945 332.299 25.2567 331.199 25.88C330.135 26.4667 329.072 27.2367 328.009 28.19C328.045 28.52 328.064 28.8867 328.064 29.29C328.1 29.6567 328.119 30.0417 328.119 30.445V43.04C328.155 43.81 328.577 44.2867 329.384 44.47L330.374 44.69C331.18 44.8367 331.584 45.2583 331.584 45.955C331.584 46.6517 331.125 47 330.209 47H320.144C319.227 47 318.769 46.6517 318.769 45.955C318.769 45.295 319.19 44.8733 320.034 44.69L321.134 44.47C321.94 44.2867 322.362 43.81 322.399 43.04V31.05C322.399 28.85 322.087 27.2917 321.464 26.375C320.84 25.4217 319.887 24.945 318.604 24.945C317.54 24.945 316.477 25.2383 315.414 25.825C314.35 26.4117 313.287 27.1817 312.224 28.135V43.04C312.26 43.81 312.682 44.2867 313.489 44.47L314.424 44.635C315.23 44.8183 315.634 45.2583 315.634 45.955C315.634 46.6517 315.175 47 314.259 47H304.139C303.222 47 302.764 46.6517 302.764 45.955C302.764 45.295 303.185 44.8733 304.029 44.69L305.184 44.47C305.99 44.2867 306.412 43.81 306.449 43.04V33.085C306.449 32.3517 306.449 31.6917 306.449 31.105C306.449 30.5183 306.43 30.005 306.394 29.565C306.357 29.2717 306.339 28.9967 306.339 28.74C306.339 28.4833 306.339 28.2083 306.339 27.915C306.265 27.0717 305.825 26.595 305.019 26.485L303.644 26.32C302.8 26.21 302.379 25.825 302.379 25.165C302.379 24.5417 302.745 24.0833 303.479 23.79L309.859 21.315C310.189 21.1683 310.519 21.095 310.849 21.095C311.069 21.095 311.215 21.1317 311.289 21.205C311.582 21.3883 311.747 21.81 311.784 22.47L312.059 25.66C313.342 24.12 314.699 22.9467 316.129 22.14C317.559 21.3333 319.135 20.93 320.859 20.93C322.655 20.93 324.104 21.315 325.204 22.085C326.304 22.855 327.11 24.0833 327.624 25.77C329.017 24.0833 330.429 22.855 331.859 22.085C333.325 21.315 334.994 20.93 336.864 20.93C339.174 20.93 340.915 21.6633 342.089 23.13C343.299 24.56 343.904 26.9067 343.904 30.17V43.04ZM374.98 32.535C374.833 33.3417 374.32 33.745 373.44 33.745H357.49C357.563 37.0817 358.37 39.5933 359.91 41.28C361.45 42.9667 363.448 43.81 365.905 43.81C367.335 43.81 368.545 43.5533 369.535 43.04C370.562 42.49 371.497 41.7383 372.34 40.785C372.743 40.345 373.128 40.125 373.495 40.125C373.678 40.125 373.843 40.18 373.99 40.29C374.54 40.6567 374.613 41.2067 374.21 41.94C373.257 43.81 371.882 45.24 370.085 46.23C368.288 47.22 366.18 47.715 363.76 47.715C361.707 47.715 359.873 47.3667 358.26 46.67C356.683 45.9733 355.345 45.02 354.245 43.81C353.182 42.5633 352.375 41.0967 351.825 39.41C351.275 37.7233 351 35.89 351 33.91C351 32.0033 351.312 30.1883 351.935 28.465C352.558 26.7417 353.438 25.2383 354.575 23.955C355.748 22.635 357.142 21.6083 358.755 20.875C360.405 20.105 362.22 19.72 364.2 19.72C365.85 19.72 367.335 19.995 368.655 20.545C370.012 21.095 371.167 21.865 372.12 22.855C373.073 23.8083 373.807 24.9633 374.32 26.32C374.833 27.6767 375.09 29.18 375.09 30.83C375.09 31.1233 375.09 31.4167 375.09 31.71C375.09 31.9667 375.053 32.2417 374.98 32.535ZM357.6 31.215H365.85C367.17 31.215 368.05 30.94 368.49 30.39C368.967 29.84 369.205 29.07 369.205 28.08C369.205 26.43 368.728 25.055 367.775 23.955C366.858 22.855 365.703 22.305 364.31 22.305C363.173 22.305 362.183 22.5983 361.34 23.185C360.533 23.735 359.855 24.45 359.305 25.33C358.792 26.21 358.388 27.1817 358.095 28.245C357.838 29.2717 357.673 30.2617 357.6 31.215Z" transform="translate(-2 -8)" fill="#0889C9" fill-opacity="0.75"/>
</svg>
