<svg width="87" height="100" viewBox="0 0 87 100" fill="none" xmlns="http://www.w3.org/2000/svg">
<path d="M0 0L26.1365 10.4645V96.7963L0 86.1683V0Z" transform="matrix(0.936168 0.351554 -0.350774 0.93646 62.373 0.163574)" fill="#FF006C"/>
<path d="M0 0L26.1365 10.4645V96.7963L0 86.1683V0Z" transform="matrix(0.936168 0.351554 -0.350774 0.93646 62.373 0.163574)" fill="url(#paint0_linear)"/>
<path d="M35.6054 60.6714L19.926 21.5866L0 0L15.5161 45.2992L35.6054 60.6714Z" transform="translate(66.3109 64.104) rotate(-180)" fill="#357695"/>
<path d="M0 0L26.1365 10.4646V54.7756L0 41.5314V0Z" transform="matrix(0.936168 0.351554 -0.350774 0.93646 30.3201 0.163574)" fill="#FF006C"/>
<path d="M0 0L26.1365 10.4646V54.7756L0 41.5314V0Z" transform="matrix(0.936168 0.351554 -0.350774 0.93646 30.3201 0.163574)" fill="url(#paint1_linear)"/>
<path d="M35.6054 60.6714L19.926 21.5866L0 0L15.5161 45.2992L35.6054 60.6714Z" transform="translate(35.6055 60.6714) rotate(-180)" fill="#357695"/>
<defs>
<linearGradient id="paint0_linear" x2="1" gradientUnits="userSpaceOnUse" gradientTransform="translate(26.1365) scale(26.1365 96.7963) rotate(90)">
<stop stop-color="#F2F2F2"/>
<stop offset="1" stop-color="white" stop-opacity="0"/>
</linearGradient>
<linearGradient id="paint1_linear" x2="1" gradientUnits="userSpaceOnUse" gradientTransform="translate(26.1365) scale(26.1365 54.7756) rotate(90)">
<stop stop-color="#F2F2F2"/>
<stop offset="1" stop-color="white" stop-opacity="0"/>
</linearGradient>
</defs>
</svg>
