<svg width="354" height="406" viewBox="0 0 354 406" fill="none" xmlns="http://www.w3.org/2000/svg">
<path d="M0 0L52.2796 20.9299V193.602L0 172.345V0Z" transform="matrix(1.87236 0.703034 -0.701622 1.87289 254.969 6.65039)" fill="#FF006C"/>
<path d="M0 0L52.2796 20.9299V193.602L0 172.345V0Z" transform="matrix(1.87236 0.703034 -0.701622 1.87289 254.969 6.65039)" fill="url(#paint0_linear)"/>
<path d="M71.2208 121.347L39.8575 43.1745L0 0L31.0366 90.6011L71.2208 121.347Z" transform="translate(270.723 262.426) scale(2) rotate(-180)" fill="#357695"/>
<path d="M0 0L52.2796 20.9299V109.555L0 83.0655V0Z" transform="matrix(1.87236 0.703034 -0.701622 1.87289 125.442 4.65039)" fill="#FF006C"/>
<path d="M0 0L52.2796 20.9299V109.555L0 83.0655V0Z" transform="matrix(1.87236 0.703034 -0.701622 1.87289 125.442 4.65039)" fill="url(#paint1_linear)"/>
<path d="M71.2208 121.345L39.8575 43.174L0 0L31.0366 90.6L71.2208 121.345Z" transform="translate(146.442 246.691) scale(2) rotate(-180)" fill="#357695"/>
<defs>
<linearGradient id="paint0_linear" x2="1" gradientUnits="userSpaceOnUse" gradientTransform="translate(52.2796) scale(52.2796 193.602) rotate(90)">
<stop stop-color="#F2F2F2"/>
<stop offset="1" stop-color="white" stop-opacity="0"/>
</linearGradient>
<linearGradient id="paint1_linear" x2="1" gradientUnits="userSpaceOnUse" gradientTransform="translate(52.2796) scale(52.2796 109.555) rotate(90)">
<stop stop-color="#F2F2F2"/>
<stop offset="1" stop-color="white" stop-opacity="0"/>
</linearGradient>
</defs>
</svg>
