<svg width="369" height="51" viewBox="0 0 369 51" fill="none" xmlns="http://www.w3.org/2000/svg">
<path d="M35.07 19.73C34.93 18.6567 34.3 18.12 33.18 18.12H25.2C25.1533 19.52 25.1067 20.92 25.06 22.32C25.06 23.72 25.06 25.1667 25.06 26.66V46.68C25.06 47.8467 25.06 49.0133 25.06 50.18C25.1067 51.3 25.13 52.4433 25.13 53.61C25.2233 54.7767 25.7833 55.3833 26.81 55.43L29.96 55.78C31.08 55.92 31.64 56.48 31.64 57.46C31.64 58.4867 31.0567 59 29.89 59H12.11C10.9433 59 10.36 58.4867 10.36 57.46C10.36 56.4333 10.92 55.8733 12.04 55.78L15.19 55.43C16.2633 55.29 16.8233 54.6833 16.87 53.61C16.87 52.49 16.87 51.37 16.87 50.25C16.9167 49.0833 16.94 47.94 16.94 46.82V26.8C16.94 25.3067 16.9167 23.86 16.87 22.46C16.87 21.0133 16.8467 19.5667 16.8 18.12H8.82C7.7 18.12 7.07 18.6567 6.93 19.73L6.09 25.19C5.95 26.2633 5.32 26.8 4.2 26.8H3.08C1.91333 26.8 1.35333 26.2167 1.4 25.05L1.68 16.3C1.77333 15.1333 2.38 14.55 3.5 14.55H38.5C39.62 14.55 40.2267 15.1333 40.32 16.3L40.6 25.05C40.6467 26.2167 40.0867 26.8 38.92 26.8H37.8C36.68 26.8 36.05 26.2633 35.91 25.19L35.07 19.73ZM76.9027 53.96C76.9493 54.94 77.486 55.5467 78.5127 55.78L79.7027 55.99C80.7293 56.2233 81.2427 56.7833 81.2427 57.67C81.2427 58.5567 80.6593 59 79.4927 59H66.5427C65.376 59 64.7927 58.5567 64.7927 57.67C64.7927 56.83 65.3293 56.2933 66.4027 56.06L67.8727 55.78C68.8993 55.5467 69.436 54.94 69.4827 53.96V38.7C69.4827 35.9 69.1327 33.9167 68.4327 32.75C67.7327 31.5367 66.496 30.93 64.7227 30.93C63.276 30.93 61.876 31.28 60.5227 31.98C59.1693 32.6333 57.746 33.7067 56.2527 35.2V53.89C56.2527 54.9633 56.766 55.5933 57.7927 55.78L58.9827 55.99C60.0093 56.2233 60.5227 56.7833 60.5227 57.67C60.5227 58.5567 59.9393 59 58.7727 59H45.8927C44.726 59 44.1427 58.5567 44.1427 57.67C44.1427 56.83 44.6793 56.2933 45.7527 56.06L47.1527 55.78C48.1793 55.5467 48.716 54.94 48.7627 53.96V18.19C48.7627 17.1167 48.226 16.51 47.1527 16.37L45.0527 16.09C43.9793 15.95 43.4427 15.46 43.4427 14.62C43.4427 13.78 43.9327 13.22 44.9127 12.94L54.0827 10.56C54.316 10.4667 54.5027 10.42 54.6427 10.42C54.8293 10.42 55.016 10.42 55.2027 10.42C55.5293 10.42 55.7393 10.4667 55.8327 10.56C56.1127 10.7467 56.2527 11.3067 56.2527 12.24L56.0427 20.36V31.84C57.8627 29.7867 59.6827 28.27 61.5027 27.29C63.3227 26.31 65.376 25.82 67.6627 25.82C70.7427 25.82 73.0527 26.7767 74.5927 28.69C76.1327 30.5567 76.9027 33.6367 76.9027 37.93V53.96ZM116.378 40.59C116.192 41.6167 115.538 42.13 114.418 42.13H94.1183C94.2116 46.3767 95.2383 49.5733 97.1983 51.72C99.1583 53.8667 101.702 54.94 104.828 54.94C106.648 54.94 108.188 54.6133 109.448 53.96C110.755 53.26 111.945 52.3033 113.018 51.09C113.532 50.53 114.022 50.25 114.488 50.25C114.722 50.25 114.932 50.32 115.118 50.46C115.818 50.9267 115.912 51.6267 115.398 52.56C114.185 54.94 112.435 56.76 110.148 58.02C107.862 59.28 105.178 59.91 102.098 59.91C99.4849 59.91 97.1516 59.4667 95.0983 58.58C93.0916 57.6933 91.3883 56.48 89.9883 54.94C88.6349 53.3533 87.6083 51.4867 86.9083 49.34C86.2083 47.1933 85.8583 44.86 85.8583 42.34C85.8583 39.9133 86.2549 37.6033 87.0483 35.41C87.8416 33.2167 88.9616 31.3033 90.4083 29.67C91.9016 27.99 93.6749 26.6833 95.7283 25.75C97.8283 24.77 100.138 24.28 102.658 24.28C104.758 24.28 106.648 24.63 108.328 25.33C110.055 26.03 111.525 27.01 112.738 28.27C113.952 29.4833 114.885 30.9533 115.538 32.68C116.192 34.4067 116.518 36.32 116.518 38.42C116.518 38.7933 116.518 39.1667 116.518 39.54C116.518 39.8667 116.472 40.2167 116.378 40.59ZM94.2583 38.91H104.758C106.438 38.91 107.558 38.56 108.118 37.86C108.725 37.16 109.028 36.18 109.028 34.92C109.028 32.82 108.422 31.07 107.208 29.67C106.042 28.27 104.572 27.57 102.798 27.57C101.352 27.57 100.092 27.9433 99.0183 28.69C97.9916 29.39 97.1283 30.3 96.4283 31.42C95.7749 32.54 95.2616 33.7767 94.8883 35.13C94.5616 36.4367 94.3516 37.6967 94.2583 38.91ZM153.278 41.64H151.668V48.43C151.668 49.27 151.668 50.1333 151.668 51.02C151.715 51.86 151.738 52.7467 151.738 53.68C151.785 54.7067 152.345 55.29 153.418 55.43L156.288 55.71C157.408 55.85 157.968 56.4333 157.968 57.46C157.968 58.4867 157.385 59 156.218 59H139.348C138.181 59 137.598 58.4867 137.598 57.46C137.598 56.4333 138.158 55.8733 139.278 55.78L141.798 55.5C142.871 55.36 143.431 54.7533 143.478 53.68C143.478 52.56 143.478 51.44 143.478 50.32C143.525 49.1533 143.548 47.9867 143.548 46.82V26.8C143.548 25.6333 143.525 24.49 143.478 23.37C143.478 22.2033 143.478 21.0367 143.478 19.87C143.385 18.7967 142.825 18.19 141.798 18.05L139.278 17.77C138.158 17.63 137.598 17.07 137.598 16.09C137.598 15.0633 138.181 14.55 139.348 14.55H155.728C157.921 14.55 160.091 14.76 162.238 15.18C164.385 15.5533 166.298 16.2533 167.978 17.28C169.705 18.26 171.081 19.6133 172.108 21.34C173.181 23.02 173.718 25.1667 173.718 27.78C173.718 30.6267 173.088 32.96 171.828 34.78C170.568 36.5533 168.935 37.9533 166.928 38.98C164.968 40.0067 162.775 40.7067 160.348 41.08C157.968 41.4533 155.611 41.64 153.278 41.64ZM154.818 17.98H151.808C151.761 19.4267 151.715 20.85 151.668 22.25C151.668 23.65 151.668 25.0967 151.668 26.59V38.21H154.328C158.341 38.21 161.258 37.2533 163.078 35.34C164.898 33.4267 165.808 30.9533 165.808 27.92C165.808 24.7 164.921 22.25 163.148 20.57C161.421 18.8433 158.645 17.98 154.818 17.98ZM188.715 26.17C188.902 26.31 189.042 26.4967 189.135 26.73C189.228 26.9633 189.298 27.3367 189.345 27.85L189.835 33.66C191.095 31.1867 192.542 29.2733 194.175 27.92C195.855 26.52 197.558 25.82 199.285 25.82C200.218 25.82 201.175 26.1 202.155 26.66C203.135 27.22 203.765 28.1767 204.045 29.53C204.045 30.8367 203.648 31.8867 202.855 32.68C202.062 33.4267 200.988 33.8 199.635 33.8C198.048 33.8 196.555 33.0767 195.155 31.63L194.805 31.28C193.778 32.2133 192.845 33.2633 192.005 34.43C191.212 35.55 190.512 36.9033 189.905 38.49V53.75C189.952 54.8233 190.488 55.4533 191.515 55.64L193.755 56.06C194.828 56.2933 195.365 56.83 195.365 57.67C195.365 58.5567 194.782 59 193.615 59H179.615C178.448 59 177.865 58.5567 177.865 57.67C177.865 56.83 178.402 56.2933 179.475 56.06L180.875 55.78C181.902 55.5467 182.438 54.94 182.485 53.96V41.29C182.485 40.3567 182.485 39.5167 182.485 38.77C182.485 38.0233 182.462 37.37 182.415 36.81C182.368 36.4367 182.345 36.0867 182.345 35.76C182.345 35.4333 182.345 35.0833 182.345 34.71C182.252 33.6367 181.692 33.03 180.665 32.89L178.985 32.68C177.912 32.54 177.375 32.05 177.375 31.21C177.375 30.4167 177.842 29.8333 178.775 29.46L186.895 26.31C187.315 26.1233 187.712 26.03 188.085 26.03C188.365 26.03 188.575 26.0767 188.715 26.17ZM223.496 25.82C225.923 25.82 228.14 26.2867 230.146 27.22C232.153 28.1067 233.856 29.3433 235.256 30.93C236.703 32.47 237.8 34.29 238.546 36.39C239.34 38.4433 239.736 40.66 239.736 43.04C239.736 45.4667 239.34 47.73 238.546 49.83C237.8 51.8833 236.726 53.68 235.326 55.22C233.926 56.7133 232.223 57.9033 230.216 58.79C228.21 59.63 225.97 60.05 223.496 60.05C221.023 60.05 218.783 59.63 216.776 58.79C214.77 57.9033 213.066 56.7133 211.666 55.22C210.266 53.68 209.17 51.8833 208.376 49.83C207.63 47.73 207.256 45.4667 207.256 43.04C207.256 40.66 207.63 38.42 208.376 36.32C209.17 34.22 210.266 32.4 211.666 30.86C213.113 29.32 214.816 28.1067 216.776 27.22C218.783 26.2867 221.023 25.82 223.496 25.82ZM223.496 28.97C218.13 28.97 215.446 33.6367 215.446 42.97C215.446 52.21 218.13 56.83 223.496 56.83C228.863 56.83 231.546 52.21 231.546 42.97C231.546 33.6367 228.863 28.97 223.496 28.97ZM270.826 51.51C271.339 50.81 271.829 50.46 272.296 50.46C272.436 50.46 272.599 50.5067 272.786 50.6C273.486 51.02 273.626 51.72 273.206 52.7C272.132 55.08 270.499 56.9 268.306 58.16C266.159 59.42 263.616 60.05 260.676 60.05C258.156 60.05 255.916 59.63 253.956 58.79C251.996 57.9033 250.339 56.7133 248.986 55.22C247.679 53.68 246.676 51.8833 245.976 49.83C245.322 47.73 244.996 45.4667 244.996 43.04C244.996 40.66 245.392 38.42 246.186 36.32C246.979 34.22 248.099 32.4 249.546 30.86C250.992 29.2733 252.719 28.0367 254.726 27.15C256.732 26.2633 258.972 25.82 261.446 25.82C262.846 25.82 264.222 26.0067 265.576 26.38C266.976 26.7533 268.236 27.3367 269.356 28.13C270.522 28.8767 271.502 29.8333 272.296 31C273.089 32.12 273.556 33.4267 273.696 34.92C273.369 36.8333 272.179 37.79 270.126 37.79C267.746 37.79 266.369 36.3433 265.996 33.45L265.506 30.79C265.319 29.95 264.922 29.4367 264.316 29.25C263.756 29.0633 263.126 28.97 262.426 28.97C260.699 28.97 259.229 29.39 258.016 30.23C256.802 31.0233 255.822 32.0733 255.076 33.38C254.329 34.64 253.769 36.0633 253.396 37.65C253.069 39.19 252.906 40.6833 252.906 42.13C252.906 46.5167 253.862 49.8067 255.776 52C257.689 54.1933 260.139 55.29 263.126 55.29C266.299 55.29 268.866 54.03 270.826 51.51ZM309.152 40.59C308.965 41.6167 308.312 42.13 307.192 42.13H286.892C286.985 46.3767 288.012 49.5733 289.972 51.72C291.932 53.8667 294.475 54.94 297.602 54.94C299.422 54.94 300.962 54.6133 302.222 53.96C303.528 53.26 304.718 52.3033 305.792 51.09C306.305 50.53 306.795 50.25 307.262 50.25C307.495 50.25 307.705 50.32 307.892 50.46C308.592 50.9267 308.685 51.6267 308.172 52.56C306.958 54.94 305.208 56.76 302.922 58.02C300.635 59.28 297.952 59.91 294.872 59.91C292.258 59.91 289.925 59.4667 287.872 58.58C285.865 57.6933 284.162 56.48 282.762 54.94C281.408 53.3533 280.382 51.4867 279.682 49.34C278.982 47.1933 278.632 44.86 278.632 42.34C278.632 39.9133 279.028 37.6033 279.822 35.41C280.615 33.2167 281.735 31.3033 283.182 29.67C284.675 27.99 286.448 26.6833 288.502 25.75C290.602 24.77 292.912 24.28 295.432 24.28C297.532 24.28 299.422 24.63 301.102 25.33C302.828 26.03 304.298 27.01 305.512 28.27C306.725 29.4833 307.658 30.9533 308.312 32.68C308.965 34.4067 309.292 36.32 309.292 38.42C309.292 38.7933 309.292 39.1667 309.292 39.54C309.292 39.8667 309.245 40.2167 309.152 40.59ZM287.032 38.91H297.532C299.212 38.91 300.332 38.56 300.892 37.86C301.498 37.16 301.802 36.18 301.802 34.92C301.802 32.82 301.195 31.07 299.982 29.67C298.815 28.27 297.345 27.57 295.572 27.57C294.125 27.57 292.865 27.9433 291.792 28.69C290.765 29.39 289.902 30.3 289.202 31.42C288.548 32.54 288.035 33.7767 287.662 35.13C287.335 36.4367 287.125 37.6967 287.032 38.91ZM328.581 38.98L330.821 39.75C332.547 40.4033 333.971 41.1033 335.091 41.85C336.257 42.55 337.214 43.2967 337.961 44.09C338.614 44.93 339.081 45.84 339.361 46.82C339.641 47.7533 339.781 48.7567 339.781 49.83C339.781 51.6967 339.361 53.2833 338.521 54.59C337.727 55.85 336.677 56.9 335.371 57.74C334.064 58.5333 332.594 59.1167 330.961 59.49C329.374 59.8633 327.787 60.05 326.201 60.05C324.241 60.05 322.514 59.84 321.021 59.42C319.527 59.0467 318.034 58.4867 316.541 57.74C315.701 57.3667 315.281 56.69 315.281 55.71L315.211 51.3C315.211 50.1333 315.771 49.55 316.891 49.55H318.011C319.037 49.55 319.667 50.0867 319.901 51.16L320.461 54.1C320.601 55.0333 321.091 55.64 321.931 55.92C323.331 56.48 324.777 56.76 326.271 56.76C328.651 56.76 330.377 56.34 331.451 55.5C332.524 54.66 333.061 53.4933 333.061 52C333.061 50.6467 332.594 49.5967 331.661 48.85C330.727 48.0567 329.071 47.1933 326.691 46.26L323.611 45.14C320.997 44.0667 318.991 42.7833 317.591 41.29C316.191 39.7967 315.491 37.8833 315.491 35.55C315.491 33.7767 315.864 32.2833 316.611 31.07C317.357 29.8567 318.337 28.8533 319.551 28.06C320.764 27.2667 322.117 26.7067 323.611 26.38C325.104 26.0067 326.621 25.82 328.161 25.82C329.794 25.82 331.287 26.0067 332.641 26.38C333.994 26.7067 335.347 27.1967 336.701 27.85C337.587 28.27 338.007 28.97 337.961 29.95L337.751 33.87C337.704 34.99 337.121 35.55 336.001 35.55H334.951C333.877 35.55 333.247 35.0367 333.061 34.01L332.571 31.42C332.384 30.44 331.871 29.8333 331.031 29.6C330.051 29.2267 329.024 29.04 327.951 29.04C326.084 29.04 324.637 29.4367 323.611 30.23C322.631 31.0233 322.141 32.1667 322.141 33.66C322.141 34.78 322.584 35.7367 323.471 36.53C323.937 36.9033 324.591 37.3 325.431 37.72C326.317 38.14 327.367 38.56 328.581 38.98ZM358.795 38.98L361.035 39.75C362.762 40.4033 364.185 41.1033 365.305 41.85C366.472 42.55 367.429 43.2967 368.175 44.09C368.829 44.93 369.295 45.84 369.575 46.82C369.855 47.7533 369.995 48.7567 369.995 49.83C369.995 51.6967 369.575 53.2833 368.735 54.59C367.942 55.85 366.892 56.9 365.585 57.74C364.279 58.5333 362.809 59.1167 361.175 59.49C359.589 59.8633 358.002 60.05 356.415 60.05C354.455 60.05 352.729 59.84 351.235 59.42C349.742 59.0467 348.249 58.4867 346.755 57.74C345.915 57.3667 345.495 56.69 345.495 55.71L345.425 51.3C345.425 50.1333 345.985 49.55 347.105 49.55H348.225C349.252 49.55 349.882 50.0867 350.115 51.16L350.675 54.1C350.815 55.0333 351.305 55.64 352.145 55.92C353.545 56.48 354.992 56.76 356.485 56.76C358.865 56.76 360.592 56.34 361.665 55.5C362.739 54.66 363.275 53.4933 363.275 52C363.275 50.6467 362.809 49.5967 361.875 48.85C360.942 48.0567 359.285 47.1933 356.905 46.26L353.825 45.14C351.212 44.0667 349.205 42.7833 347.805 41.29C346.405 39.7967 345.705 37.8833 345.705 35.55C345.705 33.7767 346.079 32.2833 346.825 31.07C347.572 29.8567 348.552 28.8533 349.765 28.06C350.979 27.2667 352.332 26.7067 353.825 26.38C355.319 26.0067 356.835 25.82 358.375 25.82C360.009 25.82 361.502 26.0067 362.855 26.38C364.209 26.7067 365.562 27.1967 366.915 27.85C367.802 28.27 368.222 28.97 368.175 29.95L367.965 33.87C367.919 34.99 367.335 35.55 366.215 35.55H365.165C364.092 35.55 363.462 35.0367 363.275 34.01L362.785 31.42C362.599 30.44 362.085 29.8333 361.245 29.6C360.265 29.2267 359.239 29.04 358.165 29.04C356.299 29.04 354.852 29.4367 353.825 30.23C352.845 31.0233 352.355 32.1667 352.355 33.66C352.355 34.78 352.799 35.7367 353.685 36.53C354.152 36.9033 354.805 37.3 355.645 37.72C356.532 38.14 357.582 38.56 358.795 38.98Z" transform="translate(-1 -10)" fill="#ADE4FF" fill-opacity="0.8"/>
</svg>
