<svg width="373" height="57" viewBox="0 0 373 57" fill="none" xmlns="http://www.w3.org/2000/svg">
<path d="M43.587 25.193C43.413 23.859 42.63 23.192 41.238 23.192H31.32C31.262 24.932 31.204 26.672 31.146 28.412C31.146 30.152 31.146 31.95 31.146 33.806V58.688C31.146 60.138 31.146 61.588 31.146 63.038C31.204 64.43 31.233 65.851 31.233 67.301C31.349 68.751 32.045 69.505 33.321 69.563L37.236 69.998C38.628 70.172 39.324 70.868 39.324 72.086C39.324 73.362 38.599 74 37.149 74H15.051C13.601 74 12.876 73.362 12.876 72.086C12.876 70.81 13.572 70.114 14.964 69.998L18.879 69.563C20.213 69.389 20.909 68.635 20.967 67.301C20.967 65.909 20.967 64.517 20.967 63.125C21.025 61.675 21.054 60.254 21.054 58.862V33.98C21.054 32.124 21.025 30.326 20.967 28.586C20.967 26.788 20.938 24.99 20.88 23.192H10.962C9.57 23.192 8.787 23.859 8.613 25.193L7.569 31.979C7.395 33.313 6.612 33.98 5.22 33.98H3.828C2.378 33.98 1.682 33.255 1.74 31.805L2.088 20.93C2.204 19.48 2.958 18.755 4.35 18.755H47.85C49.242 18.755 49.996 19.48 50.112 20.93L50.46 31.805C50.518 33.255 49.822 33.98 48.372 33.98H46.98C45.588 33.98 44.805 33.313 44.631 31.979L43.587 25.193ZM115.241 20.669C115.241 21.945 114.545 22.67 113.153 22.844L110.021 23.192C108.687 23.366 107.991 24.091 107.933 25.367C107.933 26.817 107.904 28.238 107.846 29.63C107.846 31.022 107.846 32.443 107.846 33.893V58.775C107.846 60.225 107.846 61.675 107.846 63.125C107.904 64.517 107.933 65.938 107.933 67.388C107.991 68.722 108.687 69.476 110.021 69.65L113.153 69.998C114.545 70.172 115.241 70.868 115.241 72.086C115.241 73.362 114.516 74 113.066 74H92.534C91.084 74 90.359 73.362 90.359 72.086C90.359 70.81 91.055 70.085 92.447 69.911L95.579 69.563C96.913 69.389 97.609 68.664 97.667 67.388C97.667 65.996 97.667 64.604 97.667 63.212C97.725 61.82 97.754 60.399 97.754 58.949V47.726H72.785V58.862C72.785 60.312 72.785 61.762 72.785 63.212C72.843 64.604 72.872 65.996 72.872 67.388C72.93 68.722 73.626 69.476 74.96 69.65L78.092 69.998C79.484 70.172 80.18 70.868 80.18 72.086C80.18 73.362 79.455 74 78.005 74H57.473C56.023 74 55.298 73.362 55.298 72.086C55.298 70.81 55.994 70.114 57.386 69.998L60.518 69.65C61.852 69.476 62.548 68.722 62.606 67.388C62.606 65.996 62.606 64.604 62.606 63.212C62.664 61.762 62.693 60.312 62.693 58.862V33.98C62.693 32.53 62.664 31.109 62.606 29.717C62.606 28.267 62.606 26.817 62.606 25.367C62.49 24.033 61.794 23.279 60.518 23.105L57.386 22.757C55.994 22.583 55.298 21.887 55.298 20.669C55.298 19.393 56.023 18.755 57.473 18.755H78.005C79.455 18.755 80.18 19.393 80.18 20.669C80.18 21.945 79.484 22.67 78.092 22.844L74.96 23.192C73.626 23.366 72.93 24.091 72.872 25.367C72.872 26.701 72.843 28.035 72.785 29.369C72.785 30.703 72.785 32.037 72.785 33.371V43.463H97.754V33.458C97.754 32.124 97.725 30.79 97.667 29.456C97.667 28.122 97.667 26.788 97.667 25.454C97.551 24.12 96.855 23.366 95.579 23.192L92.36 22.844C91.026 22.67 90.359 21.945 90.359 20.669C90.359 19.393 91.084 18.755 92.534 18.755H113.066C114.516 18.755 115.241 19.393 115.241 20.669ZM146.365 20.669C146.365 21.945 145.669 22.67 144.277 22.844L141.145 23.192C139.811 23.366 139.115 24.091 139.057 25.367C139.057 26.817 139.028 28.238 138.97 29.63C138.97 31.022 138.97 32.443 138.97 33.893V58.775C138.97 60.225 138.97 61.675 138.97 63.125C139.028 64.517 139.057 65.938 139.057 67.388C139.115 68.722 139.811 69.476 141.145 69.65L144.277 69.998C145.669 70.172 146.365 70.868 146.365 72.086C146.365 73.362 145.64 74 144.19 74H123.658C122.208 74 121.483 73.362 121.483 72.086C121.483 70.81 122.179 70.114 123.571 69.998L126.703 69.65C128.037 69.476 128.733 68.722 128.791 67.388C128.791 65.996 128.791 64.604 128.791 63.212C128.849 61.762 128.878 60.312 128.878 58.862V33.98C128.878 32.53 128.849 31.109 128.791 29.717C128.791 28.267 128.791 26.817 128.791 25.367C128.675 24.033 127.979 23.279 126.703 23.105L123.571 22.757C122.179 22.583 121.483 21.887 121.483 20.669C121.483 19.393 122.208 18.755 123.658 18.755H144.19C145.64 18.755 146.365 19.393 146.365 20.669ZM207.212 18.755C208.662 18.755 209.387 19.393 209.387 20.669C209.387 22.003 208.72 22.757 207.386 22.931L203.993 23.453C202.659 23.627 201.992 24.381 201.992 25.715V72.695C201.992 74.145 201.412 74.87 200.252 74.87H200.165C199.063 74.87 198.164 74.435 197.468 73.565L164.321 30.5V67.04C164.321 68.432 165.017 69.215 166.409 69.389L171.455 69.911C172.847 70.085 173.543 70.81 173.543 72.086C173.543 73.362 172.818 74 171.368 74H154.403C152.953 74 152.228 73.362 152.228 72.086C152.228 70.81 152.895 70.085 154.229 69.911L157.709 69.476C159.043 69.302 159.71 68.519 159.71 67.127V26.063C159.71 25.019 159.536 24.294 159.188 23.888C158.84 23.424 158.144 23.163 157.1 23.105L154.838 22.844C153.504 22.67 152.837 21.945 152.837 20.669C152.837 19.393 153.562 18.755 155.012 18.755H165.887C166.931 18.755 167.801 19.19 168.497 20.06L197.381 57.905V25.802C197.381 24.41 196.714 23.627 195.38 23.453L190.16 22.844C188.826 22.67 188.159 21.945 188.159 20.669C188.159 19.393 188.884 18.755 190.334 18.755H207.212ZM261.652 67.997C262.232 69.041 263.044 69.592 264.088 69.65L267.047 69.998C268.439 70.172 269.135 70.868 269.135 72.086C269.135 73.362 268.41 74 266.959 74H248.081C246.631 74 245.905 73.362 245.905 72.086C245.905 70.81 246.601 70.085 247.993 69.911L248.95 69.824C249.762 69.708 250.284 69.418 250.517 68.954C250.806 68.432 250.748 67.823 250.342 67.127L239.381 46.247L232.595 54.338V61.733C232.595 62.661 232.595 63.589 232.595 64.517C232.653 65.445 232.682 66.402 232.682 67.388C232.74 68.664 233.436 69.389 234.77 69.563L238.075 69.911C239.409 70.085 240.076 70.81 240.076 72.086C240.076 73.362 239.351 74 237.901 74H217.37C215.919 74 215.194 73.362 215.194 72.086C215.194 70.81 215.89 70.114 217.282 69.998L220.415 69.65C221.749 69.476 222.445 68.722 222.502 67.388C222.502 65.996 222.502 64.604 222.502 63.212C222.56 61.762 222.589 60.312 222.589 58.862V33.98C222.589 32.53 222.56 31.109 222.502 29.717C222.502 28.267 222.502 26.817 222.502 25.367C222.386 24.033 221.691 23.279 220.415 23.105L217.282 22.757C215.89 22.583 215.194 21.887 215.194 20.669C215.194 19.393 215.919 18.755 217.37 18.755H237.901C239.351 18.755 240.076 19.393 240.076 20.669C240.076 21.945 239.409 22.67 238.075 22.844L234.77 23.192C233.493 23.366 232.797 24.12 232.682 25.454C232.682 26.904 232.653 28.325 232.595 29.717C232.595 31.109 232.595 32.53 232.595 33.98V48.248L250.777 25.802C251.299 25.164 251.502 24.584 251.386 24.062C251.27 23.482 250.835 23.134 250.082 23.018L249.385 22.931C248.051 22.699 247.384 21.945 247.384 20.669C247.384 19.393 248.109 18.755 249.559 18.755H264.263C265.713 18.755 266.438 19.393 266.438 20.669C266.438 21.945 265.77 22.67 264.436 22.844L259.478 23.54C258.492 23.714 257.65 24.178 256.954 24.932L245.383 38.852L261.652 67.997ZM311.173 61.298C311.463 59.964 312.246 59.297 313.522 59.297H314.74C316.306 59.297 317.031 60.051 316.915 61.559L316.48 71.912C316.422 73.304 315.697 74 314.305 74H274.633C273.183 74 272.458 73.362 272.458 72.086C272.458 70.81 273.154 70.114 274.546 69.998L277.678 69.65C279.012 69.476 279.708 68.722 279.766 67.388C279.766 65.996 279.766 64.604 279.766 63.212C279.824 61.762 279.853 60.312 279.853 58.862V33.98C279.853 32.53 279.824 31.109 279.766 29.717C279.766 28.267 279.766 26.817 279.766 25.367C279.65 24.033 278.954 23.279 277.678 23.105L274.546 22.757C273.154 22.583 272.458 21.887 272.458 20.669C272.458 19.393 273.183 18.755 274.633 18.755H312.652C314.044 18.755 314.769 19.451 314.827 20.843L315.262 31.196C315.378 32.704 314.653 33.458 313.087 33.458H311.869C310.535 33.458 309.752 32.82 309.52 31.544L308.302 25.106C308.07 23.83 307.287 23.192 305.953 23.192H290.119C290.061 24.874 290.003 26.556 289.945 28.238C289.945 29.862 289.945 31.515 289.945 33.197V43.463H299.515C300.849 43.463 301.603 42.796 301.777 41.462L302.299 37.808C302.473 36.474 303.227 35.807 304.561 35.807C306.011 35.807 306.736 36.532 306.736 37.982V53.12C306.736 54.57 306.04 55.295 304.648 55.295C303.256 55.295 302.473 54.628 302.299 53.294L301.864 49.727C301.69 48.393 300.907 47.726 299.515 47.726H289.945V59.036C289.945 60.834 289.945 62.632 289.945 64.43C290.003 66.17 290.061 67.91 290.119 69.65H307.693C308.969 69.65 309.752 68.983 310.042 67.649L311.173 61.298ZM366.344 67.649C366.634 68.867 367.388 69.534 368.606 69.65L371.825 69.998C373.217 70.114 373.913 70.81 373.913 72.086C373.913 73.42 373.275 74.203 371.999 74.435C371.071 74.551 370.172 74.638 369.302 74.696C368.432 74.812 367.562 74.87 366.692 74.87C363.734 74.87 361.356 74.464 359.558 73.652C357.76 72.84 356.6 71.187 356.078 68.693L353.381 56.426C352.685 53.41 351.554 51.409 349.988 50.423C348.48 49.379 346.218 48.857 343.202 48.857H340.07V59.21C340.07 60.602 340.07 61.994 340.07 63.386C340.128 64.72 340.157 66.054 340.157 67.388C340.215 68.664 340.911 69.389 342.245 69.563L345.551 69.911C346.885 70.085 347.552 70.81 347.552 72.086C347.552 73.362 346.827 74 345.377 74H324.845C323.395 74 322.67 73.362 322.67 72.086C322.67 70.81 323.366 70.114 324.758 69.998L327.89 69.65C329.224 69.476 329.92 68.722 329.978 67.388C329.978 65.996 329.978 64.604 329.978 63.212C330.036 61.762 330.065 60.312 330.065 58.862V33.98C330.065 32.53 330.036 31.109 329.978 29.717C329.978 28.267 329.978 26.817 329.978 25.367C329.862 24.033 329.166 23.279 327.89 23.105L324.758 22.757C323.366 22.583 322.67 21.887 322.67 20.669C322.67 19.393 323.395 18.755 324.845 18.755H347.465C353.845 18.755 358.775 20.002 362.255 22.496C365.735 24.99 367.475 28.412 367.475 32.762C367.475 36.764 366.228 39.983 363.734 42.419C361.298 44.855 358.224 46.45 354.512 47.204C356.948 47.958 358.92 49.205 360.428 50.945C361.994 52.627 363.183 54.976 363.995 57.992L366.344 67.649ZM340.07 44.594H345.116C348.828 44.594 351.815 43.695 354.077 41.897C356.397 40.041 357.557 37.17 357.557 33.284C357.557 29.92 356.6 27.368 354.686 25.628C352.772 23.888 349.727 23.018 345.551 23.018H340.244C340.186 24.758 340.128 26.498 340.07 28.238C340.07 29.978 340.07 31.747 340.07 33.545V44.594Z" transform="translate(-1 -18)" fill="#ADE4FF" fill-opacity="0.8"/>
</svg>
