<svg width="50" height="48" viewBox="0 0 50 48" fill="none" xmlns="http://www.w3.org/2000/svg">
<path d="M10.3759 45.396C9.13766 45.396 8.07631 44.3443 8.07631 42.9421C8.07631 41.6801 9.10229 40.6636 10.3759 40.6636C11.6495 40.6636 12.6755 41.6801 12.6755 42.9421C12.6755 44.3443 11.6142 45.396 10.3759 45.396ZM38.325 23.662C46.9928 24.0125 49.8231 15.7747 50 15.0736C50 14.5477 50 14.5477 49.2924 14.0219C48.5849 13.3208 48.408 13.8466 48.2311 13.8466L42.7474 17.7027C37.7944 15.9499 38.325 10.867 38.325 10.867L43.6318 7.36151C43.6672 7.06354 43.5965 6.74805 43.4549 6.48514L43.2781 6.13459C29.4804 2.27856 30.188 17.3521 30.188 17.3521C30.188 17.3521 28.2421 19.2801 25.4118 21.9092C25.0581 21.5587 24.1736 20.8576 24.1736 20.8576C24.1736 20.8576 23.2891 20.1565 22.5815 20.6823C22.2278 20.8576 16.0365 14.8983 18.8668 11.2175C18.8668 11.2175 19.9282 9.81534 21.1664 10.3412C21.1664 10.3412 22.2278 10.5164 22.7584 9.99062C23.466 9.46479 25.5887 7.36151 25.5887 7.36151C25.5887 7.36151 23.1122 1.05164 18.3361 0C18.3361 0 15.5058 1.92801 14.9751 2.97966C14.2676 3.85603 14.9751 5.78404 13.56 6.83568C12.3217 7.71205 -5.19069 16.4758 1.53126 31.7246C1.53126 31.7246 3.65398 32.0751 4.36155 31.1988C4.89223 30.3224 1.70815 24.1878 7.54563 21.3834C7.54563 21.3834 13.9138 18.7543 17.8054 24.1878C17.8054 24.1878 16.921 24.8889 17.2748 25.59C17.4516 25.9405 17.8054 26.4664 19.0437 28.0438C13.56 33.1268 8.07631 38.2097 8.07631 38.385C6.66116 39.9625 5.95359 40.8388 5.95359 40.8388C5.95359 40.8388 3.83087 43.6432 7.19184 46.6229C10.199 49.252 12.6755 47.1487 12.6755 47.1487C12.6755 47.1487 19.0437 40.8388 25.2349 34.8795C29.8342 40.1377 35.141 45.7465 37.2637 47.324C37.2637 47.324 39.0326 48.3756 40.9784 46.4476C42.2167 45.396 43.9856 43.1174 43.9856 43.1174C43.9856 43.1174 45.047 41.5399 43.9856 40.4883C43.6318 40.1377 37.2637 33.8279 31.9569 28.3944C34.4334 26.1158 36.2023 24.3631 36.3792 24.1878C37.0868 23.8373 38.325 23.662 38.325 23.662Z" fill="#0889C9" fill-opacity="0.75"/>
</svg>
